Timmana-Regular.ufo
<glyph name="exclam" format="1">
  <advance width="243"/>
  <unicode hex="0021"/>
  <outline>
    <contour>
      <point x="155" y="111"/>
      <point x="132" y="133"/>
      <point x="99" y="133" type="curve" smooth="yes"/>
      <point x="53" y="133"/>
      <point x="24" y="87"/>
      <point x="24" y="51" type="curve" smooth="yes"/>
      <point x="24" y="15"/>
      <point x="47" y="-8"/>
      <point x="78" y="-8" type="curve" smooth="yes"/>
      <point x="125" y="-8"/>
      <point x="155" y="33"/>
      <point x="155" y="74" type="curve" smooth="yes"/>
    </contour>
    <contour>
      <point x="228" y="599" type="line"/>
      <point x="100" y="599" type="line"/>
      <point x="63" y="224" type="line"/>
      <point x="163" y="224" type="line"/>
    </contour>
  </outline>
</glyph>
<glyph name="quotedbl" format="1">
  <advance width="290"/>
  <unicode hex="0022"/>
  <outline>
    <contour>
      <point x="132" y="596" type="line"/>
      <point x="38" y="596" type="line"/>
      <point x="21" y="393" type="line"/>
      <point x="92" y="393" type="line"/>
    </contour>
    <contour>
      <point x="276" y="596" type="line"/>
      <point x="183" y="596" type="line"/>
      <point x="165" y="393" type="line"/>
      <point x="236" y="393" type="line"/>
    </contour>
  </outline>
</glyph>
<glyph name="numbersign" format="1">
  <advance width="465"/>
  <unicode hex="0023"/>
  <outline>
    <contour>
      <point x="286" y="330" type="line"/>
      <point x="257" y="236" type="line"/>
      <point x="188" y="236" type="line"/>
      <point x="217" y="330" type="line"/>
    </contour>
    <contour>
      <point x="351" y="530" type="line"/>
      <point x="313" y="409" type="line"/>
      <point x="246" y="409" type="line"/>
      <point x="283" y="525" type="line"/>
      <point x="200" y="534" type="line"/>
      <point x="161" y="409" type="line"/>
      <point x="87" y="409" type="line"/>
      <point x="65" y="330" type="line"/>
      <point x="133" y="330" type="line"/>
      <point x="103" y="236" type="line"/>
      <point x="41" y="236" type="line"/>
      <point x="21" y="155" type="line"/>
      <point x="77" y="155" type="line"/>
      <point x="37" y="36" type="line"/>
      <point x="65" y="30"/>
      <point x="89" y="30"/>
      <point x="118" y="27" type="curve"/>
      <point x="162" y="155" type="line"/>
      <point x="229" y="155" type="line"/>
      <point x="190" y="30" type="line"/>
      <point x="216" y="29"/>
      <point x="242" y="26"/>
      <point x="270" y="22" type="curve"/>
      <point x="316" y="155" type="line"/>
      <point x="389" y="155" type="line"/>
      <point x="411" y="236" type="line"/>
      <point x="341" y="236" type="line"/>
      <point x="371" y="330" type="line"/>
      <point x="434" y="330" type="line"/>
      <point x="455" y="409" type="line"/>
      <point x="397" y="409" type="line"/>
      <point x="434" y="520" type="line"/>
    </contour>
  </outline>
</glyph>
<glyph name="dollar" format="1">
  <advance width="397"/>
  <unicode hex="0024"/>
  <outline>
    <contour>
      <point x="75" y="310"/>
      <point x="117" y="277"/>
      <point x="155" y="248" type="curve" smooth="yes"/>
      <point x="191" y="223"/>
      <point x="225" y="201"/>
      <point x="225" y="168" type="curve" smooth="yes"/>
      <point x="225" y="130"/>
      <point x="190" y="115"/>
      <point x="162" y="115" type="curve" smooth="yes"/>
      <point x="121" y="115"/>
      <point x="75" y="132"/>
      <point x="52" y="141" type="curve"/>
      <point x="21" y="58" type="line"/>
      <point x="36" y="49"/>
      <point x="74" y="30"/>
      <point x="136" y="26" type="curve"/>
      <point x="124" y="-52" type="line"/>
      <point x="211" y="-52" type="line"/>
      <point x="220" y="32" type="line"/>
      <point x="302" y="48"/>
      <point x="354" y="101"/>
      <point x="354" y="189" type="curve" smooth="yes"/>
      <point x="354" y="246"/>
      <point x="312" y="279"/>
      <point x="271" y="307" type="curve" smooth="yes"/>
      <point x="235" y="333"/>
      <point x="199" y="354"/>
      <point x="199" y="385" type="curve" smooth="yes"/>
      <point x="199" y="424"/>
      <point x="242" y="434"/>
      <point x="268" y="434" type="curve" smooth="yes"/>
      <point x="306" y="434"/>
      <point x="346" y="423"/>
      <point x="361" y="417" type="curve"/>
      <point x="382" y="505" type="line"/>
      <point x="365" y="511"/>
      <point x="334" y="519"/>
      <point x="288" y="523" type="curve"/>
      <point x="294" y="551"/>
      <point x="297" y="578"/>
      <point x="303" y="604" type="curve"/>
      <point x="217" y="604" type="line"/>
      <point x="206" y="518" type="line"/>
      <point x="130" y="500"/>
      <point x="75" y="443"/>
      <point x="75" y="368" type="curve" smooth="yes"/>
    </contour>
  </outline>
</glyph>
<glyph name="percent" format="1">
  <advance width="523"/>
  <unicode hex="0025"/>
  <outline>
    <contour>
      <point x="109" y="345"/>
      <point x="98" y="362"/>
      <point x="98" y="397" type="curve" smooth="yes"/>
      <point x="98" y="432"/>
      <point x="109" y="514"/>
      <point x="152" y="514" type="curve" smooth="yes"/>
      <point x="174" y="514"/>
      <point x="182" y="497"/>
      <point x="182" y="464" type="curve" smooth="yes"/>
      <point x="182" y="417"/>
      <point x="169" y="345"/>
      <point x="129" y="345" type="curve" smooth="yes"/>
    </contour>
    <contour>
      <point x="253" y="539"/>
      <point x="222" y="573"/>
      <point x="161" y="573" type="curve" smooth="yes"/>
      <point x="56" y="573"/>
      <point x="28" y="467"/>
      <point x="28" y="387" type="curve" smooth="yes"/>
      <point x="28" y="317"/>
      <point x="57" y="286"/>
      <point x="121" y="286" type="curve" smooth="yes"/>
      <point x="223" y="286"/>
      <point x="253" y="383"/>
      <point x="253" y="471" type="curve" smooth="yes"/>
    </contour>
    <contour>
      <point x="486" y="562" type="line"/>
      <point x="394" y="562" type="line"/>
      <point x="40" y="-5" type="line"/>
      <point x="135" y="-5" type="line"/>
    </contour>
    <contour>
      <point x="355" y="41"/>
      <point x="344" y="58"/>
      <point x="344" y="94" type="curve" smooth="yes"/>
      <point x="344" y="129"/>
      <point x="355" y="211"/>
      <point x="398" y="211" type="curve" smooth="yes"/>
      <point x="420" y="211"/>
      <point x="429" y="193"/>
      <point x="429" y="160" type="curve" smooth="yes"/>
      <point x="429" y="113"/>
      <point x="416" y="41"/>
      <point x="375" y="41" type="curve" smooth="yes"/>
    </contour>
    <contour>
      <point x="500" y="236"/>
      <point x="468" y="270"/>
      <point x="408" y="270" type="curve" smooth="yes"/>
      <point x="303" y="270"/>
      <point x="274" y="164"/>
      <point x="274" y="84" type="curve" smooth="yes"/>
      <point x="274" y="14"/>
      <point x="304" y="-17"/>
      <point x="367" y="-17" type="curve" smooth="yes"/>
      <point x="469" y="-17"/>
      <point x="500" y="79"/>
      <point x="500" y="167" type="curve" smooth="yes"/>
    </contour>
  </outline>
</glyph>
<glyph name="ampersand" format="1">
  <advance width="535"/>
  <unicode hex="0026"/>
  <outline>
    <contour>
      <point x="281" y="114" type="line"/>
      <point x="262" y="93"/>
      <point x="238" y="81"/>
      <point x="213" y="81" type="curve" smooth="yes"/>
      <point x="174" y="81"/>
      <point x="154" y="109"/>
      <point x="154" y="152" type="curve" smooth="yes"/>
      <point x="154" y="196"/>
      <point x="174" y="234"/>
      <point x="210" y="249" type="curve"/>
    </contour>
    <contour>
      <point x="243" y="380" type="line" smooth="yes"/>
      <point x="232" y="395"/>
      <point x="230" y="409"/>
      <point x="230" y="421" type="curve" smooth="yes"/>
      <point x="230" y="449"/>
      <point x="242" y="487"/>
      <point x="272" y="487" type="curve" smooth="yes"/>
      <point x="298" y="487"/>
      <point x="307" y="467"/>
      <point x="307" y="450" type="curve" smooth="yes"/>
      <point x="307" y="414"/>
      <point x="279" y="384"/>
      <point x="253" y="367" type="curve" smooth="yes"/>
    </contour>
    <contour>
      <point x="520" y="0" type="line"/>
      <point x="433" y="115" type="line"/>
      <point x="466" y="148"/>
      <point x="507" y="213"/>
      <point x="520" y="279" type="curve"/>
      <point x="408" y="279" type="line"/>
      <point x="402" y="253"/>
      <point x="384" y="216"/>
      <point x="371" y="192" type="curve"/>
      <point x="294" y="295" type="line"/>
      <point x="371" y="337"/>
      <point x="422" y="391"/>
      <point x="422" y="477" type="curve" smooth="yes"/>
      <point x="422" y="542"/>
      <point x="370" y="574"/>
      <point x="287" y="574" type="curve" smooth="yes"/>
      <point x="189" y="574"/>
      <point x="112" y="526"/>
      <point x="112" y="423" type="curve" smooth="yes"/>
      <point x="112" y="380"/>
      <point x="129" y="350"/>
      <point x="154" y="321" type="curve"/>
      <point x="74" y="281"/>
      <point x="25" y="227"/>
      <point x="25" y="131" type="curve" smooth="yes"/>
      <point x="25" y="31"/>
      <point x="91" y="-10"/>
      <point x="184" y="-10" type="curve" smooth="yes"/>
      <point x="254" y="-10"/>
      <point x="299" y="10"/>
      <point x="339" y="40" type="curve"/>
      <point x="369" y="0" type="line"/>
    </contour>
  </outline>
</glyph>
<glyph name="quotesingle" format="1">
  <advance width="152"/>
  <unicode hex="0027"/>
  <outline>
    <contour>
      <point x="132" y="596" type="line"/>
      <point x="38" y="596" type="line"/>
      <point x="21" y="393" type="line"/>
      <point x="92" y="393" type="line"/>
    </contour>
  </outline>
</glyph>
<glyph name="parenleft" format="1">
  <advance width="313"/>
  <unicode hex="0028"/>
  <outline>
    <contour>
      <point x="232" y="633" type="line"/>
      <point x="83" y="508"/>
      <point x="24" y="305"/>
      <point x="24" y="124" type="curve" smooth="yes"/>
      <point x="24" y="-16"/>
      <point x="67" y="-109"/>
      <point x="119" y="-158" type="curve"/>
      <point x="200" y="-108" type="line"/>
      <point x="173" y="-75"/>
      <point x="140" y="12"/>
      <point x="140" y="132" type="curve" smooth="yes"/>
      <point x="140" y="276"/>
      <point x="192" y="482"/>
      <point x="295" y="581" type="curve"/>
    </contour>
  </outline>
</glyph>
<glyph name="parenright" format="1">
  <advance width="320"/>
  <unicode hex="0029"/>
  <outline>
    <contour>
      <point x="87" y="-158" type="line"/>
      <point x="232" y="-43"/>
      <point x="293" y="171"/>
      <point x="293" y="342" type="curve" smooth="yes"/>
      <point x="293" y="488"/>
      <point x="247" y="581"/>
      <point x="198" y="633" type="curve"/>
      <point x="118" y="581" type="line"/>
      <point x="144" y="546"/>
      <point x="176" y="461"/>
      <point x="176" y="338" type="curve" smooth="yes"/>
      <point x="176" y="186"/>
      <point x="124" y="-2"/>
      <point x="21" y="-108" type="curve"/>
    </contour>
  </outline>
</glyph>
<glyph name="asterisk" format="1">
  <advance width="352"/>
  <unicode hex="002A"/>
  <outline>
    <contour>
      <point x="60" y="505" type="line"/>
      <point x="21" y="423" type="line"/>
      <point x="121" y="401" type="line"/>
      <point x="36" y="320" type="line"/>
      <point x="99" y="268" type="line"/>
      <point x="170" y="364" type="line"/>
      <point x="213" y="268" type="line"/>
      <point x="292" y="320" type="line"/>
      <point x="227" y="402" type="line"/>
      <point x="335" y="423" type="line"/>
      <point x="320" y="505" type="line"/>
      <point x="214" y="463" type="line"/>
      <point x="243" y="573" type="line"/>
      <point x="155" y="573" type="line"/>
      <point x="150" y="463" type="line"/>
    </contour>
  </outline>
</glyph>
<glyph name="plus" format="1">
  <advance width="417"/>
  <unicode hex="002B"/>
  <outline>
    <contour>
      <point x="385" y="298" type="line"/>
      <point x="40" y="298" type="line"/>
      <point x="28" y="210" type="line"/>
      <point x="371" y="210" type="line"/>
    </contour>
    <contour>
      <point x="180" y="433" type="line"/>
      <point x="136" y="74" type="line"/>
      <point x="224" y="74" type="line"/>
      <point x="268" y="433" type="line"/>
    </contour>
  </outline>
</glyph>
<glyph name="comma" format="1">
  <advance width="187"/>
  <unicode hex="002C"/>
  <outline>
    <contour>
      <point x="45" y="36"/>
      <point x="49" y="23"/>
      <point x="49" y="9" type="curve"/>
      <point x="40" y="-17"/>
      <point x="19" y="-48"/>
      <point x="-4" y="-74" type="curve"/>
      <point x="49" y="-98" type="line"/>
      <point x="104" y="-52"/>
      <point x="165" y="9"/>
      <point x="165" y="78" type="curve" smooth="yes"/>
      <point x="165" y="108"/>
      <point x="148" y="129"/>
      <point x="111" y="129" type="curve" smooth="yes"/>
      <point x="66" y="129"/>
      <point x="45" y="86"/>
      <point x="45" y="49" type="curve" smooth="yes"/>
    </contour>
  </outline>
</glyph>
<glyph name="hyphen" format="1">
  <advance width="260"/>
  <unicode hex="002D"/>
  <outline>
    <contour>
      <point x="242" y="282" type="line"/>
      <point x="34" y="282" type="line"/>
      <point x="21" y="191" type="line"/>
      <point x="231" y="191" type="line"/>
    </contour>
  </outline>
</glyph>
<glyph name="period" format="1">
  <advance width="170"/>
  <unicode hex="002E"/>
  <outline>
    <contour>
      <point x="144" y="98"/>
      <point x="124" y="117"/>
      <point x="95" y="117" type="curve" smooth="yes"/>
      <point x="51" y="117"/>
      <point x="24" y="80"/>
      <point x="24" y="41" type="curve" smooth="yes"/>
      <point x="24" y="11"/>
      <point x="45" y="-7"/>
      <point x="74" y="-7" type="curve" smooth="yes"/>
      <point x="117" y="-7"/>
      <point x="144" y="29"/>
      <point x="144" y="67" type="curve" smooth="yes"/>
    </contour>
  </outline>
</glyph>
<glyph name="zero" format="1">
  <advance width="455"/>
  <unicode hex="0030"/>
  <outline>
    <contour>
      <point x="290" y="144"/>
      <point x="260" y="76"/>
      <point x="205" y="76" type="curve" smooth="yes"/>
      <point x="147" y="76"/>
      <point x="144" y="148"/>
      <point x="161" y="277" type="curve" smooth="yes"/>
      <point x="178" y="406"/>
      <point x="205" y="479"/>
      <point x="260" y="479" type="curve" smooth="yes"/>
      <point x="316" y="479"/>
      <point x="326" y="406"/>
      <point x="308" y="277" type="curve" smooth="yes"/>
    </contour>
    <contour>
      <point x="453" y="482"/>
      <point x="393" y="567"/>
      <point x="273" y="567" type="curve" smooth="yes"/>
      <point x="150" y="567"/>
      <point x="74" y="483"/>
      <point x="43" y="277" type="curve" smooth="yes"/>
      <point x="14" y="73"/>
      <point x="70" y="-11"/>
      <point x="191" y="-11" type="curve" smooth="yes"/>
      <point x="314" y="-11"/>
      <point x="394" y="73"/>
      <point x="423" y="277" type="curve" smooth="yes"/>
    </contour>
  </outline>
</glyph>
<glyph name="one" format="1">
  <advance width="316"/>
  <unicode hex="0031"/>
  <outline>
    <contour>
      <point x="194" y="557" type="line"/>
      <point x="163" y="534"/>
      <point x="87" y="487"/>
      <point x="21" y="437" type="curve"/>
      <point x="63" y="364" type="line"/>
      <point x="93" y="385"/>
      <point x="130" y="413"/>
      <point x="166" y="439" type="curve"/>
      <point x="104" y="0" type="line"/>
      <point x="221" y="0" type="line"/>
      <point x="298" y="557" type="line"/>
    </contour>
  </outline>
</glyph>
<glyph name="two" format="1">
  <advance width="419"/>
  <unicode hex="0032"/>
  <outline>
    <contour>
      <point x="358" y="98" type="line"/>
      <point x="166" y="92" type="line"/>
      <point x="272" y="186"/>
      <point x="398" y="302"/>
      <point x="398" y="446" type="curve" smooth="yes"/>
      <point x="398" y="525"/>
      <point x="351" y="567"/>
      <point x="251" y="567" type="curve" smooth="yes"/>
      <point x="183" y="567"/>
      <point x="118" y="544"/>
      <point x="100" y="531" type="curve"/>
      <point x="108" y="452" type="line"/>
      <point x="121" y="460"/>
      <point x="169" y="475"/>
      <point x="211" y="475" type="curve" smooth="yes"/>
      <point x="255" y="475"/>
      <point x="276" y="452"/>
      <point x="276" y="408" type="curve" smooth="yes"/>
      <point x="276" y="286"/>
      <point x="81" y="133"/>
      <point x="30" y="81" type="curve"/>
      <point x="21" y="0" type="line"/>
      <point x="345" y="0" type="line"/>
    </contour>
  </outline>
</glyph>
<glyph name="three" format="1">
  <advance width="438"/>
  <unicode hex="0033"/>
  <outline>
    <contour>
      <point x="124" y="454" type="line"/>
      <point x="129" y="456"/>
      <point x="179" y="474"/>
      <point x="224" y="474" type="curve" smooth="yes"/>
      <point x="269" y="474"/>
      <point x="296" y="456"/>
      <point x="296" y="420" type="curve" smooth="yes"/>
      <point x="296" y="377"/>
      <point x="270" y="354"/>
      <point x="246" y="332" type="curve"/>
      <point x="224" y="327"/>
      <point x="201" y="323"/>
      <point x="177" y="323" type="curve" smooth="yes"/>
      <point x="147" y="323" type="line"/>
      <point x="135" y="239" type="line"/>
      <point x="198" y="239" type="line" smooth="yes"/>
      <point x="247" y="239"/>
      <point x="277" y="222"/>
      <point x="277" y="182" type="curve" smooth="yes"/>
      <point x="277" y="115"/>
      <point x="228" y="84"/>
      <point x="173" y="84" type="curve" smooth="yes"/>
      <point x="119" y="84"/>
      <point x="74" y="110"/>
      <point x="63" y="114" type="curve"/>
      <point x="21" y="32" type="line"/>
      <point x="36" y="29"/>
      <point x="86" y="-11"/>
      <point x="177" y="-11" type="curve" smooth="yes"/>
      <point x="308" y="-11"/>
      <point x="400" y="62"/>
      <point x="400" y="191" type="curve" smooth="yes"/>
      <point x="400" y="248"/>
      <point x="371" y="280"/>
      <point x="323" y="295" type="curve"/>
      <point x="385" y="329"/>
      <point x="421" y="385"/>
      <point x="421" y="452" type="curve" smooth="yes"/>
      <point x="421" y="527"/>
      <point x="363" y="567"/>
      <point x="261" y="567" type="curve" smooth="yes"/>
      <point x="188" y="567"/>
      <point x="130" y="547"/>
      <point x="115" y="538" type="curve"/>
    </contour>
  </outline>
</glyph>
<glyph name="four" format="1">
  <advance width="434"/>
  <unicode hex="0034"/>
  <outline>
    <contour>
      <point x="225" y="557" type="line"/>
      <point x="30" y="220" type="line"/>
      <point x="21" y="144" type="line"/>
      <point x="247" y="144" type="line"/>
      <point x="225" y="0" type="line"/>
      <point x="343" y="0" type="line"/>
      <point x="364" y="144" type="line"/>
      <point x="408" y="144" type="line"/>
      <point x="420" y="239" type="line"/>
      <point x="375" y="239" type="line"/>
      <point x="393" y="353" type="line"/>
      <point x="272" y="338" type="line"/>
      <point x="260" y="239" type="line"/>
      <point x="166" y="239" type="line"/>
      <point x="347" y="557" type="line"/>
    </contour>
  </outline>
</glyph>
<glyph name="five" format="1">
  <advance width="427"/>
  <unicode hex="0035"/>
  <outline>
    <contour>
      <point x="154" y="557" type="line"/>
      <point x="87" y="258" type="line"/>
      <point x="118" y="247" type="line"/>
      <point x="128" y="257"/>
      <point x="163" y="268"/>
      <point x="196" y="268" type="curve" smooth="yes"/>
      <point x="243" y="268"/>
      <point x="267" y="245"/>
      <point x="267" y="199" type="curve" smooth="yes"/>
      <point x="267" y="140"/>
      <point x="236" y="80"/>
      <point x="174" y="80" type="curve" smooth="yes"/>
      <point x="132" y="80"/>
      <point x="81" y="100"/>
      <point x="62" y="110" type="curve"/>
      <point x="21" y="37" type="line"/>
      <point x="37" y="27"/>
      <point x="77" y="-11"/>
      <point x="166" y="-11" type="curve" smooth="yes"/>
      <point x="307" y="-11"/>
      <point x="385" y="84"/>
      <point x="385" y="213" type="curve" smooth="yes"/>
      <point x="385" y="305"/>
      <point x="334" y="351"/>
      <point x="247" y="351" type="curve" smooth="yes"/>
      <point x="228" y="351"/>
      <point x="216" y="347"/>
      <point x="201" y="342" type="curve"/>
      <point x="228" y="464" type="line"/>
      <point x="400" y="464" type="line"/>
      <point x="413" y="557" type="line"/>
    </contour>
  </outline>
</glyph>
<glyph name="six" format="1">
  <advance width="408"/>
  <unicode hex="0036"/>
  <outline>
    <contour>
      <point x="252" y="279"/>
      <point x="271" y="257"/>
      <point x="271" y="212" type="curve" smooth="yes"/>
      <point x="271" y="158"/>
      <point x="252" y="74"/>
      <point x="192" y="74" type="curve" smooth="yes"/>
      <point x="160" y="74"/>
      <point x="141" y="102"/>
      <point x="141" y="150" type="curve" smooth="yes"/>
      <point x="141" y="190"/>
      <point x="148" y="224"/>
      <point x="158" y="253" type="curve"/>
      <point x="176" y="270"/>
      <point x="196" y="279"/>
      <point x="222" y="279" type="curve" smooth="yes"/>
    </contour>
    <contour>
      <point x="336" y="571" type="line"/>
      <point x="148" y="496"/>
      <point x="25" y="357"/>
      <point x="25" y="155" type="curve" smooth="yes"/>
      <point x="25" y="39"/>
      <point x="89" y="-11"/>
      <point x="177" y="-11" type="curve" smooth="yes"/>
      <point x="307" y="-11"/>
      <point x="387" y="106"/>
      <point x="387" y="222" type="curve" smooth="yes"/>
      <point x="387" y="299"/>
      <point x="343" y="354"/>
      <point x="266" y="354" type="curve" smooth="yes"/>
      <point x="236" y="354"/>
      <point x="210" y="347"/>
      <point x="188" y="339" type="curve"/>
      <point x="228" y="419"/>
      <point x="291" y="463"/>
      <point x="358" y="490" type="curve"/>
    </contour>
  </outline>
</glyph>
<glyph name="seven" format="1">
  <advance width="411"/>
  <unicode hex="0037"/>
  <outline>
    <contour>
      <point x="402" y="557" type="line"/>
      <point x="74" y="557" type="line"/>
      <point x="60" y="460" type="line"/>
      <point x="269" y="466" type="line"/>
      <point x="247" y="419"/>
      <point x="86" y="135"/>
      <point x="21" y="0" type="curve"/>
      <point x="144" y="0" type="line"/>
      <point x="232" y="188"/>
      <point x="330" y="379"/>
      <point x="393" y="485" type="curve"/>
    </contour>
  </outline>
</glyph>
<glyph name="eight" format="1">
  <advance width="445"/>
  <unicode hex="0038"/>
  <outline>
    <contour>
      <point x="204" y="335"/>
      <point x="194" y="356"/>
      <point x="194" y="389" type="curve" smooth="yes"/>
      <point x="194" y="434"/>
      <point x="204" y="487"/>
      <point x="255" y="487" type="curve" smooth="yes"/>
      <point x="282" y="487"/>
      <point x="299" y="475"/>
      <point x="299" y="440" type="curve" smooth="yes"/>
      <point x="299" y="395"/>
      <point x="285" y="335"/>
      <point x="236" y="335" type="curve" smooth="yes"/>
    </contour>
    <contour>
      <point x="168" y="69"/>
      <point x="144" y="79"/>
      <point x="144" y="126" type="curve" smooth="yes"/>
      <point x="144" y="182"/>
      <point x="164" y="237"/>
      <point x="224" y="237" type="curve" smooth="yes"/>
      <point x="259" y="237"/>
      <point x="284" y="226"/>
      <point x="284" y="175" type="curve" smooth="yes"/>
      <point x="284" y="119"/>
      <point x="264" y="69"/>
      <point x="204" y="69" type="curve" smooth="yes"/>
    </contour>
    <contour>
      <point x="329" y="-11"/>
      <point x="406" y="59"/>
      <point x="406" y="189" type="curve" smooth="yes"/>
      <point x="406" y="247"/>
      <point x="376" y="280"/>
      <point x="319" y="298" type="curve"/>
      <point x="389" y="327"/>
      <point x="418" y="374"/>
      <point x="418" y="445" type="curve" smooth="yes"/>
      <point x="418" y="528"/>
      <point x="355" y="567"/>
      <point x="265" y="567" type="curve" smooth="yes"/>
      <point x="150" y="567"/>
      <point x="77" y="500"/>
      <point x="77" y="392" type="curve" smooth="yes"/>
      <point x="77" y="332"/>
      <point x="107" y="315"/>
      <point x="144" y="298" type="curve"/>
      <point x="56" y="270"/>
      <point x="25" y="213"/>
      <point x="25" y="128" type="curve" smooth="yes"/>
      <point x="25" y="22"/>
      <point x="92" y="-11"/>
      <point x="194" y="-11" type="curve" smooth="yes"/>
    </contour>
  </outline>
</glyph>
<glyph name="nine" format="1">
  <advance width="402"/>
  <unicode hex="0039"/>
  <outline>
    <contour>
      <point x="157" y="278"/>
      <point x="138" y="300"/>
      <point x="138" y="345" type="curve" smooth="yes"/>
      <point x="138" y="398"/>
      <point x="157" y="483"/>
      <point x="217" y="483" type="curve" smooth="yes"/>
      <point x="249" y="483"/>
      <point x="269" y="454"/>
      <point x="269" y="407" type="curve" smooth="yes"/>
      <point x="269" y="367"/>
      <point x="261" y="333"/>
      <point x="251" y="304" type="curve"/>
      <point x="234" y="287"/>
      <point x="213" y="278"/>
      <point x="188" y="278" type="curve" smooth="yes"/>
    </contour>
    <contour>
      <point x="74" y="-15" type="line"/>
      <point x="261" y="61"/>
      <point x="385" y="200"/>
      <point x="385" y="402" type="curve" smooth="yes"/>
      <point x="385" y="518"/>
      <point x="320" y="568"/>
      <point x="233" y="568" type="curve" smooth="yes"/>
      <point x="102" y="568"/>
      <point x="22" y="451"/>
      <point x="22" y="335" type="curve" smooth="yes"/>
      <point x="22" y="258"/>
      <point x="66" y="202"/>
      <point x="144" y="202" type="curve" smooth="yes"/>
      <point x="174" y="202"/>
      <point x="200" y="210"/>
      <point x="222" y="218" type="curve"/>
      <point x="181" y="138"/>
      <point x="119" y="94"/>
      <point x="52" y="66" type="curve"/>
    </contour>
  </outline>
</glyph>
<glyph name="less" format="1">
  <advance width="334"/>
  <unicode hex="003C"/>
  <outline>
    <contour>
      <point x="21" y="260" type="line"/>
      <point x="271" y="92" type="line"/>
      <point x="282" y="179" type="line"/>
      <point x="146" y="279" type="line"/>
      <point x="310" y="378" type="line"/>
      <point x="324" y="466" type="line"/>
      <point x="26" y="298" type="line"/>
    </contour>
  </outline>
</glyph>
<glyph name="greater" format="1">
  <advance width="343"/>
  <unicode hex="003E"/>
  <outline>
    <contour>
      <point x="323" y="298" type="line"/>
      <point x="73" y="466" type="line"/>
      <point x="60" y="378" type="line"/>
      <point x="199" y="279" type="line"/>
      <point x="32" y="179" type="line"/>
      <point x="21" y="92" type="line"/>
      <point x="319" y="260" type="line"/>
    </contour>
  </outline>
</glyph>
<glyph name="question" format="1">
  <advance width="338"/>
  <unicode hex="003F"/>
  <outline>
    <contour>
      <point x="152" y="113"/>
      <point x="131" y="132"/>
      <point x="99" y="132" type="curve" smooth="yes"/>
      <point x="52" y="132"/>
      <point x="25" y="86"/>
      <point x="25" y="48" type="curve" smooth="yes"/>
      <point x="25" y="13"/>
      <point x="47" y="-7"/>
      <point x="78" y="-7" type="curve" smooth="yes"/>
      <point x="128" y="-7"/>
      <point x="152" y="40"/>
      <point x="152" y="79" type="curve" smooth="yes"/>
    </contour>
    <contour>
      <point x="52" y="487" type="line"/>
      <point x="63" y="492"/>
      <point x="100" y="509"/>
      <point x="140" y="509" type="curve" smooth="yes"/>
      <point x="178" y="509"/>
      <point x="200" y="497"/>
      <point x="200" y="466" type="curve" smooth="yes"/>
      <point x="200" y="367"/>
      <point x="77" y="336"/>
      <point x="63" y="220" type="curve" smooth="yes"/>
      <point x="63" y="214"/>
      <point x="63" y="207"/>
      <point x="63" y="201" type="curve"/>
      <point x="80" y="201"/>
      <point x="135" y="209"/>
      <point x="154" y="209" type="curve"/>
      <point x="172" y="325"/>
      <point x="322" y="330"/>
      <point x="322" y="489" type="curve" smooth="yes"/>
      <point x="322" y="570"/>
      <point x="264" y="606"/>
      <point x="179" y="606" type="curve" smooth="yes"/>
      <point x="100" y="606"/>
      <point x="55" y="579"/>
      <point x="44" y="571" type="curve"/>
    </contour>
  </outline>
</glyph>
<glyph name="at" format="1">
  <advance width="661"/>
  <unicode hex="0040"/>
  <outline>
    <contour>
      <point x="283" y="59"/>
      <point x="271" y="80"/>
      <point x="271" y="123" type="curve" smooth="yes"/>
      <point x="271" y="175"/>
      <point x="283" y="295"/>
      <point x="349" y="295" type="curve" smooth="yes"/>
      <point x="369" y="295"/>
      <point x="383" y="280"/>
      <point x="393" y="270" type="curve"/>
      <point x="368" y="100" type="line"/>
      <point x="354" y="82"/>
      <point x="335" y="59"/>
      <point x="309" y="59" type="curve" smooth="yes"/>
    </contour>
    <contour>
      <point x="600" y="-15"/>
      <point x="644" y="184"/>
      <point x="644" y="293" type="curve" smooth="yes"/>
      <point x="644" y="454"/>
      <point x="549" y="545"/>
      <point x="398" y="545" type="curve" smooth="yes"/>
      <point x="151" y="545"/>
      <point x="27" y="300"/>
      <point x="27" y="95" type="curve" smooth="yes"/>
      <point x="27" y="-77"/>
      <point x="115" y="-185"/>
      <point x="281" y="-185" type="curve" smooth="yes"/>
      <point x="328" y="-185"/>
      <point x="373" y="-176"/>
      <point x="393" y="-174" type="curve"/>
      <point x="387" y="-100" type="line"/>
      <point x="372" y="-102"/>
      <point x="339" y="-108"/>
      <point x="305" y="-108" type="curve" smooth="yes"/>
      <point x="178" y="-108"/>
      <point x="115" y="-35"/>
      <point x="115" y="99" type="curve" smooth="yes"/>
      <point x="115" y="271"/>
      <point x="194" y="467"/>
      <point x="386" y="467" type="curve" smooth="yes"/>
      <point x="500" y="467"/>
      <point x="555" y="400"/>
      <point x="555" y="280" type="curve" smooth="yes"/>
      <point x="555" y="198"/>
      <point x="524" y="52"/>
      <point x="472" y="52" type="curve" smooth="yes"/>
      <point x="449" y="52"/>
      <point x="448" y="77"/>
      <point x="453" y="108" type="curve" smooth="yes"/>
      <point x="487" y="352" type="line"/>
      <point x="417" y="363" type="line"/>
      <point x="413" y="357"/>
      <point x="413" y="339"/>
      <point x="409" y="332" type="curve"/>
      <point x="389" y="343"/>
      <point x="364" y="361"/>
      <point x="330" y="361" type="curve" smooth="yes"/>
      <point x="220" y="361"/>
      <point x="180" y="198"/>
      <point x="180" y="116" type="curve" smooth="yes"/>
      <point x="180" y="24"/>
      <point x="226" y="-15"/>
      <point x="275" y="-15" type="curve" smooth="yes"/>
      <point x="324" y="-15"/>
      <point x="354" y="23"/>
      <point x="376" y="45" type="curve"/>
      <point x="382" y="5"/>
      <point x="417" y="-15"/>
      <point x="455" y="-15" type="curve" smooth="yes"/>
    </contour>
  </outline>
</glyph>
<glyph name="A" format="1">
  <advance width="489"/>
  <unicode hex="0041"/>
  <outline>
    <contour>
      <point x="306" y="390"/>
      <point x="320" y="273"/>
      <point x="327" y="177" type="curve"/>
      <point x="206" y="177" type="line"/>
      <point x="246" y="273"/>
      <point x="283" y="391"/>
      <point x="306" y="448" type="curve"/>
    </contour>
    <contour>
      <point x="21" y="0" type="line"/>
      <point x="139" y="0" type="line"/>
      <point x="178" y="97" type="line"/>
      <point x="334" y="97" type="line"/>
      <point x="345" y="0" type="line"/>
      <point x="468" y="0" type="line"/>
      <point x="395" y="557" type="line"/>
      <point x="254" y="557" type="line"/>
    </contour>
    <contour>
      <point x="322" y="580" type="move" name="top"/>
    </contour>
  </outline>
</glyph>
<glyph name="B" format="1">
  <advance width="448"/>
  <unicode hex="0042"/>
  <outline>
    <contour>
      <point x="287" y="476"/>
      <point x="302" y="454"/>
      <point x="302" y="414" type="curve" smooth="yes"/>
      <point x="302" y="355"/>
      <point x="263" y="313"/>
      <point x="205" y="313" type="curve" smooth="yes"/>
      <point x="178" y="313" type="line"/>
      <point x="199" y="475" type="line"/>
      <point x="210" y="475"/>
      <point x="221" y="476"/>
      <point x="235" y="476" type="curve" smooth="yes"/>
    </contour>
    <contour>
      <point x="256" y="244"/>
      <point x="283" y="224"/>
      <point x="283" y="182" type="curve" smooth="yes"/>
      <point x="283" y="106"/>
      <point x="235" y="80"/>
      <point x="170" y="80" type="curve" smooth="yes"/>
      <point x="161" y="80"/>
      <point x="154" y="81"/>
      <point x="144" y="81" type="curve"/>
      <point x="168" y="243" type="line"/>
      <point x="178" y="244"/>
      <point x="188" y="244"/>
      <point x="201" y="244" type="curve" smooth="yes"/>
    </contour>
    <contour>
      <point x="21" y="0" type="line"/>
      <point x="51" y="0"/>
      <point x="108" y="-5"/>
      <point x="168" y="-5" type="curve" smooth="yes"/>
      <point x="304" y="-5"/>
      <point x="400" y="53"/>
      <point x="400" y="190" type="curve" smooth="yes"/>
      <point x="400" y="248"/>
      <point x="372" y="278"/>
      <point x="331" y="290" type="curve"/>
      <point x="389" y="325"/>
      <point x="418" y="390"/>
      <point x="418" y="453" type="curve" smooth="yes"/>
      <point x="418" y="534"/>
      <point x="362" y="560"/>
      <point x="242" y="560" type="curve" smooth="yes"/>
      <point x="184" y="560"/>
      <point x="129" y="557"/>
      <point x="99" y="557" type="curve"/>
    </contour>
  </outline>
</glyph>
<glyph name="C" format="1">
  <advance width="457"/>
  <unicode hex="0043"/>
  <outline>
    <contour>
      <point x="180" y="409"/>
      <point x="218" y="474"/>
      <point x="316" y="474" type="curve" smooth="yes"/>
      <point x="352" y="474"/>
      <point x="387" y="460"/>
      <point x="406" y="453" type="curve"/>
      <point x="434" y="541" type="line"/>
      <point x="405" y="552"/>
      <point x="382" y="567"/>
      <point x="309" y="567" type="curve" smooth="yes"/>
      <point x="157" y="567"/>
      <point x="70" y="477"/>
      <point x="41" y="277" type="curve" smooth="yes"/>
      <point x="14" y="80"/>
      <point x="75" y="-14"/>
      <point x="227" y="-14" type="curve" smooth="yes"/>
      <point x="297" y="-14"/>
      <point x="346" y="7"/>
      <point x="361" y="14" type="curve"/>
      <point x="357" y="102" type="line"/>
      <point x="339" y="97"/>
      <point x="301" y="81"/>
      <point x="260" y="81" type="curve" smooth="yes"/>
      <point x="166" y="81"/>
      <point x="144" y="146"/>
      <point x="165" y="277" type="curve"/>
    </contour>
  </outline>
</glyph>
<glyph name="D" format="1">
  <advance width="485"/>
  <unicode hex="0044"/>
  <outline>
    <contour>
      <point x="151" y="87" type="line"/>
      <point x="205" y="467" type="line"/>
      <point x="218" y="468"/>
      <point x="231" y="468"/>
      <point x="246" y="468" type="curve" smooth="yes"/>
      <point x="323" y="468"/>
      <point x="351" y="411"/>
      <point x="330" y="277" type="curve" smooth="yes"/>
      <point x="312" y="150"/>
      <point x="270" y="87"/>
      <point x="191" y="87" type="curve" smooth="yes"/>
    </contour>
    <contour>
      <point x="21" y="0" type="line"/>
      <point x="49" y="0"/>
      <point x="100" y="-5"/>
      <point x="168" y="-5" type="curve" smooth="yes"/>
      <point x="321" y="-5"/>
      <point x="420" y="52"/>
      <point x="450" y="277" type="curve" smooth="yes"/>
      <point x="479" y="508"/>
      <point x="405" y="560"/>
      <point x="247" y="560" type="curve" smooth="yes"/>
      <point x="179" y="560"/>
      <point x="128" y="557"/>
      <point x="99" y="557" type="curve"/>
    </contour>
  </outline>
</glyph>
<glyph name="E" format="1">
  <advance width="415"/>
  <unicode hex="0045"/>
  <outline>
    <contour>
      <point x="323" y="0" type="line"/>
      <point x="335" y="96" type="line"/>
      <point x="152" y="96" type="line"/>
      <point x="173" y="243" type="line"/>
      <point x="312" y="243" type="line"/>
      <point x="324" y="332" type="line"/>
      <point x="187" y="332" type="line"/>
      <point x="205" y="461" type="line"/>
      <point x="385" y="461" type="line"/>
      <point x="400" y="557" type="line"/>
      <point x="99" y="557" type="line"/>
      <point x="21" y="0" type="line"/>
    </contour>
    <contour>
      <point x="239" y="580" type="move" name="top"/>
    </contour>
  </outline>
</glyph>
<glyph name="F" format="1">
  <advance width="408"/>
  <unicode hex="0046"/>
  <outline>
    <contour>
      <point x="327" y="309" type="line"/>
      <point x="183" y="309" type="line"/>
      <point x="205" y="461" type="line"/>
      <point x="376" y="461" type="line"/>
      <point x="390" y="557" type="line"/>
      <point x="99" y="557" type="line"/>
      <point x="21" y="0" type="line"/>
      <point x="140" y="0" type="line"/>
      <point x="170" y="218" type="line"/>
      <point x="314" y="218" type="line"/>
    </contour>
  </outline>
</glyph>
<glyph name="G" format="1">
  <advance width="457"/>
  <unicode hex="0047"/>
  <outline>
    <contour>
      <point x="435" y="323" type="line"/>
      <point x="260" y="323" type="line"/>
      <point x="247" y="229" type="line"/>
      <point x="305" y="229" type="line"/>
      <point x="284" y="81" type="line"/>
      <point x="260" y="81" type="line" smooth="yes"/>
      <point x="166" y="81"/>
      <point x="147" y="146"/>
      <point x="165" y="277" type="curve" smooth="yes"/>
      <point x="183" y="409"/>
      <point x="218" y="474"/>
      <point x="316" y="474" type="curve" smooth="yes"/>
      <point x="356" y="474"/>
      <point x="390" y="463"/>
      <point x="420" y="453" type="curve"/>
      <point x="449" y="541" type="line"/>
      <point x="406" y="554"/>
      <point x="376" y="567"/>
      <point x="309" y="567" type="curve" smooth="yes"/>
      <point x="157" y="567"/>
      <point x="70" y="477"/>
      <point x="41" y="277" type="curve" smooth="yes"/>
      <point x="14" y="80"/>
      <point x="75" y="-14"/>
      <point x="227" y="-14" type="curve" smooth="yes"/>
      <point x="305" y="-14"/>
      <point x="376" y="8"/>
      <point x="393" y="14" type="curve"/>
    </contour>
  </outline>
</glyph>
<glyph name="H" format="1">
  <advance width="492"/>
  <unicode hex="0048"/>
  <outline>
    <contour>
      <point x="485" y="557" type="line"/>
      <point x="367" y="557" type="line"/>
      <point x="335" y="323" type="line"/>
      <point x="184" y="323" type="line"/>
      <point x="217" y="557" type="line"/>
      <point x="99" y="557" type="line"/>
      <point x="21" y="0" type="line"/>
      <point x="139" y="0" type="line"/>
      <point x="170" y="229" type="line"/>
      <point x="323" y="229" type="line"/>
      <point x="290" y="0" type="line"/>
      <point x="406" y="0" type="line"/>
    </contour>
  </outline>
</glyph>
<glyph name="I" format="1">
  <advance width="227"/>
  <unicode hex="0049"/>
  <outline>
    <contour>
      <point x="217" y="557" type="line"/>
      <point x="99" y="557" type="line"/>
      <point x="21" y="0" type="line"/>
      <point x="139" y="0" type="line"/>
    </contour>
    <contour>
      <point x="157" y="580" type="move" name="top"/>
    </contour>
  </outline>
</glyph>
<glyph name="J" format="1">
  <advance width="324"/>
  <unicode hex="004A"/>
  <outline>
    <contour>
      <point x="316" y="557" type="line"/>
      <point x="198" y="557" type="line"/>
      <point x="130" y="84" type="line" smooth="yes"/>
      <point x="117" y="-8"/>
      <point x="97" y="-41"/>
      <point x="40" y="-52" type="curve"/>
      <point x="21" y="-140" type="line"/>
      <point x="30" y="-141"/>
      <point x="38" y="-141"/>
      <point x="48" y="-141" type="curve" smooth="yes"/>
      <point x="157" y="-141"/>
      <point x="222" y="-99"/>
      <point x="251" y="109" type="curve" smooth="yes"/>
    </contour>
  </outline>
</glyph>
<glyph name="K" format="1">
  <advance width="489"/>
  <unicode hex="004B"/>
  <outline>
    <contour>
      <point x="21" y="0" type="line"/>
      <point x="139" y="0" type="line"/>
      <point x="177" y="271" type="line"/>
      <point x="282" y="0" type="line"/>
      <point x="423" y="0" type="line"/>
      <point x="291" y="305" type="line"/>
      <point x="483" y="557" type="line"/>
      <point x="352" y="557" type="line"/>
      <point x="183" y="313" type="line"/>
      <point x="217" y="557" type="line"/>
      <point x="99" y="557" type="line"/>
    </contour>
  </outline>
</glyph>
<glyph name="L" format="1">
  <advance width="332"/>
  <unicode hex="004C"/>
  <outline>
    <contour>
      <point x="295" y="0" type="line"/>
      <point x="316" y="96" type="line"/>
      <point x="151" y="96" type="line"/>
      <point x="217" y="557" type="line"/>
      <point x="99" y="557" type="line"/>
      <point x="21" y="0" type="line"/>
    </contour>
  </outline>
</glyph>
<glyph name="M" format="1">
  <advance width="601"/>
  <unicode hex="004D"/>
  <outline>
    <contour>
      <point x="590" y="557" type="line"/>
      <point x="475" y="557" type="line"/>
      <point x="452" y="511"/>
      <point x="341" y="271"/>
      <point x="320" y="205" type="curve"/>
      <point x="314" y="275"/>
      <point x="275" y="508"/>
      <point x="266" y="557" type="curve"/>
      <point x="151" y="557" type="line"/>
      <point x="21" y="0" type="line"/>
      <point x="135" y="0" type="line"/>
      <point x="207" y="354" type="line"/>
      <point x="217" y="295"/>
      <point x="250" y="89"/>
      <point x="255" y="47" type="curve"/>
      <point x="336" y="47" type="line"/>
      <point x="468" y="354" type="line"/>
      <point x="464" y="282"/>
      <point x="449" y="56"/>
      <point x="444" y="0" type="curve"/>
      <point x="563" y="0" type="line"/>
    </contour>
  </outline>
</glyph>
<glyph name="N" format="1">
  <advance width="498"/>
  <unicode hex="004E"/>
  <outline>
    <contour>
      <point x="483" y="557" type="line"/>
      <point x="379" y="557" type="line"/>
      <point x="339" y="269" type="line"/>
      <point x="338" y="244"/>
      <point x="336" y="217"/>
      <point x="332" y="207" type="curve"/>
      <point x="331" y="207" type="line"/>
      <point x="205" y="557" type="line"/>
      <point x="99" y="557" type="line"/>
      <point x="21" y="0" type="line"/>
      <point x="124" y="0" type="line"/>
      <point x="163" y="288" type="line"/>
      <point x="168" y="314"/>
      <point x="169" y="339"/>
      <point x="170" y="351" type="curve"/>
      <point x="301" y="0" type="line"/>
      <point x="405" y="0" type="line"/>
    </contour>
  </outline>
</glyph>
<glyph name="O" format="1">
  <advance width="498"/>
  <unicode hex="004F"/>
  <outline>
    <contour>
      <point x="329" y="154"/>
      <point x="294" y="82"/>
      <point x="225" y="82" type="curve" smooth="yes"/>
      <point x="161" y="82"/>
      <point x="144" y="154"/>
      <point x="163" y="277" type="curve" smooth="yes"/>
      <point x="181" y="404"/>
      <point x="217" y="474"/>
      <point x="281" y="474" type="curve" smooth="yes"/>
      <point x="346" y="474"/>
      <point x="363" y="404"/>
      <point x="346" y="277" type="curve" smooth="yes"/>
    </contour>
    <contour>
      <point x="496" y="477"/>
      <point x="431" y="567"/>
      <point x="295" y="567" type="curve" smooth="yes"/>
      <point x="158" y="567"/>
      <point x="70" y="477"/>
      <point x="41" y="277" type="curve" smooth="yes"/>
      <point x="14" y="80"/>
      <point x="76" y="-11"/>
      <point x="213" y="-11" type="curve" smooth="yes"/>
      <point x="351" y="-11"/>
      <point x="439" y="80"/>
      <point x="467" y="277" type="curve" smooth="yes"/>
    </contour>
  </outline>
</glyph>
<glyph name="P" format="1">
  <advance width="448"/>
  <unicode hex="0050"/>
  <outline>
    <contour>
      <point x="288" y="472"/>
      <point x="311" y="439"/>
      <point x="301" y="372" type="curve" smooth="yes"/>
      <point x="289" y="294"/>
      <point x="253" y="269"/>
      <point x="205" y="269" type="curve" smooth="yes"/>
      <point x="172" y="269" type="line"/>
      <point x="201" y="471" type="line"/>
      <point x="214" y="472"/>
      <point x="225" y="472"/>
      <point x="236" y="472" type="curve" smooth="yes"/>
    </contour>
    <contour>
      <point x="21" y="0" type="line"/>
      <point x="135" y="0" type="line"/>
      <point x="161" y="184" type="line"/>
      <point x="174" y="183"/>
      <point x="187" y="183"/>
      <point x="200" y="183" type="curve" smooth="yes"/>
      <point x="308" y="183"/>
      <point x="397" y="231"/>
      <point x="419" y="372" type="curve" smooth="yes"/>
      <point x="437" y="496"/>
      <point x="389" y="560"/>
      <point x="246" y="560" type="curve" smooth="yes"/>
      <point x="194" y="560"/>
      <point x="125" y="557"/>
      <point x="99" y="557" type="curve"/>
    </contour>
  </outline>
</glyph>
<glyph name="Q" format="1">
  <advance width="504"/>
  <unicode hex="0051"/>
  <outline>
    <contour>
      <point x="329" y="154"/>
      <point x="294" y="82"/>
      <point x="225" y="82" type="curve" smooth="yes"/>
      <point x="161" y="82"/>
      <point x="144" y="154"/>
      <point x="163" y="277" type="curve" smooth="yes"/>
      <point x="181" y="404"/>
      <point x="217" y="474"/>
      <point x="281" y="474" type="curve" smooth="yes"/>
      <point x="346" y="474"/>
      <point x="363" y="404"/>
      <point x="346" y="277" type="curve" smooth="yes"/>
    </contour>
    <contour>
      <point x="264" y="-91"/>
      <point x="338" y="-114"/>
      <point x="351" y="-117" type="curve"/>
      <point x="413" y="-38" type="line"/>
      <point x="394" y="-29"/>
      <point x="358" y="-12"/>
      <point x="328" y="17" type="curve"/>
      <point x="401" y="58"/>
      <point x="448" y="141"/>
      <point x="467" y="277" type="curve" smooth="yes"/>
      <point x="496" y="477"/>
      <point x="431" y="567"/>
      <point x="295" y="567" type="curve" smooth="yes"/>
      <point x="158" y="567"/>
      <point x="70" y="477"/>
      <point x="41" y="277" type="curve" smooth="yes"/>
      <point x="14" y="80"/>
      <point x="76" y="-11"/>
      <point x="213" y="-11" type="curve"/>
    </contour>
  </outline>
</glyph>
<glyph name="R" format="1">
  <advance width="454"/>
  <unicode hex="0052"/>
  <outline>
    <contour>
      <point x="206" y="295"/>
      <point x="184" y="298"/>
      <point x="174" y="298" type="curve"/>
      <point x="198" y="470" type="line"/>
      <point x="217" y="471"/>
      <point x="231" y="472"/>
      <point x="246" y="472" type="curve" smooth="yes"/>
      <point x="299" y="472"/>
      <point x="318" y="442"/>
      <point x="309" y="383" type="curve" smooth="yes"/>
      <point x="300" y="325"/>
      <point x="272" y="295"/>
      <point x="225" y="295" type="curve" smooth="yes"/>
    </contour>
    <contour>
      <point x="21" y="0" type="line"/>
      <point x="132" y="0" type="line"/>
      <point x="162" y="213" type="line"/>
      <point x="168" y="213"/>
      <point x="184" y="211"/>
      <point x="205" y="211" type="curve"/>
      <point x="264" y="0" type="line"/>
      <point x="389" y="0" type="line"/>
      <point x="312" y="227" type="line"/>
      <point x="364" y="243"/>
      <point x="415" y="292"/>
      <point x="427" y="380" type="curve" smooth="yes"/>
      <point x="445" y="514"/>
      <point x="387" y="560"/>
      <point x="249" y="560" type="curve" smooth="yes"/>
      <point x="190" y="560"/>
      <point x="129" y="557"/>
      <point x="99" y="557" type="curve"/>
    </contour>
  </outline>
</glyph>
<glyph name="S" format="1">
  <advance width="444"/>
  <unicode hex="0053"/>
  <outline>
    <contour>
      <point x="167" y="567"/>
      <point x="82" y="498"/>
      <point x="82" y="380" type="curve" smooth="yes"/>
      <point x="82" y="304"/>
      <point x="130" y="273"/>
      <point x="176" y="243" type="curve" smooth="yes"/>
      <point x="218" y="215"/>
      <point x="258" y="199"/>
      <point x="258" y="154" type="curve" smooth="yes"/>
      <point x="258" y="98"/>
      <point x="201" y="81"/>
      <point x="167" y="81" type="curve" smooth="yes"/>
      <point x="120" y="81"/>
      <point x="92" y="100"/>
      <point x="60" y="115" type="curve"/>
      <point x="21" y="30" type="line"/>
      <point x="51" y="12"/>
      <point x="90" y="-11"/>
      <point x="169" y="-11" type="curve" smooth="yes"/>
      <point x="288" y="-11"/>
      <point x="380" y="54"/>
      <point x="380" y="179" type="curve" smooth="yes"/>
      <point x="380" y="253"/>
      <point x="332" y="282"/>
      <point x="286" y="313" type="curve" smooth="yes"/>
      <point x="245" y="340"/>
      <point x="204" y="358"/>
      <point x="204" y="407" type="curve" smooth="yes"/>
      <point x="204" y="454"/>
      <point x="247" y="478"/>
      <point x="283" y="478" type="curve" smooth="yes"/>
      <point x="330" y="478"/>
      <point x="373" y="453"/>
      <point x="387" y="445" type="curve"/>
      <point x="428" y="530" type="line"/>
      <point x="409" y="537"/>
      <point x="371" y="567"/>
      <point x="283" y="567" type="curve" smooth="yes"/>
    </contour>
  </outline>
</glyph>
<glyph name="T" format="1">
  <advance width="398"/>
  <unicode hex="0054"/>
  <outline>
    <contour>
      <point x="382" y="557" type="line"/>
      <point x="33" y="557" type="line"/>
      <point x="21" y="461" type="line"/>
      <point x="135" y="461" type="line"/>
      <point x="71" y="0" type="line"/>
      <point x="189" y="0" type="line"/>
      <point x="254" y="461" type="line"/>
      <point x="367" y="461" type="line"/>
    </contour>
  </outline>
</glyph>
<glyph name="U" format="1">
  <advance width="460"/>
  <unicode hex="0055"/>
  <outline>
    <contour>
      <point x="30" y="260" type="line" smooth="yes"/>
      <point x="2" y="65"/>
      <point x="49" y="-11"/>
      <point x="183" y="-11" type="curve" smooth="yes"/>
      <point x="319" y="-11"/>
      <point x="378" y="65"/>
      <point x="406" y="260" type="curve" smooth="yes"/>
      <point x="448" y="557" type="line"/>
      <point x="331" y="557" type="line"/>
      <point x="291" y="260" type="line" smooth="yes"/>
      <point x="274" y="139"/>
      <point x="264" y="82"/>
      <point x="195" y="82" type="curve" smooth="yes"/>
      <point x="130" y="82"/>
      <point x="132" y="138"/>
      <point x="150" y="260" type="curve" smooth="yes"/>
      <point x="191" y="557" type="line"/>
      <point x="74" y="557" type="line"/>
    </contour>
  </outline>
</glyph>
<glyph name="V" format="1">
  <advance width="461"/>
  <unicode hex="0056"/>
  <outline>
    <contour>
      <point x="218" y="0" type="line"/>
      <point x="452" y="557" type="line"/>
      <point x="330" y="557" type="line"/>
      <point x="191" y="173" type="line"/>
      <point x="170" y="89" type="line"/>
      <point x="170" y="173" type="line"/>
      <point x="143" y="557" type="line"/>
      <point x="21" y="557" type="line"/>
      <point x="98" y="0" type="line"/>
    </contour>
  </outline>
</glyph>
<glyph name="W" format="1">
  <advance width="637"/>
  <unicode hex="0057"/>
  <outline>
    <contour>
      <point x="512" y="557" type="line"/>
      <point x="391" y="180" type="line"/>
      <point x="365" y="512" type="line"/>
      <point x="275" y="512" type="line"/>
      <point x="155" y="180" type="line"/>
      <point x="139" y="557" type="line"/>
      <point x="21" y="557" type="line"/>
      <point x="59" y="0" type="line"/>
      <point x="168" y="0" type="line"/>
      <point x="295" y="354" type="line"/>
      <point x="323" y="0" type="line"/>
      <point x="434" y="0" type="line"/>
      <point x="628" y="557" type="line"/>
    </contour>
  </outline>
</glyph>
<glyph name="X" format="1">
  <advance width="548"/>
  <unicode hex="0058"/>
  <outline>
    <contour>
      <point x="21" y="0" type="line"/>
      <point x="155" y="0" type="line"/>
      <point x="244" y="142" type="line" smooth="yes"/>
      <point x="254" y="157"/>
      <point x="263" y="176"/>
      <point x="272" y="195" type="curve"/>
      <point x="274" y="180"/>
      <point x="280" y="157"/>
      <point x="288" y="132" type="curve" smooth="yes"/>
      <point x="331" y="0" type="line"/>
      <point x="470" y="0" type="line"/>
      <point x="352" y="279" type="line"/>
      <point x="541" y="557" type="line"/>
      <point x="406" y="557" type="line"/>
      <point x="327" y="423" type="line" smooth="yes"/>
      <point x="312" y="398"/>
      <point x="301" y="377"/>
      <point x="295" y="364" type="curve"/>
      <point x="293" y="378"/>
      <point x="287" y="403"/>
      <point x="278" y="431" type="curve" smooth="yes"/>
      <point x="239" y="557" type="line"/>
      <point x="106" y="557" type="line"/>
      <point x="216" y="280" type="line"/>
    </contour>
  </outline>
</glyph>
<glyph name="Y" format="1">
  <advance width="478"/>
  <unicode hex="0059"/>
  <outline>
    <contour>
      <point x="253" y="184" type="line"/>
      <point x="470" y="557" type="line"/>
      <point x="343" y="557" type="line"/>
      <point x="209" y="288" type="line"/>
      <point x="146" y="557" type="line"/>
      <point x="21" y="557" type="line"/>
      <point x="135" y="184" type="line"/>
      <point x="109" y="0" type="line"/>
      <point x="227" y="0" type="line"/>
    </contour>
  </outline>
</glyph>
<glyph name="Z" format="1">
  <advance width="444"/>
  <unicode hex="005A"/>
  <outline>
    <contour>
      <point x="438" y="557" type="line"/>
      <point x="106" y="557" type="line"/>
      <point x="92" y="463" type="line"/>
      <point x="293" y="463" type="line"/>
      <point x="30" y="76" type="line"/>
      <point x="21" y="0" type="line"/>
      <point x="364" y="0" type="line"/>
      <point x="378" y="95" type="line"/>
      <point x="166" y="95" type="line"/>
      <point x="427" y="481" type="line"/>
    </contour>
  </outline>
</glyph>
<glyph name="bracketleft" format="1">
  <advance width="332"/>
  <unicode hex="005B"/>
  <outline>
    <contour>
      <point x="221" y="-44" type="line"/>
      <point x="128" y="-44" type="line"/>
      <point x="213" y="567" type="line"/>
      <point x="306" y="567" type="line"/>
      <point x="316" y="643" type="line"/>
      <point x="129" y="643" type="line"/>
      <point x="21" y="-121" type="line"/>
      <point x="210" y="-121" type="line"/>
    </contour>
  </outline>
</glyph>
<glyph name="backslash" format="1">
  <advance width="258"/>
  <unicode hex="005C"/>
  <outline>
    <contour>
      <point x="21" y="607" type="line"/>
      <point x="151" y="-115" type="line"/>
      <point x="254" y="-115" type="line"/>
      <point x="122" y="607" type="line"/>
    </contour>
  </outline>
</glyph>
<glyph name="bracketright" format="1">
  <advance width="321"/>
  <unicode hex="005D"/>
  <outline>
    <contour>
      <point x="316" y="643" type="line"/>
      <point x="126" y="643" type="line"/>
      <point x="117" y="567" type="line"/>
      <point x="211" y="567" type="line"/>
      <point x="124" y="-44" type="line"/>
      <point x="30" y="-44" type="line"/>
      <point x="21" y="-121" type="line"/>
      <point x="209" y="-121" type="line"/>
    </contour>
  </outline>
</glyph>
<glyph name="asciicircum" format="1">
  <advance width="335"/>
  <unicode hex="005E"/>
  <outline>
    <contour>
      <point x="167" y="571" type="line"/>
      <point x="21" y="443" type="line"/>
      <point x="63" y="393" type="line"/>
      <point x="169" y="481" type="line"/>
      <point x="251" y="393" type="line"/>
      <point x="308" y="443" type="line"/>
      <point x="198" y="571" type="line"/>
    </contour>
  </outline>
</glyph>
<glyph name="underscore" format="1">
  <advance width="445"/>
  <unicode hex="005F"/>
  <outline>
    <contour>
      <point x="420" y="-65" type="line"/>
      <point x="32" y="-65" type="line"/>
      <point x="21" y="-150" type="line"/>
      <point x="406" y="-150" type="line"/>
    </contour>
  </outline>
</glyph>
<glyph name="grave" format="1">
  <advance width="213"/>
  <unicode hex="0060"/>
  <outline>
    <contour>
      <point x="21" y="610" type="line"/>
      <point x="135" y="483" type="line"/>
      <point x="191" y="530" type="line"/>
      <point x="93" y="671" type="line"/>
    </contour>
    <contour>
      <point x="100" y="478" type="move" name="_top"/>
    </contour>
  </outline>
</glyph>
<glyph name="a" format="1">
  <advance width="439"/>
  <unicode hex="0061"/>
  <outline>
    <contour>
      <point x="152" y="86"/>
      <point x="136" y="117"/>
      <point x="150" y="218" type="curve" smooth="yes"/>
      <point x="165" y="321"/>
      <point x="195" y="354"/>
      <point x="250" y="354" type="curve" smooth="yes"/>
      <point x="270" y="354"/>
      <point x="287" y="353"/>
      <point x="302" y="352" type="curve"/>
      <point x="271" y="126" type="line"/>
      <point x="255" y="107"/>
      <point x="225" y="86"/>
      <point x="198" y="86" type="curve" smooth="yes"/>
    </contour>
    <contour>
      <point x="427" y="423" type="line"/>
      <point x="368" y="434"/>
      <point x="298" y="442"/>
      <point x="239" y="442" type="curve" smooth="yes"/>
      <point x="146" y="442"/>
      <point x="53" y="380"/>
      <point x="29" y="209" type="curve" smooth="yes"/>
      <point x="7" y="52"/>
      <point x="60" y="-11"/>
      <point x="135" y="-11" type="curve" smooth="yes"/>
      <point x="192" y="-11"/>
      <point x="238" y="22"/>
      <point x="271" y="52" type="curve"/>
      <point x="271" y="0" type="line"/>
      <point x="367" y="0" type="line"/>
    </contour>
    <contour>
      <point x="276" y="478" type="move" name="top"/>
    </contour>
  </outline>
</glyph>
<glyph name="b" format="1">
  <advance width="433"/>
  <unicode hex="0062"/>
  <outline>
    <contour>
      <point x="284" y="347"/>
      <point x="304" y="327"/>
      <point x="304" y="270" type="curve" smooth="yes"/>
      <point x="304" y="197"/>
      <point x="289" y="89"/>
      <point x="201" y="89" type="curve" smooth="yes"/>
      <point x="182" y="89"/>
      <point x="167" y="102"/>
      <point x="151" y="115" type="curve"/>
      <point x="178" y="308" type="line"/>
      <point x="188" y="321"/>
      <point x="222" y="347"/>
      <point x="250" y="347" type="curve" smooth="yes"/>
    </contour>
    <contour>
      <point x="21" y="0" type="line"/>
      <point x="117" y="0" type="line"/>
      <point x="133" y="51" type="line"/>
      <point x="151" y="27"/>
      <point x="177" y="-5"/>
      <point x="233" y="-5" type="curve" smooth="yes"/>
      <point x="373" y="-5"/>
      <point x="424" y="182"/>
      <point x="424" y="289" type="curve" smooth="yes"/>
      <point x="424" y="396"/>
      <point x="374" y="444"/>
      <point x="312" y="444" type="curve" smooth="yes"/>
      <point x="258" y="444"/>
      <point x="211" y="407"/>
      <point x="189" y="385" type="curve"/>
      <point x="222" y="625" type="line"/>
      <point x="106" y="608" type="line"/>
    </contour>
  </outline>
</glyph>
<glyph name="c" format="1">
  <advance width="362"/>
  <unicode hex="0063"/>
  <outline>
    <contour>
      <point x="295" y="100" type="line"/>
      <point x="284" y="97"/>
      <point x="249" y="80"/>
      <point x="214" y="80" type="curve" smooth="yes"/>
      <point x="166" y="80"/>
      <point x="141" y="115"/>
      <point x="155" y="214" type="curve" smooth="yes"/>
      <point x="169" y="313"/>
      <point x="200" y="356"/>
      <point x="258" y="356" type="curve" smooth="yes"/>
      <point x="288" y="356"/>
      <point x="316" y="346"/>
      <point x="327" y="342" type="curve"/>
      <point x="352" y="427" type="line"/>
      <point x="339" y="431"/>
      <point x="299" y="444"/>
      <point x="254" y="444" type="curve" smooth="yes"/>
      <point x="132" y="444"/>
      <point x="58" y="369"/>
      <point x="37" y="211" type="curve" smooth="yes"/>
      <point x="16" y="59"/>
      <point x="66" y="-11"/>
      <point x="183" y="-11" type="curve" smooth="yes"/>
      <point x="247" y="-11"/>
      <point x="295" y="19"/>
      <point x="312" y="29" type="curve"/>
    </contour>
  </outline>
</glyph>
<glyph name="d" format="1">
  <advance width="463"/>
  <unicode hex="0064"/>
  <outline>
    <contour>
      <point x="152" y="86"/>
      <point x="136" y="117"/>
      <point x="150" y="218" type="curve" smooth="yes"/>
      <point x="165" y="321"/>
      <point x="195" y="354"/>
      <point x="250" y="354" type="curve" smooth="yes"/>
      <point x="270" y="354"/>
      <point x="283" y="350"/>
      <point x="302" y="339" type="curve"/>
      <point x="271" y="126" type="line"/>
      <point x="255" y="107"/>
      <point x="225" y="86"/>
      <point x="198" y="86" type="curve" smooth="yes"/>
    </contour>
    <contour>
      <point x="454" y="625" type="line"/>
      <point x="339" y="608" type="line"/>
      <point x="313" y="423" type="line"/>
      <point x="290" y="434"/>
      <point x="265" y="442"/>
      <point x="239" y="442" type="curve" smooth="yes"/>
      <point x="146" y="442"/>
      <point x="53" y="380"/>
      <point x="29" y="209" type="curve" smooth="yes"/>
      <point x="7" y="52"/>
      <point x="60" y="-11"/>
      <point x="135" y="-11" type="curve" smooth="yes"/>
      <point x="192" y="-11"/>
      <point x="238" y="22"/>
      <point x="271" y="52" type="curve"/>
      <point x="271" y="0" type="line"/>
      <point x="367" y="0" type="line"/>
    </contour>
  </outline>
</glyph>
<glyph name="e" format="1">
  <advance width="395"/>
  <unicode hex="0065"/>
  <outline>
    <contour>
      <point x="257" y="363"/>
      <point x="276" y="338"/>
      <point x="265" y="254" type="curve"/>
      <point x="150" y="254" type="line"/>
      <point x="161" y="336"/>
      <point x="196" y="363"/>
      <point x="225" y="363" type="curve" smooth="yes"/>
    </contour>
    <contour>
      <point x="319" y="107" type="line"/>
      <point x="298" y="95"/>
      <point x="255" y="76"/>
      <point x="211" y="76" type="curve" smooth="yes"/>
      <point x="162" y="76"/>
      <point x="129" y="108"/>
      <point x="140" y="183" type="curve"/>
      <point x="360" y="183" type="line"/>
      <point x="363" y="187"/>
      <point x="369" y="211"/>
      <point x="374" y="242" type="curve" smooth="yes"/>
      <point x="394" y="384"/>
      <point x="331" y="444"/>
      <point x="238" y="444" type="curve" smooth="yes"/>
      <point x="141" y="444"/>
      <point x="52" y="368"/>
      <point x="29" y="205" type="curve" smooth="yes"/>
      <point x="7" y="52"/>
      <point x="81" y="-11"/>
      <point x="177" y="-11" type="curve" smooth="yes"/>
      <point x="259" y="-11"/>
      <point x="319" y="22"/>
      <point x="331" y="30" type="curve"/>
    </contour>
    <contour>
      <point x="248" y="478" type="move" name="top"/>
    </contour>
  </outline>
</glyph>
<glyph name="f" format="1">
  <advance width="353"/>
  <unicode hex="0066"/>
  <outline>
    <contour>
      <point x="302" y="434" type="line"/>
      <point x="224" y="434" type="line"/>
      <point x="228" y="468" type="line" smooth="yes"/>
      <point x="236" y="523"/>
      <point x="247" y="544"/>
      <point x="276" y="544" type="curve" smooth="yes"/>
      <point x="299" y="544"/>
      <point x="317" y="540"/>
      <point x="324" y="536" type="curve"/>
      <point x="330" y="564"/>
      <point x="335" y="589"/>
      <point x="339" y="617" type="curve"/>
      <point x="328" y="622"/>
      <point x="305" y="634"/>
      <point x="249" y="634" type="curve" smooth="yes"/>
      <point x="172" y="634"/>
      <point x="130" y="592"/>
      <point x="115" y="485" type="curve" smooth="yes"/>
      <point x="108" y="434" type="line"/>
      <point x="63" y="434" type="line"/>
      <point x="52" y="351" type="line"/>
      <point x="98" y="351" type="line"/>
      <point x="21" y="-192" type="line"/>
      <point x="135" y="-192" type="line"/>
      <point x="213" y="351" type="line"/>
      <point x="288" y="351" type="line"/>
    </contour>
  </outline>
</glyph>
<glyph name="g" format="1">
  <advance width="437"/>
  <unicode hex="0067"/>
  <outline>
    <contour>
      <point x="157" y="87"/>
      <point x="136" y="116"/>
      <point x="149" y="213" type="curve" smooth="yes"/>
      <point x="161" y="301"/>
      <point x="177" y="346"/>
      <point x="231" y="346" type="curve" smooth="yes"/>
      <point x="255" y="346"/>
      <point x="270" y="338"/>
      <point x="295" y="305" type="curve"/>
      <point x="272" y="132" type="line"/>
      <point x="257" y="111"/>
      <point x="227" y="87"/>
      <point x="192" y="87" type="curve" smooth="yes"/>
    </contour>
    <contour>
      <point x="127" y="441"/>
      <point x="52" y="368"/>
      <point x="29" y="201" type="curve" smooth="yes"/>
      <point x="10" y="58"/>
      <point x="60" y="-11"/>
      <point x="135" y="-11" type="curve" smooth="yes"/>
      <point x="189" y="-11"/>
      <point x="235" y="22"/>
      <point x="260" y="48" type="curve"/>
      <point x="261" y="48" type="line"/>
      <point x="247" y="-38" type="line"/>
      <point x="242" y="-111"/>
      <point x="203" y="-118"/>
      <point x="168" y="-118" type="curve" smooth="yes"/>
      <point x="125" y="-118"/>
      <point x="86" y="-108"/>
      <point x="62" y="-99" type="curve"/>
      <point x="38" y="-178" type="line"/>
      <point x="63" y="-187"/>
      <point x="114" y="-203"/>
      <point x="177" y="-203" type="curve" smooth="yes"/>
      <point x="290" y="-203"/>
      <point x="346" y="-150"/>
      <point x="362" y="-36" type="curve" smooth="yes"/>
      <point x="427" y="434" type="line"/>
      <point x="331" y="434" type="line"/>
      <point x="316" y="375" type="line"/>
      <point x="290" y="415"/>
      <point x="262" y="441"/>
      <point x="213" y="441" type="curve" smooth="yes"/>
    </contour>
  </outline>
</glyph>
<glyph name="h" format="1">
  <advance width="426"/>
  <unicode hex="0068"/>
  <outline>
    <contour>
      <point x="21" y="0" type="line"/>
      <point x="135" y="0" type="line"/>
      <point x="177" y="297" type="line"/>
      <point x="187" y="310"/>
      <point x="224" y="345"/>
      <point x="257" y="345" type="curve" smooth="yes"/>
      <point x="292" y="345"/>
      <point x="298" y="328"/>
      <point x="290" y="265" type="curve" smooth="yes"/>
      <point x="254" y="0" type="line"/>
      <point x="368" y="0" type="line"/>
      <point x="408" y="293" type="line" smooth="yes"/>
      <point x="422" y="397"/>
      <point x="400" y="444"/>
      <point x="317" y="444" type="curve" smooth="yes"/>
      <point x="247" y="444"/>
      <point x="203" y="390"/>
      <point x="189" y="379" type="curve"/>
      <point x="188" y="379" type="line"/>
      <point x="222" y="625" type="line"/>
      <point x="106" y="608" type="line"/>
    </contour>
  </outline>
</glyph>
<glyph name="j" format="1">
  <advance width="319"/>
  <unicode hex="006A"/>
  <outline>
    <contour>
      <point x="111" y="-18" type="line" smooth="yes"/>
      <point x="101" y="-92"/>
      <point x="84" y="-104"/>
      <point x="38" y="-111" type="curve"/>
      <point x="21" y="-195" type="line"/>
      <point x="34" y="-199"/>
      <point x="48" y="-201"/>
      <point x="63" y="-201" type="curve" smooth="yes"/>
      <point x="155" y="-201"/>
      <point x="208" y="-154"/>
      <point x="224" y="-30" type="curve" smooth="yes"/>
      <point x="288" y="434" type="line"/>
      <point x="175" y="434" type="line"/>
    </contour>
    <component base="dotaccent" xOffset="129"/>
  </outline>
</glyph>
<glyph name="k" format="1">
  <advance width="435"/>
  <unicode hex="006B"/>
  <outline>
    <contour>
      <point x="21" y="0" type="line"/>
      <point x="135" y="0" type="line"/>
      <point x="163" y="207" type="line"/>
      <point x="251" y="0" type="line"/>
      <point x="386" y="0" type="line"/>
      <point x="266" y="240" type="line"/>
      <point x="434" y="434" type="line"/>
      <point x="305" y="434" type="line"/>
      <point x="169" y="247" type="line"/>
      <point x="222" y="625" type="line"/>
      <point x="107" y="608" type="line"/>
    </contour>
  </outline>
</glyph>
<glyph name="m" format="1">
  <advance width="595"/>
  <unicode hex="006D"/>
  <outline>
    <contour>
      <point x="21" y="0" type="line"/>
      <point x="133" y="0" type="line"/>
      <point x="176" y="297" type="line"/>
      <point x="181" y="313"/>
      <point x="211" y="345"/>
      <point x="239" y="345" type="curve" smooth="yes"/>
      <point x="270" y="345"/>
      <point x="273" y="323"/>
      <point x="268" y="284" type="curve" smooth="yes"/>
      <point x="227" y="0" type="line"/>
      <point x="338" y="0" type="line"/>
      <point x="378" y="297" type="line"/>
      <point x="384" y="312"/>
      <point x="413" y="345"/>
      <point x="443" y="345" type="curve" smooth="yes"/>
      <point x="472" y="345"/>
      <point x="474" y="324"/>
      <point x="468" y="284" type="curve" smooth="yes"/>
      <point x="431" y="0" type="line"/>
      <point x="545" y="0" type="line"/>
      <point x="584" y="294" type="line" smooth="yes"/>
      <point x="599" y="402"/>
      <point x="574" y="444"/>
      <point x="500" y="444" type="curve" smooth="yes"/>
      <point x="442" y="444"/>
      <point x="393" y="397"/>
      <point x="380" y="378" type="curve"/>
      <point x="374" y="428"/>
      <point x="349" y="444"/>
      <point x="298" y="444" type="curve" smooth="yes"/>
      <point x="232" y="444"/>
      <point x="195" y="390"/>
      <point x="178" y="376" type="curve"/>
      <point x="183" y="434" type="line"/>
      <point x="82" y="434" type="line"/>
    </contour>
  </outline>
</glyph>
<glyph name="n" format="1">
  <advance width="424"/>
  <unicode hex="006E"/>
  <outline>
    <contour>
      <point x="21" y="0" type="line"/>
      <point x="135" y="0" type="line"/>
      <point x="177" y="297" type="line"/>
      <point x="184" y="310"/>
      <point x="225" y="345"/>
      <point x="255" y="345" type="curve" smooth="yes"/>
      <point x="290" y="345"/>
      <point x="298" y="328"/>
      <point x="290" y="265" type="curve" smooth="yes"/>
      <point x="254" y="0" type="line"/>
      <point x="365" y="0" type="line"/>
      <point x="408" y="293" type="line" smooth="yes"/>
      <point x="422" y="397"/>
      <point x="400" y="444"/>
      <point x="317" y="444" type="curve" smooth="yes"/>
      <point x="244" y="444"/>
      <point x="198" y="389"/>
      <point x="180" y="379" type="curve"/>
      <point x="178" y="379" type="line"/>
      <point x="183" y="434" type="line"/>
      <point x="82" y="434" type="line"/>
    </contour>
  </outline>
</glyph>
<glyph name="o" format="1">
  <advance width="417"/>
  <unicode hex="006F"/>
  <outline>
    <contour>
      <point x="270" y="115"/>
      <point x="244" y="73"/>
      <point x="196" y="73" type="curve" smooth="yes"/>
      <point x="147" y="73"/>
      <point x="133" y="114"/>
      <point x="148" y="218" type="curve" smooth="yes"/>
      <point x="162" y="320"/>
      <point x="188" y="361"/>
      <point x="236" y="361" type="curve" smooth="yes"/>
      <point x="283" y="361"/>
      <point x="298" y="320"/>
      <point x="284" y="218" type="curve" smooth="yes"/>
    </contour>
    <contour>
      <point x="426" y="379"/>
      <point x="360" y="444"/>
      <point x="247" y="444" type="curve" smooth="yes"/>
      <point x="137" y="444"/>
      <point x="53" y="379"/>
      <point x="30" y="218" type="curve" smooth="yes"/>
      <point x="7" y="54"/>
      <point x="73" y="-11"/>
      <point x="184" y="-11" type="curve" smooth="yes"/>
      <point x="298" y="-11"/>
      <point x="378" y="52"/>
      <point x="402" y="218" type="curve" smooth="yes"/>
    </contour>
    <contour>
      <point x="247" y="478" type="move" name="top"/>
    </contour>
  </outline>
</glyph>
<glyph name="p" format="1">
  <advance width="464"/>
  <unicode hex="0070"/>
  <outline>
    <contour>
      <point x="323" y="347"/>
      <point x="341" y="313"/>
      <point x="328" y="213" type="curve" smooth="yes"/>
      <point x="313" y="110"/>
      <point x="280" y="73"/>
      <point x="222" y="73" type="curve" smooth="yes"/>
      <point x="203" y="73"/>
      <point x="188" y="76"/>
      <point x="174" y="82" type="curve"/>
      <point x="205" y="299" type="line"/>
      <point x="217" y="316"/>
      <point x="249" y="347"/>
      <point x="279" y="347" type="curve" smooth="yes"/>
    </contour>
    <contour>
      <point x="21" y="-192" type="line"/>
      <point x="133" y="-192" type="line"/>
      <point x="163" y="6" type="line"/>
      <point x="188" y="-5"/>
      <point x="216" y="-11"/>
      <point x="247" y="-11" type="curve" smooth="yes"/>
      <point x="341" y="-11"/>
      <point x="424" y="63"/>
      <point x="446" y="224" type="curve" smooth="yes"/>
      <point x="467" y="374"/>
      <point x="416" y="444"/>
      <point x="339" y="444" type="curve" smooth="yes"/>
      <point x="282" y="444"/>
      <point x="231" y="397"/>
      <point x="213" y="378" type="curve"/>
      <point x="213" y="378" type="line"/>
      <point x="216" y="434" type="line"/>
      <point x="109" y="434" type="line"/>
    </contour>
  </outline>
</glyph>
<glyph name="q" format="1">
  <advance width="439"/>
  <unicode hex="0071"/>
  <outline>
    <contour>
      <point x="152" y="87"/>
      <point x="132" y="115"/>
      <point x="150" y="218" type="curve" smooth="yes"/>
      <point x="165" y="313"/>
      <point x="188" y="351"/>
      <point x="228" y="351" type="curve" smooth="yes"/>
      <point x="257" y="351"/>
      <point x="276" y="328"/>
      <point x="295" y="305" type="curve"/>
      <point x="270" y="132" type="line"/>
      <point x="256" y="113"/>
      <point x="224" y="87"/>
      <point x="196" y="87" type="curve" smooth="yes"/>
    </contour>
    <contour>
      <point x="427" y="434" type="line"/>
      <point x="323" y="434" type="line"/>
      <point x="308" y="375" type="line"/>
      <point x="288" y="408"/>
      <point x="260" y="441"/>
      <point x="217" y="441" type="curve" smooth="yes"/>
      <point x="130" y="441"/>
      <point x="52" y="361"/>
      <point x="29" y="210" type="curve" smooth="yes"/>
      <point x="6" y="52"/>
      <point x="60" y="-11"/>
      <point x="136" y="-11" type="curve" smooth="yes"/>
      <point x="188" y="-11"/>
      <point x="236" y="22"/>
      <point x="259" y="48" type="curve"/>
      <point x="259" y="48" type="line"/>
      <point x="225" y="-192" type="line"/>
      <point x="339" y="-192" type="line"/>
    </contour>
  </outline>
</glyph>
<glyph name="r" format="1">
  <advance width="321"/>
  <unicode hex="0072"/>
  <outline>
    <contour>
      <point x="177" y="305" type="line"/>
      <point x="210" y="334"/>
      <point x="228" y="346"/>
      <point x="249" y="346" type="curve" smooth="yes"/>
      <point x="268" y="346"/>
      <point x="283" y="339"/>
      <point x="293" y="338" type="curve"/>
      <point x="316" y="437" type="line"/>
      <point x="308" y="441"/>
      <point x="302" y="445"/>
      <point x="283" y="445" type="curve" smooth="yes"/>
      <point x="246" y="445"/>
      <point x="205" y="416"/>
      <point x="180" y="376" type="curve"/>
      <point x="179" y="376" type="line"/>
      <point x="183" y="434" type="line"/>
      <point x="82" y="434" type="line"/>
      <point x="21" y="0" type="line"/>
      <point x="135" y="0" type="line"/>
    </contour>
  </outline>
</glyph>
<glyph name="s" format="1">
  <advance width="354"/>
  <unicode hex="0073"/>
  <outline>
    <contour>
      <point x="21" y="23" type="line"/>
      <point x="34" y="14"/>
      <point x="82" y="-11"/>
      <point x="152" y="-11" type="curve" smooth="yes"/>
      <point x="249" y="-11"/>
      <point x="321" y="42"/>
      <point x="321" y="138" type="curve" smooth="yes"/>
      <point x="321" y="193"/>
      <point x="288" y="219"/>
      <point x="255" y="245" type="curve" smooth="yes"/>
      <point x="221" y="270"/>
      <point x="185" y="282"/>
      <point x="185" y="319" type="curve" smooth="yes"/>
      <point x="185" y="353"/>
      <point x="222" y="360"/>
      <point x="243" y="360" type="curve" smooth="yes"/>
      <point x="279" y="360"/>
      <point x="314" y="345"/>
      <point x="328" y="343" type="curve"/>
      <point x="345" y="427" type="line"/>
      <point x="330" y="431"/>
      <point x="295" y="444"/>
      <point x="238" y="444" type="curve" smooth="yes"/>
      <point x="150" y="444"/>
      <point x="73" y="392"/>
      <point x="73" y="305" type="curve" smooth="yes"/>
      <point x="73" y="251"/>
      <point x="100" y="228"/>
      <point x="131" y="202" type="curve" smooth="yes"/>
      <point x="165" y="173"/>
      <point x="201" y="156"/>
      <point x="201" y="120" type="curve" smooth="yes"/>
      <point x="201" y="81"/>
      <point x="175" y="73"/>
      <point x="144" y="73" type="curve" smooth="yes"/>
      <point x="106" y="73"/>
      <point x="63" y="96"/>
      <point x="52" y="99" type="curve"/>
    </contour>
  </outline>
</glyph>
<glyph name="t" format="1">
  <advance width="294"/>
  <unicode hex="0074"/>
  <outline>
    <contour>
      <point x="191" y="434" type="line"/>
      <point x="210" y="557" type="line"/>
      <point x="93" y="538" type="line"/>
      <point x="78" y="434" type="line"/>
      <point x="32" y="434" type="line"/>
      <point x="21" y="351" type="line"/>
      <point x="67" y="351" type="line"/>
      <point x="34" y="126" type="line" smooth="yes"/>
      <point x="19" y="27"/>
      <point x="47" y="-11"/>
      <point x="125" y="-11" type="curve" smooth="yes"/>
      <point x="180" y="-11"/>
      <point x="216" y="15"/>
      <point x="231" y="18" type="curve"/>
      <point x="231" y="99" type="line"/>
      <point x="224" y="98"/>
      <point x="202" y="87"/>
      <point x="177" y="87" type="curve" smooth="yes"/>
      <point x="148" y="87"/>
      <point x="145" y="104"/>
      <point x="151" y="143" type="curve" smooth="yes"/>
      <point x="180" y="351" type="line"/>
      <point x="275" y="351" type="line"/>
      <point x="284" y="434" type="line"/>
    </contour>
  </outline>
</glyph>
<glyph name="u" format="1">
  <advance width="424"/>
  <unicode hex="0075"/>
  <outline>
    <contour>
      <point x="420" y="434" type="line"/>
      <point x="305" y="434" type="line"/>
      <point x="262" y="137" type="line"/>
      <point x="249" y="124"/>
      <point x="214" y="89"/>
      <point x="184" y="89" type="curve" smooth="yes"/>
      <point x="141" y="89"/>
      <point x="142" y="115"/>
      <point x="154" y="198" type="curve" smooth="yes"/>
      <point x="187" y="434" type="line"/>
      <point x="73" y="434" type="line"/>
      <point x="30" y="141" type="line" smooth="yes"/>
      <point x="16" y="38"/>
      <point x="40" y="-11"/>
      <point x="121" y="-11" type="curve" smooth="yes"/>
      <point x="177" y="-11"/>
      <point x="222" y="25"/>
      <point x="260" y="59" type="curve"/>
      <point x="259" y="0" type="line"/>
      <point x="358" y="0" type="line"/>
    </contour>
  </outline>
</glyph>
<glyph name="v" format="1">
  <advance width="404"/>
  <unicode hex="0076"/>
  <outline>
    <contour>
      <point x="211" y="0" type="line"/>
      <point x="400" y="434" type="line"/>
      <point x="282" y="434" type="line"/>
      <point x="216" y="254" type="line"/>
      <point x="159" y="73" type="line"/>
      <point x="154" y="254" type="line"/>
      <point x="136" y="434" type="line"/>
      <point x="21" y="434" type="line"/>
      <point x="87" y="0" type="line"/>
    </contour>
  </outline>
</glyph>
<glyph name="w" format="1">
  <advance width="599"/>
  <unicode hex="0077"/>
  <outline>
    <contour>
      <point x="487" y="434" type="line"/>
      <point x="385" y="141" type="line"/>
      <point x="358" y="434" type="line"/>
      <point x="264" y="434" type="line"/>
      <point x="155" y="141" type="line"/>
      <point x="133" y="434" type="line"/>
      <point x="21" y="434" type="line"/>
      <point x="70" y="0" type="line"/>
      <point x="174" y="0" type="line"/>
      <point x="283" y="282" type="line"/>
      <point x="312" y="0" type="line"/>
      <point x="420" y="0" type="line"/>
      <point x="595" y="434" type="line"/>
    </contour>
  </outline>
</glyph>
<glyph name="x" format="1">
  <advance width="456"/>
  <unicode hex="0078"/>
  <outline>
    <contour>
      <point x="331" y="434" type="line"/>
      <point x="253" y="283" type="line"/>
      <point x="243" y="316"/>
      <point x="222" y="413"/>
      <point x="213" y="434" type="curve"/>
      <point x="89" y="434" type="line"/>
      <point x="176" y="225" type="line"/>
      <point x="21" y="0" type="line"/>
      <point x="141" y="0" type="line"/>
      <point x="228" y="158" type="line"/>
      <point x="242" y="122"/>
      <point x="266" y="25"/>
      <point x="276" y="0" type="curve"/>
      <point x="397" y="0" type="line"/>
      <point x="305" y="221" type="line"/>
      <point x="354" y="293"/>
      <point x="402" y="362"/>
      <point x="452" y="434" type="curve"/>
    </contour>
  </outline>
</glyph>
<glyph name="y" format="1">
  <advance width="431"/>
  <unicode hex="0079"/>
  <outline>
    <contour>
      <point x="238" y="-38" type="line" smooth="yes"/>
      <point x="226" y="-110"/>
      <point x="199" y="-118"/>
      <point x="158" y="-118" type="curve" smooth="yes"/>
      <point x="118" y="-118"/>
      <point x="76" y="-108"/>
      <point x="52" y="-99" type="curve"/>
      <point x="29" y="-178" type="line"/>
      <point x="54" y="-187"/>
      <point x="107" y="-203"/>
      <point x="167" y="-203" type="curve" smooth="yes"/>
      <point x="281" y="-203"/>
      <point x="338" y="-150"/>
      <point x="353" y="-36" type="curve" smooth="yes"/>
      <point x="420" y="434" type="line"/>
      <point x="305" y="434" type="line"/>
      <point x="264" y="136" type="line"/>
      <point x="250" y="126"/>
      <point x="216" y="89"/>
      <point x="183" y="89" type="curve" smooth="yes"/>
      <point x="146" y="89"/>
      <point x="141" y="107"/>
      <point x="150" y="170" type="curve" smooth="yes"/>
      <point x="188" y="434" type="line"/>
      <point x="73" y="434" type="line"/>
      <point x="30" y="143" type="line" smooth="yes"/>
      <point x="16" y="40"/>
      <point x="40" y="-10"/>
      <point x="121" y="-10" type="curve" smooth="yes"/>
      <point x="190" y="-10"/>
      <point x="240" y="45"/>
      <point x="250" y="55" type="curve"/>
      <point x="253" y="55" type="line"/>
    </contour>
  </outline>
</glyph>
<glyph name="z" format="1">
  <advance width="373"/>
  <unicode hex="007A"/>
  <outline>
    <contour>
      <point x="364" y="434" type="line"/>
      <point x="92" y="434" type="line"/>
      <point x="80" y="347" type="line"/>
      <point x="224" y="347" type="line"/>
      <point x="30" y="73" type="line"/>
      <point x="21" y="0" type="line"/>
      <point x="306" y="0" type="line"/>
      <point x="316" y="87" type="line"/>
      <point x="158" y="87" type="line"/>
      <point x="353" y="363" type="line"/>
    </contour>
  </outline>
</glyph>
<glyph name="braceleft" format="1">
  <advance width="325"/>
  <unicode hex="007B"/>
  <outline>
    <contour>
      <point x="103" y="360" type="line" smooth="yes"/>
      <point x="97" y="310"/>
      <point x="63" y="295"/>
      <point x="33" y="295" type="curve"/>
      <point x="21" y="214" type="line"/>
      <point x="65" y="211"/>
      <point x="81" y="192"/>
      <point x="71" y="122" type="curve" smooth="yes"/>
      <point x="55" y="18" type="line" smooth="yes"/>
      <point x="33" y="-126"/>
      <point x="66" y="-157"/>
      <point x="198" y="-157" type="curve"/>
      <point x="207" y="-85" type="line"/>
      <point x="133" y="-85"/>
      <point x="138" y="-63"/>
      <point x="150" y="18" type="curve" smooth="yes"/>
      <point x="169" y="155" type="line" smooth="yes"/>
      <point x="176" y="202"/>
      <point x="159" y="236"/>
      <point x="121" y="255" type="curve"/>
      <point x="165" y="272"/>
      <point x="191" y="305"/>
      <point x="198" y="354" type="curve" smooth="yes"/>
      <point x="216" y="487" type="line" smooth="yes"/>
      <point x="226" y="560"/>
      <point x="227" y="590"/>
      <point x="303" y="590" type="curve"/>
      <point x="314" y="662" type="line"/>
      <point x="189" y="662"/>
      <point x="144" y="641"/>
      <point x="121" y="489" type="curve" smooth="yes"/>
    </contour>
  </outline>
</glyph>
<glyph name="bar" format="1">
  <advance width="253"/>
  <unicode hex="007C"/>
  <outline>
    <contour>
      <point x="232" y="652" type="line"/>
      <point x="140" y="652" type="line"/>
      <point x="21" y="-192" type="line"/>
      <point x="113" y="-192" type="line"/>
    </contour>
  </outline>
</glyph>
<glyph name="braceright" format="1">
  <advance width="330"/>
  <unicode hex="007D"/>
  <outline>
    <contour>
      <point x="314" y="294" type="line"/>
      <point x="270" y="295"/>
      <point x="256" y="312"/>
      <point x="265" y="380" type="curve" smooth="yes"/>
      <point x="280" y="492" type="line" smooth="yes"/>
      <point x="299" y="640"/>
      <point x="262" y="662"/>
      <point x="136" y="662" type="curve"/>
      <point x="126" y="590" type="line"/>
      <point x="202" y="590"/>
      <point x="195" y="569"/>
      <point x="184" y="487" type="curve" smooth="yes"/>
      <point x="166" y="354" type="line" smooth="yes"/>
      <point x="159" y="305"/>
      <point x="174" y="271"/>
      <point x="213" y="253" type="curve"/>
      <point x="169" y="235"/>
      <point x="144" y="202"/>
      <point x="137" y="155" type="curve" smooth="yes"/>
      <point x="119" y="14" type="line" smooth="yes"/>
      <point x="109" y="-59"/>
      <point x="108" y="-85"/>
      <point x="30" y="-85" type="curve"/>
      <point x="21" y="-157" type="line"/>
      <point x="141" y="-157"/>
      <point x="190" y="-140"/>
      <point x="213" y="14" type="curve" smooth="yes"/>
      <point x="229" y="128" type="line" smooth="yes"/>
      <point x="239" y="195"/>
      <point x="259" y="213"/>
      <point x="302" y="213" type="curve"/>
    </contour>
  </outline>
</glyph>
<glyph name="asciitilde" format="1">
  <advance width="413"/>
  <unicode hex="007E"/>
  <outline>
    <contour>
      <point x="262" y="312"/>
      <point x="252" y="327"/>
      <point x="234" y="342" type="curve" smooth="yes"/>
      <point x="213" y="360"/>
      <point x="197" y="378"/>
      <point x="155" y="378" type="curve" smooth="yes"/>
      <point x="99" y="378"/>
      <point x="45" y="323"/>
      <point x="21" y="295" type="curve"/>
      <point x="34" y="277"/>
      <point x="44" y="260"/>
      <point x="55" y="239" type="curve"/>
      <point x="63" y="251"/>
      <point x="99" y="280"/>
      <point x="137" y="280" type="curve" smooth="yes"/>
      <point x="167" y="280"/>
      <point x="178" y="265"/>
      <point x="197" y="249" type="curve" smooth="yes"/>
      <point x="217" y="233"/>
      <point x="233" y="216"/>
      <point x="271" y="216" type="curve" smooth="yes"/>
      <point x="331" y="216"/>
      <point x="375" y="268"/>
      <point x="400" y="295" type="curve"/>
      <point x="365" y="347" type="line"/>
      <point x="356" y="338"/>
      <point x="325" y="312"/>
      <point x="290" y="312" type="curve" smooth="yes"/>
    </contour>
  </outline>
</glyph>
<glyph name="cent" format="1">
  <advance width="367"/>
  <unicode hex="00A2"/>
  <outline>
    <contour>
      <point x="295" y="168" type="line"/>
      <point x="281" y="162"/>
      <point x="247" y="146"/>
      <point x="213" y="146" type="curve" smooth="yes"/>
      <point x="159" y="146"/>
      <point x="138" y="183"/>
      <point x="152" y="275" type="curve" smooth="yes"/>
      <point x="166" y="368"/>
      <point x="198" y="408"/>
      <point x="253" y="408" type="curve" smooth="yes"/>
      <point x="283" y="408"/>
      <point x="314" y="400"/>
      <point x="324" y="395" type="curve"/>
      <point x="335" y="423"/>
      <point x="341" y="448"/>
      <point x="351" y="476" type="curve"/>
      <point x="338" y="482"/>
      <point x="309" y="490"/>
      <point x="273" y="492" type="curve"/>
      <point x="286" y="577" type="line"/>
      <point x="201" y="577" type="line"/>
      <point x="191" y="489" type="line"/>
      <point x="108" y="467"/>
      <point x="51" y="397"/>
      <point x="33" y="270" type="curve" smooth="yes"/>
      <point x="17" y="146"/>
      <point x="52" y="81"/>
      <point x="132" y="63" type="curve"/>
      <point x="118" y="-22" type="line"/>
      <point x="202" y="-22" type="line"/>
      <point x="213" y="60" type="line"/>
      <point x="262" y="70"/>
      <point x="297" y="92"/>
      <point x="312" y="98" type="curve"/>
    </contour>
  </outline>
</glyph>
<glyph name="sterling" format="1">
  <advance width="435"/>
  <unicode hex="00A3"/>
  <outline>
    <contour>
      <point x="337" y="567"/>
      <point x="397" y="544"/>
      <point x="412" y="531" type="curve"/>
      <point x="385" y="452" type="line"/>
      <point x="373" y="460"/>
      <point x="328" y="475"/>
      <point x="287" y="475" type="curve" smooth="yes"/>
      <point x="239" y="475"/>
      <point x="208" y="448"/>
      <point x="208" y="403" type="curve" smooth="yes"/>
      <point x="208" y="374"/>
      <point x="220" y="355"/>
      <point x="231" y="332" type="curve" smooth="yes"/>
      <point x="242" y="308"/>
      <point x="254" y="288"/>
      <point x="254" y="255" type="curve" smooth="yes"/>
      <point x="254" y="190"/>
      <point x="208" y="132"/>
      <point x="170" y="91" type="curve"/>
      <point x="170" y="91"/>
      <point x="372" y="91"/>
      <point x="372" y="91" type="curve"/>
      <point x="361" y="0" type="line"/>
      <point x="19" y="0" type="line"/>
      <point x="29" y="78" type="line"/>
      <point x="71" y="90" type="line"/>
      <point x="108" y="136"/>
      <point x="144" y="183"/>
      <point x="144" y="239" type="curve" smooth="yes"/>
      <point x="144" y="270"/>
      <point x="133" y="290"/>
      <point x="119" y="315" type="curve" smooth="yes"/>
      <point x="102" y="343"/>
      <point x="88" y="369"/>
      <point x="88" y="409" type="curve" smooth="yes"/>
      <point x="88" y="510"/>
      <point x="178" y="567"/>
      <point x="269" y="567" type="curve" smooth="yes"/>
    </contour>
    <contour>
      <point x="60" y="298" type="line"/>
      <point x="334" y="298" type="line"/>
      <point x="327" y="231" type="line"/>
      <point x="52" y="231" type="line"/>
    </contour>
  </outline>
</glyph>
<glyph name="currency" format="1">
  <advance width="471"/>
  <unicode hex="00A4"/>
  <outline>
    <contour>
      <point x="359" y="324" type="line"/>
      <point x="445" y="401" type="line"/>
      <point x="393" y="461" type="line"/>
      <point x="306" y="384" type="line"/>
    </contour>
    <contour>
      <point x="110" y="209" type="line"/>
      <point x="25" y="132" type="line"/>
      <point x="77" y="73" type="line"/>
      <point x="163" y="149" type="line"/>
    </contour>
    <contour>
      <point x="194" y="382" type="line"/>
      <point x="124" y="461" type="line"/>
      <point x="57" y="401" type="line"/>
      <point x="127" y="322" type="line"/>
    </contour>
    <contour>
      <point x="280" y="148" type="line"/>
      <point x="346" y="73" type="line"/>
      <point x="413" y="132" type="line"/>
      <point x="347" y="208" type="line"/>
    </contour>
    <contour>
      <point x="62" y="317"/>
      <point x="50" y="216"/>
      <point x="105" y="152" type="curve" smooth="yes"/>
      <point x="161" y="88"/>
      <point x="263" y="88"/>
      <point x="334" y="152" type="curve" smooth="yes"/>
      <point x="406" y="216"/>
      <point x="418" y="317"/>
      <point x="362" y="382" type="curve" smooth="yes"/>
      <point x="306" y="445"/>
      <point x="204" y="445"/>
      <point x="133" y="382" type="curve" smooth="yes"/>
    </contour>
    <contour>
      <point x="218" y="365"/>
      <point x="274" y="365"/>
      <point x="305" y="329" type="curve" smooth="yes"/>
      <point x="336" y="295"/>
      <point x="329" y="238"/>
      <point x="289" y="204" type="curve" smooth="yes"/>
      <point x="249" y="168"/>
      <point x="193" y="168"/>
      <point x="163" y="204" type="curve" smooth="yes"/>
      <point x="132" y="238"/>
      <point x="139" y="295"/>
      <point x="178" y="329" type="curve" smooth="yes"/>
    </contour>
  </outline>
</glyph>
<glyph name="yen" format="1">
  <advance width="478"/>
  <unicode hex="00A5"/>
  <outline>
    <contour>
      <point x="255" y="211" type="line"/>
      <point x="280" y="234" type="line"/>
      <point x="456" y="557" type="line"/>
      <point x="329" y="557" type="line"/>
      <point x="209" y="288" type="line"/>
      <point x="160" y="557" type="line"/>
      <point x="35" y="557" type="line"/>
      <point x="121" y="236" type="line"/>
      <point x="137" y="211" type="line"/>
      <point x="109" y="0" type="line"/>
      <point x="227" y="0" type="line"/>
    </contour>
    <contour>
      <point x="34" y="201" type="line"/>
      <point x="365" y="201" type="line"/>
      <point x="373" y="269" type="line"/>
      <point x="41" y="269" type="line"/>
    </contour>
    <contour>
      <point x="18" y="92" type="line"/>
      <point x="353" y="92" type="line"/>
      <point x="361" y="159" type="line"/>
      <point x="28" y="159" type="line"/>
    </contour>
  </outline>
</glyph>
<glyph name="brokenbar" format="1">
  <advance width="234"/>
  <unicode hex="00A6"/>
  <outline>
    <contour>
      <point x="213" y="618" type="line"/>
      <point x="121" y="618" type="line"/>
      <point x="75" y="300" type="line"/>
      <point x="167" y="300" type="line"/>
    </contour>
    <contour>
      <point x="158" y="233" type="line"/>
      <point x="66" y="233" type="line"/>
      <point x="21" y="-86" type="line"/>
      <point x="113" y="-86" type="line"/>
    </contour>
  </outline>
</glyph>
<glyph name="section" format="1">
  <advance width="451"/>
  <unicode hex="00A7"/>
  <outline>
    <contour>
      <point x="21" y="-46" type="line"/>
      <point x="33" y="-55"/>
      <point x="79" y="-79"/>
      <point x="147" y="-79" type="curve" smooth="yes"/>
      <point x="240" y="-79"/>
      <point x="305" y="-22"/>
      <point x="305" y="63" type="curve" smooth="yes"/>
      <point x="305" y="84"/>
      <point x="299" y="103"/>
      <point x="289" y="118" type="curve"/>
      <point x="365" y="118"/>
      <point x="414" y="162"/>
      <point x="414" y="236" type="curve" smooth="yes"/>
      <point x="414" y="288"/>
      <point x="382" y="313"/>
      <point x="350" y="338" type="curve" smooth="yes"/>
      <point x="317" y="362"/>
      <point x="282" y="374"/>
      <point x="282" y="409" type="curve" smooth="yes"/>
      <point x="282" y="443"/>
      <point x="318" y="449"/>
      <point x="339" y="449" type="curve" smooth="yes"/>
      <point x="373" y="449"/>
      <point x="407" y="434"/>
      <point x="420" y="432" type="curve"/>
      <point x="437" y="513" type="line"/>
      <point x="422" y="518"/>
      <point x="389" y="530"/>
      <point x="334" y="530" type="curve" smooth="yes"/>
      <point x="254" y="530"/>
      <point x="181" y="479"/>
      <point x="181" y="410" type="curve" smooth="yes"/>
      <point x="181" y="388"/>
      <point x="189" y="364"/>
      <point x="205" y="340" type="curve"/>
      <point x="126" y="340"/>
      <point x="71" y="292"/>
      <point x="71" y="225" type="curve" smooth="yes"/>
      <point x="71" y="173"/>
      <point x="98" y="151"/>
      <point x="126" y="126" type="curve" smooth="yes"/>
      <point x="159" y="98"/>
      <point x="194" y="82"/>
      <point x="194" y="47" type="curve" smooth="yes"/>
      <point x="194" y="9"/>
      <point x="169" y="1"/>
      <point x="139" y="1" type="curve" smooth="yes"/>
      <point x="102" y="1"/>
      <point x="61" y="24"/>
      <point x="51" y="27" type="curve"/>
    </contour>
    <contour>
      <point x="178" y="267"/>
      <point x="202" y="280"/>
      <point x="228" y="280" type="curve" smooth="yes"/>
      <point x="261" y="280"/>
      <point x="298" y="258"/>
      <point x="298" y="218" type="curve" smooth="yes"/>
      <point x="298" y="190"/>
      <point x="282" y="172"/>
      <point x="249" y="172" type="curve" smooth="yes"/>
      <point x="228" y="172"/>
      <point x="178" y="204"/>
      <point x="178" y="238" type="curve" smooth="yes"/>
    </contour>
  </outline>
</glyph>
<glyph name="dieresis" format="1">
  <advance width="316"/>
  <unicode hex="00A8"/>
  <outline>
    <contour>
      <point x="144" y="601"/>
      <point x="123" y="626"/>
      <point x="93" y="626" type="curve" smooth="yes"/>
      <point x="61" y="626"/>
      <point x="35" y="601"/>
      <point x="29" y="567" type="curve" smooth="yes"/>
      <point x="23" y="534"/>
      <point x="44" y="511"/>
      <point x="76" y="511" type="curve" smooth="yes"/>
      <point x="106" y="511"/>
      <point x="133" y="534"/>
      <point x="138" y="567" type="curve" smooth="yes"/>
    </contour>
    <contour>
      <point x="293" y="601"/>
      <point x="273" y="626"/>
      <point x="243" y="626" type="curve" smooth="yes"/>
      <point x="211" y="626"/>
      <point x="185" y="601"/>
      <point x="178" y="567" type="curve" smooth="yes"/>
      <point x="173" y="534"/>
      <point x="194" y="511"/>
      <point x="226" y="511" type="curve" smooth="yes"/>
      <point x="256" y="511"/>
      <point x="283" y="534"/>
      <point x="288" y="567" type="curve" smooth="yes"/>
    </contour>
    <contour>
      <point x="140" y="478" type="move" name="_top"/>
    </contour>
  </outline>
</glyph>
<glyph name="copyright" format="1">
  <advance width="558"/>
  <unicode hex="00A9"/>
  <outline>
    <contour>
      <point x="253" y="349"/>
      <point x="275" y="372"/>
      <point x="316" y="372" type="curve" smooth="yes"/>
      <point x="335" y="372"/>
      <point x="356" y="364"/>
      <point x="364" y="363" type="curve"/>
      <point x="383" y="417" type="line"/>
      <point x="373" y="422"/>
      <point x="353" y="431"/>
      <point x="313" y="431" type="curve" smooth="yes"/>
      <point x="235" y="431"/>
      <point x="185" y="383"/>
      <point x="170" y="276" type="curve" smooth="yes"/>
      <point x="155" y="169"/>
      <point x="190" y="119"/>
      <point x="269" y="119" type="curve" smooth="yes"/>
      <point x="309" y="119"/>
      <point x="328" y="129"/>
      <point x="342" y="133" type="curve"/>
      <point x="339" y="189" type="line"/>
      <point x="328" y="184"/>
      <point x="306" y="180"/>
      <point x="288" y="180" type="curve" smooth="yes"/>
      <point x="249" y="180"/>
      <point x="233" y="203"/>
      <point x="243" y="276" type="curve" smooth="yes"/>
    </contour>
    <contour>
      <point x="444" y="141"/>
      <point x="353" y="52"/>
      <point x="247" y="52" type="curve" smooth="yes"/>
      <point x="147" y="52"/>
      <point x="77" y="141"/>
      <point x="97" y="277" type="curve" smooth="yes"/>
      <point x="117" y="415"/>
      <point x="207" y="503"/>
      <point x="312" y="503" type="curve" smooth="yes"/>
      <point x="416" y="503"/>
      <point x="483" y="415"/>
      <point x="464" y="277" type="curve" smooth="yes"/>
    </contour>
    <contour>
      <point x="556" y="455"/>
      <point x="464" y="568"/>
      <point x="321" y="568" type="curve" smooth="yes"/>
      <point x="179" y="568"/>
      <point x="55" y="455"/>
      <point x="30" y="277" type="curve" smooth="yes"/>
      <point x="6" y="104"/>
      <point x="99" y="-12"/>
      <point x="239" y="-12" type="curve" smooth="yes"/>
      <point x="384" y="-12"/>
      <point x="506" y="104"/>
      <point x="531" y="277" type="curve" smooth="yes"/>
    </contour>
  </outline>
</glyph>
<glyph name="ordfeminine" format="1">
  <advance width="334"/>
  <unicode hex="00AA"/>
  <outline>
    <contour>
      <point x="138" y="240"/>
      <point x="131" y="260"/>
      <point x="137" y="309" type="curve" smooth="yes"/>
      <point x="144" y="370"/>
      <point x="157" y="387"/>
      <point x="185" y="387" type="curve" smooth="yes"/>
      <point x="196" y="387"/>
      <point x="208" y="385"/>
      <point x="216" y="384" type="curve"/>
      <point x="199" y="264" type="line"/>
      <point x="190" y="253"/>
      <point x="175" y="240"/>
      <point x="161" y="240" type="curve" smooth="yes"/>
    </contour>
    <contour>
      <point x="304" y="431" type="line"/>
      <point x="267" y="438"/>
      <point x="213" y="442"/>
      <point x="178" y="442" type="curve" smooth="yes"/>
      <point x="119" y="442"/>
      <point x="63" y="405"/>
      <point x="47" y="304" type="curve" smooth="yes"/>
      <point x="33" y="210"/>
      <point x="74" y="173"/>
      <point x="119" y="173" type="curve" smooth="yes"/>
      <point x="152" y="173"/>
      <point x="175" y="190"/>
      <point x="195" y="210" type="curve"/>
      <point x="195" y="179" type="line"/>
      <point x="269" y="179" type="line"/>
    </contour>
  </outline>
</glyph>
<glyph name="logicalnot" format="1">
  <advance width="417"/>
  <unicode hex="00AC"/>
  <outline>
    <contour>
      <point x="385" y="298" type="line"/>
      <point x="40" y="298" type="line"/>
      <point x="28" y="210" type="line"/>
      <point x="275" y="210" type="line"/>
      <point x="260" y="121" type="line"/>
      <point x="356" y="121" type="line"/>
    </contour>
  </outline>
</glyph>
<glyph name="registered" format="1">
  <advance width="477"/>
  <unicode hex="00AE"/>
  <outline>
    <contour>
      <point x="247" y="489" type="line" smooth="yes"/>
      <point x="273" y="489"/>
      <point x="283" y="481"/>
      <point x="279" y="450" type="curve" smooth="yes"/>
      <point x="273" y="420"/>
      <point x="244" y="408"/>
      <point x="214" y="408" type="curve"/>
      <point x="225" y="489" type="line"/>
    </contour>
    <contour>
      <point x="150" y="279" type="line"/>
      <point x="196" y="279" type="line"/>
      <point x="209" y="367" type="line"/>
      <point x="213" y="367"/>
      <point x="219" y="367"/>
      <point x="224" y="369" type="curve"/>
      <point x="255" y="279" type="line"/>
      <point x="313" y="279" type="line"/>
      <point x="269" y="380" type="line"/>
      <point x="302" y="391"/>
      <point x="324" y="415"/>
      <point x="330" y="455" type="curve" smooth="yes"/>
      <point x="339" y="512"/>
      <point x="303" y="531"/>
      <point x="250" y="531" type="curve" smooth="yes"/>
      <point x="214" y="531"/>
      <point x="194" y="529"/>
      <point x="184" y="529" type="curve"/>
    </contour>
    <contour>
      <point x="136" y="213"/>
      <point x="81" y="267"/>
      <point x="81" y="362" type="curve" smooth="yes"/>
      <point x="81" y="471"/>
      <point x="147" y="596"/>
      <point x="265" y="596" type="curve" smooth="yes"/>
      <point x="340" y="596"/>
      <point x="396" y="541"/>
      <point x="396" y="445" type="curve" smooth="yes"/>
      <point x="396" y="335"/>
      <point x="328" y="213"/>
      <point x="211" y="213" type="curve" smooth="yes"/>
    </contour>
    <contour>
      <point x="454" y="575"/>
      <point x="378" y="644"/>
      <point x="275" y="644" type="curve" smooth="yes"/>
      <point x="115" y="644"/>
      <point x="24" y="488"/>
      <point x="24" y="353" type="curve" smooth="yes"/>
      <point x="24" y="232"/>
      <point x="99" y="163"/>
      <point x="205" y="163" type="curve" smooth="yes"/>
      <point x="363" y="163"/>
      <point x="454" y="320"/>
      <point x="454" y="453" type="curve" smooth="yes"/>
    </contour>
  </outline>
</glyph>
<glyph name="macron" format="1">
  <advance width="337"/>
  <unicode hex="00AF"/>
  <outline>
    <contour>
      <point x="302" y="614" type="line"/>
      <point x="40" y="614" type="line"/>
      <point x="31" y="540" type="line"/>
      <point x="292" y="540" type="line"/>
    </contour>
  </outline>
</glyph>
<glyph name="degree" format="1">
  <advance width="358"/>
  <unicode hex="00B0"/>
  <outline>
    <contour>
      <point x="59" y="402"/>
      <point x="102" y="355"/>
      <point x="164" y="355" type="curve" smooth="yes"/>
      <point x="239" y="355"/>
      <point x="299" y="422"/>
      <point x="299" y="491" type="curve" smooth="yes"/>
      <point x="299" y="551"/>
      <point x="256" y="599"/>
      <point x="194" y="599" type="curve" smooth="yes"/>
      <point x="119" y="599"/>
      <point x="59" y="531"/>
      <point x="59" y="462" type="curve" smooth="yes"/>
    </contour>
    <contour>
      <point x="224" y="550"/>
      <point x="250" y="523"/>
      <point x="250" y="487" type="curve" smooth="yes"/>
      <point x="250" y="442"/>
      <point x="213" y="404"/>
      <point x="170" y="404" type="curve" smooth="yes"/>
      <point x="132" y="404"/>
      <point x="108" y="431"/>
      <point x="108" y="468" type="curve" smooth="yes"/>
      <point x="108" y="512"/>
      <point x="146" y="550"/>
      <point x="188" y="550" type="curve" smooth="yes"/>
    </contour>
  </outline>
</glyph>
<glyph name="twosuperior" format="1">
  <advance width="363"/>
  <unicode hex="00B2"/>
  <outline>
    <contour>
      <point x="303" y="285" type="line"/>
      <point x="160" y="285" type="line"/>
      <point x="237" y="353"/>
      <point x="331" y="438"/>
      <point x="331" y="543" type="curve" smooth="yes"/>
      <point x="331" y="607"/>
      <point x="290" y="642"/>
      <point x="209" y="642" type="curve" smooth="yes"/>
      <point x="154" y="642"/>
      <point x="109" y="623"/>
      <point x="94" y="616" type="curve"/>
      <point x="100" y="546" type="line"/>
      <point x="109" y="550"/>
      <point x="143" y="561"/>
      <point x="176" y="561" type="curve" smooth="yes"/>
      <point x="209" y="561"/>
      <point x="227" y="550"/>
      <point x="227" y="523" type="curve" smooth="yes"/>
      <point x="227" y="437"/>
      <point x="98" y="328"/>
      <point x="43" y="273" type="curve"/>
      <point x="32" y="201" type="line"/>
      <point x="290" y="201" type="line"/>
    </contour>
  </outline>
</glyph>
<glyph name="threesuperior" format="1">
  <advance width="375"/>
  <unicode hex="00B3"/>
  <outline>
    <contour>
      <point x="110" y="551" type="line"/>
      <point x="117" y="552"/>
      <point x="154" y="566"/>
      <point x="190" y="566" type="curve" smooth="yes"/>
      <point x="224" y="566"/>
      <point x="247" y="555"/>
      <point x="247" y="527" type="curve" smooth="yes"/>
      <point x="247" y="494"/>
      <point x="227" y="467"/>
      <point x="205" y="457" type="curve"/>
      <point x="190" y="452"/>
      <point x="172" y="450"/>
      <point x="153" y="450" type="curve" smooth="yes"/>
      <point x="131" y="450" type="line"/>
      <point x="121" y="384" type="line"/>
      <point x="127" y="384"/>
      <point x="149" y="385"/>
      <point x="168" y="385" type="curve" smooth="yes"/>
      <point x="209" y="385"/>
      <point x="232" y="371"/>
      <point x="232" y="338" type="curve" smooth="yes"/>
      <point x="232" y="286"/>
      <point x="197" y="262"/>
      <point x="150" y="262" type="curve" smooth="yes"/>
      <point x="107" y="262"/>
      <point x="72" y="282"/>
      <point x="65" y="288" type="curve"/>
      <point x="32" y="224" type="line"/>
      <point x="39" y="217"/>
      <point x="85" y="190"/>
      <point x="153" y="190" type="curve" smooth="yes"/>
      <point x="250" y="190"/>
      <point x="328" y="247"/>
      <point x="328" y="345" type="curve" smooth="yes"/>
      <point x="328" y="393"/>
      <point x="303" y="418"/>
      <point x="264" y="427" type="curve"/>
      <point x="314" y="456"/>
      <point x="343" y="499"/>
      <point x="343" y="551" type="curve" smooth="yes"/>
      <point x="343" y="610"/>
      <point x="297" y="639"/>
      <point x="219" y="639" type="curve" smooth="yes"/>
      <point x="158" y="639"/>
      <point x="120" y="623"/>
      <point x="105" y="618" type="curve"/>
    </contour>
  </outline>
</glyph>
<glyph name="acute" format="1">
  <advance width="225"/>
  <unicode hex="00B4"/>
  <outline>
    <contour>
      <point x="132" y="675" type="line"/>
      <point x="22" y="522" type="line"/>
      <point x="67" y="486" type="line"/>
      <point x="199" y="614" type="line"/>
    </contour>
    <contour>
      <point x="82" y="478" type="move" name="_top"/>
    </contour>
  </outline>
</glyph>
<glyph name="paragraph" format="1">
  <advance width="487"/>
  <unicode hex="00B6"/>
  <outline>
    <contour>
      <point x="482" y="563" type="line"/>
      <point x="261" y="563" type="line" smooth="yes"/>
      <point x="105" y="563"/>
      <point x="41" y="467"/>
      <point x="41" y="343" type="curve" smooth="yes"/>
      <point x="41" y="256"/>
      <point x="90" y="211"/>
      <point x="206" y="211" type="curve" smooth="yes"/>
      <point x="254" y="211"/>
      <point x="263" y="214"/>
      <point x="287" y="214" type="curve"/>
      <point x="328" y="505" type="line"/>
      <point x="475" y="505" type="line"/>
    </contour>
    <contour>
      <point x="431" y="557" type="line"/>
      <point x="369" y="557" type="line"/>
      <point x="291" y="0" type="line"/>
      <point x="353" y="0" type="line"/>
    </contour>
    <contour>
      <point x="335" y="557" type="line"/>
      <point x="272" y="557" type="line"/>
      <point x="194" y="0" type="line"/>
      <point x="257" y="0" type="line"/>
    </contour>
  </outline>
</glyph>
<glyph name="cedilla" format="1">
  <advance width="243"/>
  <unicode hex="00B8"/>
  <outline>
    <contour>
      <point x="98" y="8" type="line"/>
      <point x="71" y="-71" type="line"/>
      <point x="93" y="-71" type="line" smooth="yes"/>
      <point x="113" y="-71"/>
      <point x="128" y="-77"/>
      <point x="128" y="-98" type="curve" smooth="yes"/>
      <point x="128" y="-121"/>
      <point x="108" y="-130"/>
      <point x="82" y="-130" type="curve" smooth="yes"/>
      <point x="70" y="-130"/>
      <point x="58" y="-128"/>
      <point x="48" y="-124" type="curve"/>
      <point x="31" y="-172" type="line"/>
      <point x="48" y="-176"/>
      <point x="65" y="-178"/>
      <point x="83" y="-178" type="curve" smooth="yes"/>
      <point x="144" y="-178"/>
      <point x="208" y="-153"/>
      <point x="208" y="-84" type="curve" smooth="yes"/>
      <point x="208" y="-53"/>
      <point x="182" y="-35"/>
      <point x="144" y="-32" type="curve"/>
      <point x="158" y="8" type="line"/>
    </contour>
  </outline>
</glyph>
<glyph name="onesuperior" format="1">
  <advance width="325"/>
  <unicode hex="00B9"/>
  <outline>
    <contour>
      <point x="209" y="637" type="line"/>
      <point x="71" y="536" type="line"/>
      <point x="100" y="474" type="line"/>
      <point x="177" y="533" type="line"/>
      <point x="129" y="200" type="line"/>
      <point x="225" y="200" type="line"/>
      <point x="288" y="637" type="line"/>
    </contour>
  </outline>
</glyph>
<glyph name="ordmasculine" format="1">
  <advance width="336"/>
  <unicode hex="00BA"/>
  <outline>
    <contour>
      <point x="141" y="225"/>
      <point x="133" y="237"/>
      <point x="133" y="267" type="curve" smooth="yes"/>
      <point x="133" y="300"/>
      <point x="137" y="388"/>
      <point x="178" y="388" type="curve" smooth="yes"/>
      <point x="193" y="388"/>
      <point x="201" y="376"/>
      <point x="201" y="347" type="curve" smooth="yes"/>
      <point x="201" y="316"/>
      <point x="196" y="225"/>
      <point x="156" y="225" type="curve" smooth="yes"/>
    </contour>
    <contour>
      <point x="291" y="410"/>
      <point x="247" y="441"/>
      <point x="183" y="441" type="curve" smooth="yes"/>
      <point x="86" y="441"/>
      <point x="45" y="365"/>
      <point x="45" y="279" type="curve" smooth="yes"/>
      <point x="45" y="204"/>
      <point x="87" y="173"/>
      <point x="151" y="173" type="curve" smooth="yes"/>
      <point x="252" y="173"/>
      <point x="291" y="245"/>
      <point x="291" y="339" type="curve" smooth="yes"/>
    </contour>
  </outline>
</glyph>
<glyph name="onequarter" format="1">
  <advance width="798"/>
  <unicode hex="00BC"/>
  <outline>
    <contour>
      <point x="584" y="339" type="line"/>
      <point x="433" y="78" type="line"/>
      <point x="424" y="18" type="line"/>
      <point x="601" y="18" type="line"/>
      <point x="584" y="-95" type="line"/>
      <point x="674" y="-95" type="line"/>
      <point x="691" y="18" type="line"/>
      <point x="726" y="18" type="line"/>
      <point x="736" y="92" type="line"/>
      <point x="700" y="92" type="line"/>
      <point x="714" y="181" type="line"/>
      <point x="622" y="168" type="line"/>
      <point x="611" y="92" type="line"/>
      <point x="537" y="92" type="line"/>
      <point x="678" y="339" type="line"/>
    </contour>
    <component base="onesuperior"/>
    <component base="fraction" xOffset="264"/>
  </outline>
</glyph>
<glyph name="threequarters" format="1">
  <advance width="880"/>
  <unicode hex="00BE"/>
  <outline>
    <contour>
      <point x="669" y="339" type="line"/>
      <point x="518" y="78" type="line"/>
      <point x="509" y="18" type="line"/>
      <point x="684" y="18" type="line"/>
      <point x="669" y="-95" type="line"/>
      <point x="758" y="-95" type="line"/>
      <point x="776" y="18" type="line"/>
      <point x="810" y="18" type="line"/>
      <point x="820" y="92" type="line"/>
      <point x="784" y="92" type="line"/>
      <point x="798" y="181" type="line"/>
      <point x="706" y="168" type="line"/>
      <point x="695" y="92" type="line"/>
      <point x="622" y="92" type="line"/>
      <point x="762" y="339" type="line"/>
    </contour>
    <component base="threesuperior" xOffset="19"/>
    <component base="fraction" xOffset="347"/>
  </outline>
</glyph>
<glyph name="AE" format="1">
  <advance width="665"/>
  <unicode hex="00C6"/>
  <outline>
    <contour>
      <point x="347" y="469" type="line"/>
      <point x="347" y="469"/>
      <point x="436" y="557"/>
      <point x="436" y="557" type="curve"/>
      <point x="291" y="557" type="line"/>
      <point x="21" y="0" type="line"/>
      <point x="139" y="0" type="line"/>
    </contour>
    <contour>
      <point x="184" y="129" type="line"/>
      <point x="350" y="129" type="line"/>
      <point x="342" y="216" type="line"/>
      <point x="199" y="216" type="line"/>
    </contour>
    <component base="E" xOffset="250"/>
  </outline>
</glyph>
<glyph name="Eth" format="1">
  <advance width="491"/>
  <unicode hex="00D0"/>
  <outline>
    <contour>
      <point x="262" y="327" type="line"/>
      <point x="27" y="327" type="line"/>
      <point x="14" y="236" type="line"/>
      <point x="251" y="236" type="line"/>
    </contour>
    <component base="D" xOffset="12"/>
  </outline>
</glyph>
<glyph name="multiply" format="1">
  <advance width="428"/>
  <unicode hex="00D7"/>
  <outline>
    <contour>
      <point x="349" y="163" type="line"/>
      <point x="136" y="406" type="line"/>
      <point x="66" y="343" type="line"/>
      <point x="278" y="100" type="line"/>
    </contour>
    <contour>
      <point x="317" y="406" type="line"/>
      <point x="43" y="162" type="line"/>
      <point x="98" y="100" type="line"/>
      <point x="372" y="344" type="line"/>
    </contour>
  </outline>
</glyph>
<glyph name="Oslash" format="1">
  <advance width="498"/>
  <unicode hex="00D8"/>
  <outline>
    <contour>
      <point x="374" y="613" type="line"/>
      <point x="45" y="-60" type="line"/>
      <point x="126" y="-60" type="line"/>
      <point x="455" y="613" type="line"/>
    </contour>
    <component base="O"/>
  </outline>
</glyph>
<glyph name="Thorn" format="1">
  <advance width="428"/>
  <unicode hex="00DE"/>
  <outline>
    <contour>
      <point x="217" y="557" type="line"/>
      <point x="99" y="557" type="line"/>
      <point x="21" y="0" type="line"/>
      <point x="139" y="0" type="line"/>
    </contour>
    <contour>
      <point x="152" y="94" type="line"/>
      <point x="165" y="93"/>
      <point x="178" y="93"/>
      <point x="190" y="93" type="curve" smooth="yes"/>
      <point x="299" y="93"/>
      <point x="388" y="141"/>
      <point x="409" y="282" type="curve" smooth="yes"/>
      <point x="428" y="406"/>
      <point x="380" y="470"/>
      <point x="236" y="470" type="curve" smooth="yes"/>
      <point x="225" y="470"/>
      <point x="214" y="470"/>
      <point x="202" y="470" type="curve"/>
      <point x="192" y="381" type="line"/>
      <point x="205" y="382"/>
      <point x="216" y="382"/>
      <point x="227" y="382" type="curve" smooth="yes"/>
      <point x="279" y="382"/>
      <point x="302" y="349"/>
      <point x="292" y="282" type="curve" smooth="yes"/>
      <point x="280" y="204"/>
      <point x="244" y="178"/>
      <point x="196" y="178" type="curve" smooth="yes"/>
      <point x="163" y="178" type="line"/>
    </contour>
  </outline>
</glyph>
<glyph name="germandbls" format="1">
  <advance width="543"/>
  <unicode hex="00DF"/>
  <outline>
    <contour>
      <point x="345" y="530"/>
      <point x="325" y="544"/>
      <point x="294" y="544" type="curve" smooth="yes"/>
      <point x="250" y="544"/>
      <point x="236" y="526"/>
      <point x="229" y="482" type="curve" smooth="yes"/>
      <point x="162" y="0" type="line"/>
      <point x="48" y="0" type="line"/>
      <point x="115" y="485" type="line" smooth="yes"/>
      <point x="131" y="600"/>
      <point x="180" y="632"/>
      <point x="307" y="632" type="curve" smooth="yes"/>
      <point x="398" y="632"/>
      <point x="462" y="595"/>
      <point x="462" y="523" type="curve" smooth="yes"/>
      <point x="462" y="424"/>
      <point x="379" y="384"/>
      <point x="379" y="322" type="curve" smooth="yes"/>
      <point x="379" y="280"/>
      <point x="409" y="268"/>
      <point x="443" y="242" type="curve" smooth="yes"/>
      <point x="477" y="216"/>
      <point x="501" y="190"/>
      <point x="501" y="138" type="curve" smooth="yes"/>
      <point x="501" y="42"/>
      <point x="430" y="-11"/>
      <point x="332" y="-11" type="curve" smooth="yes"/>
      <point x="276" y="-11"/>
      <point x="252" y="-2"/>
      <point x="221" y="7" type="curve"/>
      <point x="234" y="91" type="line"/>
      <point x="267" y="81"/>
      <point x="286" y="73"/>
      <point x="324" y="73" type="curve" smooth="yes"/>
      <point x="355" y="73"/>
      <point x="382" y="81"/>
      <point x="382" y="120" type="curve" smooth="yes"/>
      <point x="382" y="156"/>
      <point x="353" y="169"/>
      <point x="320" y="200" type="curve" smooth="yes"/>
      <point x="282" y="235"/>
      <point x="272" y="279"/>
      <point x="272" y="306" type="curve" smooth="yes"/>
      <point x="272" y="410"/>
      <point x="345" y="424"/>
      <point x="345" y="504" type="curve" smooth="yes"/>
    </contour>
  </outline>
</glyph>
<glyph name="ae" format="1">
  <advance width="648"/>
  <unicode hex="00E6"/>
  <outline>
    <contour>
      <point x="509" y="363"/>
      <point x="528" y="338"/>
      <point x="517" y="254" type="curve"/>
      <point x="402" y="254" type="line"/>
      <point x="413" y="336"/>
      <point x="448" y="363"/>
      <point x="477" y="363" type="curve" smooth="yes"/>
    </contour>
    <contour>
      <point x="571" y="107" type="line"/>
      <point x="550" y="95"/>
      <point x="507" y="76"/>
      <point x="463" y="76" type="curve" smooth="yes"/>
      <point x="414" y="76"/>
      <point x="381" y="108"/>
      <point x="392" y="183" type="curve"/>
      <point x="612" y="183" type="line"/>
      <point x="615" y="187"/>
      <point x="621" y="211"/>
      <point x="627" y="242" type="curve" smooth="yes"/>
      <point x="646" y="384"/>
      <point x="588" y="444"/>
      <point x="495" y="444" type="curve" smooth="yes"/>
      <point x="397" y="444"/>
      <point x="317" y="368"/>
      <point x="294" y="205" type="curve" smooth="yes"/>
      <point x="272" y="52"/>
      <point x="337" y="-11"/>
      <point x="432" y="-11" type="curve" smooth="yes"/>
      <point x="514" y="-11"/>
      <point x="571" y="22"/>
      <point x="583" y="30" type="curve"/>
    </contour>
    <contour>
      <point x="152" y="86"/>
      <point x="136" y="117"/>
      <point x="150" y="218" type="curve" smooth="yes"/>
      <point x="165" y="321"/>
      <point x="195" y="354"/>
      <point x="250" y="354" type="curve" smooth="yes"/>
      <point x="270" y="354"/>
      <point x="287" y="353"/>
      <point x="302" y="352" type="curve"/>
      <point x="271" y="126" type="line"/>
      <point x="255" y="107"/>
      <point x="225" y="86"/>
      <point x="198" y="86" type="curve" smooth="yes"/>
    </contour>
    <contour>
      <point x="397" y="429" type="line"/>
      <point x="356" y="434"/>
      <point x="299" y="442"/>
      <point x="239" y="442" type="curve" smooth="yes"/>
      <point x="146" y="442"/>
      <point x="53" y="380"/>
      <point x="29" y="209" type="curve" smooth="yes"/>
      <point x="7" y="52"/>
      <point x="60" y="-11"/>
      <point x="135" y="-11" type="curve" smooth="yes"/>
      <point x="192" y="-11"/>
      <point x="270" y="33"/>
      <point x="306" y="85" type="curve"/>
      <point x="352" y="96" type="line"/>
    </contour>
  </outline>
</glyph>
<glyph name="eth" format="1">
  <advance width="423"/>
  <unicode hex="00F0"/>
  <outline>
    <contour>
      <point x="161" y="394" type="line"/>
      <point x="408" y="532" type="line"/>
      <point x="369" y="599" type="line"/>
      <point x="122" y="461" type="line"/>
    </contour>
    <component base="partialdiff"/>
  </outline>
</glyph>
<glyph name="divide" format="1">
  <advance width="395"/>
  <unicode hex="00F7"/>
  <outline>
    <contour>
      <point x="247" y="141"/>
      <point x="222" y="168"/>
      <point x="188" y="168" type="curve" smooth="yes"/>
      <point x="154" y="168"/>
      <point x="121" y="141"/>
      <point x="115" y="100" type="curve" smooth="yes"/>
      <point x="109" y="56"/>
      <point x="133" y="29"/>
      <point x="168" y="29" type="curve" smooth="yes"/>
      <point x="202" y="29"/>
      <point x="235" y="56"/>
      <point x="240" y="100" type="curve" smooth="yes"/>
    </contour>
    <contour>
      <point x="290" y="449"/>
      <point x="265" y="478"/>
      <point x="231" y="478" type="curve" smooth="yes"/>
      <point x="196" y="478"/>
      <point x="167" y="449"/>
      <point x="161" y="408" type="curve" smooth="yes"/>
      <point x="155" y="364"/>
      <point x="178" y="339"/>
      <point x="213" y="339" type="curve" smooth="yes"/>
      <point x="246" y="339"/>
      <point x="276" y="364"/>
      <point x="284" y="408" type="curve"/>
    </contour>
    <component base="minus" xOffset="-3"/>
  </outline>
</glyph>
<glyph name="oslash" format="1">
  <advance width="417"/>
  <unicode hex="00F8"/>
  <outline>
    <contour>
      <point x="300" y="488" type="line"/>
      <point x="45" y="-66" type="line"/>
      <point x="116" y="-66" type="line"/>
      <point x="371" y="488" type="line"/>
    </contour>
    <component base="o"/>
  </outline>
</glyph>
<glyph name="dcaron" format="1">
  <advance width="564"/>
  <unicode hex="010F"/>
  <outline>
    <contour>
      <point x="502" y="630" type="line"/>
      <point x="471" y="443" type="line"/>
      <point x="539" y="443" type="line"/>
      <point x="600" y="630" type="line"/>
    </contour>
    <component base="d"/>
  </outline>
</glyph>
<glyph name="Dcroat" format="1">
  <advance width="490"/>
  <unicode hex="0110"/>
  <outline>
    <contour>
      <point x="262" y="327" type="line"/>
      <point x="27" y="327" type="line"/>
      <point x="14" y="236" type="line"/>
      <point x="251" y="236" type="line"/>
    </contour>
    <component base="D" xOffset="11"/>
  </outline>
</glyph>
<glyph name="dcroat" format="1">
  <advance width="463"/>
  <unicode hex="0111"/>
  <outline>
    <contour>
      <point x="505" y="561" type="line"/>
      <point x="231" y="561" type="line"/>
      <point x="218" y="477" type="line"/>
      <point x="492" y="477" type="line"/>
    </contour>
    <contour>
      <point x="151" y="86"/>
      <point x="135" y="114"/>
      <point x="149" y="206" type="curve" smooth="yes"/>
      <point x="164" y="300"/>
      <point x="193" y="330"/>
      <point x="249" y="330" type="curve" smooth="yes"/>
      <point x="268" y="330"/>
      <point x="282" y="326"/>
      <point x="300" y="316" type="curve"/>
      <point x="270" y="122" type="line"/>
      <point x="254" y="105"/>
      <point x="224" y="86"/>
      <point x="196" y="86" type="curve" smooth="yes"/>
    </contour>
    <contour>
      <point x="144" y="417"/>
      <point x="52" y="359"/>
      <point x="29" y="197" type="curve" smooth="yes"/>
      <point x="7" y="48"/>
      <point x="61" y="-12"/>
      <point x="135" y="-12" type="curve" smooth="yes"/>
      <point x="192" y="-12"/>
      <point x="238" y="22"/>
      <point x="271" y="52" type="curve"/>
      <point x="271" y="0" type="line"/>
      <point x="367" y="0" type="line"/>
      <point x="454" y="625" type="line"/>
      <point x="339" y="608" type="line"/>
      <point x="309" y="400" type="line"/>
      <point x="287" y="410"/>
      <point x="261" y="417"/>
      <point x="236" y="417" type="curve" smooth="yes"/>
    </contour>
  </outline>
</glyph>
<glyph name="Gcommaaccent" format="1">
  <advance width="457"/>
  <unicode hex="0122"/>
  <outline>
    <contour>
      <point x="179" y="-169"/>
      <point x="172" y="-181"/>
      <point x="153" y="-204" type="curve"/>
      <point x="202" y="-226" type="line"/>
      <point x="247" y="-197"/>
      <point x="288" y="-139"/>
      <point x="288" y="-89" type="curve" smooth="yes"/>
      <point x="288" y="-63"/>
      <point x="274" y="-45"/>
      <point x="239" y="-45" type="curve" smooth="yes"/>
      <point x="200" y="-45"/>
      <point x="176" y="-76"/>
      <point x="176" y="-112" type="curve" smooth="yes"/>
      <point x="176" y="-124"/>
      <point x="178" y="-137"/>
      <point x="184" y="-149" type="curve"/>
    </contour>
    <component base="G"/>
  </outline>
</glyph>
<glyph name="gcommaaccent" format="1">
  <advance width="437"/>
  <unicode hex="0123"/>
  <outline>
    <contour>
      <point x="337" y="606"/>
      <point x="344" y="618"/>
      <point x="363" y="641" type="curve"/>
      <point x="314" y="663" type="line"/>
      <point x="269" y="634"/>
      <point x="228" y="576"/>
      <point x="228" y="526" type="curve" smooth="yes"/>
      <point x="228" y="500"/>
      <point x="242" y="482"/>
      <point x="277" y="482" type="curve" smooth="yes"/>
      <point x="316" y="482"/>
      <point x="340" y="513"/>
      <point x="340" y="549" type="curve" smooth="yes"/>
      <point x="340" y="561"/>
      <point x="338" y="574"/>
      <point x="332" y="586" type="curve"/>
    </contour>
    <component base="g"/>
  </outline>
</glyph>
<glyph name="dotlessi" format="1">
  <advance width="236"/>
  <unicode hex="0131"/>
  <outline>
    <contour>
      <point x="197" y="434" type="line"/>
      <point x="82" y="434" type="line"/>
      <point x="21" y="0" type="line"/>
      <point x="135" y="0" type="line"/>
    </contour>
  </outline>
</glyph>
<glyph name="Kcommaaccent" format="1">
  <advance width="489"/>
  <unicode hex="0136"/>
  <outline>
    <contour>
      <point x="142" y="-169"/>
      <point x="134" y="-181"/>
      <point x="115" y="-204" type="curve"/>
      <point x="165" y="-226" type="line"/>
      <point x="210" y="-197"/>
      <point x="250" y="-139"/>
      <point x="250" y="-89" type="curve" smooth="yes"/>
      <point x="250" y="-63"/>
      <point x="236" y="-45"/>
      <point x="201" y="-45" type="curve" smooth="yes"/>
      <point x="162" y="-45"/>
      <point x="138" y="-76"/>
      <point x="138" y="-112" type="curve" smooth="yes"/>
      <point x="138" y="-124"/>
      <point x="141" y="-137"/>
      <point x="146" y="-149" type="curve"/>
    </contour>
    <component base="K"/>
  </outline>
</glyph>
<glyph name="kcommaaccent" format="1">
  <advance width="435"/>
  <unicode hex="0137"/>
  <outline>
    <contour>
      <point x="121" y="-169"/>
      <point x="113" y="-181"/>
      <point x="94" y="-204" type="curve"/>
      <point x="144" y="-226" type="line"/>
      <point x="189" y="-197"/>
      <point x="229" y="-139"/>
      <point x="229" y="-89" type="curve" smooth="yes"/>
      <point x="229" y="-63"/>
      <point x="215" y="-45"/>
      <point x="180" y="-45" type="curve" smooth="yes"/>
      <point x="141" y="-45"/>
      <point x="117" y="-76"/>
      <point x="117" y="-112" type="curve" smooth="yes"/>
      <point x="117" y="-124"/>
      <point x="120" y="-137"/>
      <point x="125" y="-149" type="curve"/>
    </contour>
    <component base="k"/>
  </outline>
</glyph>
<glyph name="Lcommaaccent" format="1">
  <advance width="332"/>
  <unicode hex="013B"/>
  <outline>
    <contour>
      <point x="95" y="-169"/>
      <point x="87" y="-181"/>
      <point x="68" y="-204" type="curve"/>
      <point x="118" y="-226" type="line"/>
      <point x="163" y="-197"/>
      <point x="203" y="-139"/>
      <point x="203" y="-89" type="curve" smooth="yes"/>
      <point x="203" y="-63"/>
      <point x="190" y="-45"/>
      <point x="155" y="-45" type="curve" smooth="yes"/>
      <point x="115" y="-45"/>
      <point x="91" y="-76"/>
      <point x="91" y="-112" type="curve" smooth="yes"/>
      <point x="91" y="-124"/>
      <point x="94" y="-137"/>
      <point x="99" y="-149" type="curve"/>
    </contour>
    <component base="L"/>
  </outline>
</glyph>
<glyph name="lcommaaccent" format="1">
  <advance width="238"/>
  <unicode hex="013C"/>
  <outline>
    <contour>
      <point x="8" y="-169"/>
      <point x="1" y="-181"/>
      <point x="-18" y="-204" type="curve"/>
      <point x="31" y="-226" type="line"/>
      <point x="76" y="-197"/>
      <point x="117" y="-139"/>
      <point x="117" y="-89" type="curve" smooth="yes"/>
      <point x="117" y="-63"/>
      <point x="103" y="-45"/>
      <point x="68" y="-45" type="curve" smooth="yes"/>
      <point x="29" y="-45"/>
      <point x="5" y="-76"/>
      <point x="5" y="-112" type="curve" smooth="yes"/>
      <point x="5" y="-124"/>
      <point x="7" y="-137"/>
      <point x="13" y="-149" type="curve"/>
    </contour>
    <component base="l"/>
  </outline>
</glyph>
<glyph name="Lcaron" format="1">
  <advance width="369"/>
  <unicode hex="013D"/>
  <outline>
    <contour>
      <point x="283" y="630" type="line"/>
      <point x="252" y="443" type="line"/>
      <point x="320" y="443" type="line"/>
      <point x="381" y="630" type="line"/>
    </contour>
    <component base="L"/>
  </outline>
</glyph>
<glyph name="lcaron" format="1">
  <advance width="322"/>
  <unicode hex="013E"/>
  <outline>
    <contour>
      <point x="267" y="630" type="line"/>
      <point x="236" y="443" type="line"/>
      <point x="304" y="443" type="line"/>
      <point x="364" y="630" type="line"/>
    </contour>
    <component base="l"/>
  </outline>
</glyph>
<glyph name="Lslash" format="1">
  <advance width="371"/>
  <unicode hex="0141"/>
  <outline>
    <contour>
      <point x="155" y="285" type="line"/>
      <point x="5" y="225" type="line"/>
      <point x="24" y="146" type="line"/>
      <point x="146" y="195" type="line"/>
    </contour>
    <contour>
      <point x="155" y="201" type="line"/>
      <point x="348" y="278" type="line"/>
      <point x="329" y="358" type="line"/>
      <point x="164" y="292" type="line"/>
    </contour>
    <component base="L" xOffset="31"/>
  </outline>
</glyph>
<glyph name="lslash" format="1">
  <advance width="282"/>
  <unicode hex="0142"/>
  <outline>
    <contour>
      <point x="133" y="304" type="line"/>
      <point x="5" y="252" type="line"/>
      <point x="22" y="182" type="line"/>
      <point x="122" y="223" type="line"/>
    </contour>
    <contour>
      <point x="144" y="233" type="line"/>
      <point x="278" y="286" type="line"/>
      <point x="261" y="357" type="line"/>
      <point x="155" y="314" type="line"/>
    </contour>
    <component base="l" xOffset="25"/>
  </outline>
</glyph>
<glyph name="Ncommaaccent" format="1">
  <advance width="498"/>
  <unicode hex="0145"/>
  <outline>
    <contour>
      <point x="155" y="-169"/>
      <point x="147" y="-181"/>
      <point x="128" y="-204" type="curve"/>
      <point x="178" y="-226" type="line"/>
      <point x="223" y="-197"/>
      <point x="263" y="-139"/>
      <point x="263" y="-89" type="curve" smooth="yes"/>
      <point x="263" y="-63"/>
      <point x="249" y="-45"/>
      <point x="214" y="-45" type="curve" smooth="yes"/>
      <point x="175" y="-45"/>
      <point x="151" y="-76"/>
      <point x="151" y="-112" type="curve" smooth="yes"/>
      <point x="151" y="-124"/>
      <point x="154" y="-137"/>
      <point x="159" y="-149" type="curve"/>
    </contour>
    <component base="N"/>
  </outline>
</glyph>
<glyph name="ncommaaccent" format="1">
  <advance width="424"/>
  <unicode hex="0146"/>
  <outline>
    <contour>
      <point x="124" y="-169"/>
      <point x="117" y="-181"/>
      <point x="98" y="-204" type="curve"/>
      <point x="147" y="-226" type="line"/>
      <point x="192" y="-197"/>
      <point x="233" y="-139"/>
      <point x="233" y="-89" type="curve" smooth="yes"/>
      <point x="233" y="-63"/>
      <point x="219" y="-45"/>
      <point x="184" y="-45" type="curve" smooth="yes"/>
      <point x="144" y="-45"/>
      <point x="121" y="-76"/>
      <point x="121" y="-112" type="curve" smooth="yes"/>
      <point x="121" y="-124"/>
      <point x="123" y="-137"/>
      <point x="129" y="-149" type="curve"/>
    </contour>
    <component base="n"/>
  </outline>
</glyph>
<glyph name="OE" format="1">
  <advance width="701"/>
  <unicode hex="0152"/>
  <outline>
    <contour>
      <point x="329" y="154"/>
      <point x="294" y="82"/>
      <point x="225" y="82" type="curve" smooth="yes"/>
      <point x="161" y="82"/>
      <point x="144" y="154"/>
      <point x="163" y="277" type="curve" smooth="yes"/>
      <point x="181" y="404"/>
      <point x="217" y="474"/>
      <point x="281" y="474" type="curve" smooth="yes"/>
      <point x="346" y="474"/>
      <point x="363" y="404"/>
      <point x="346" y="277" type="curve" smooth="yes"/>
    </contour>
    <contour>
      <point x="451" y="308"/>
      <point x="444" y="338"/>
      <point x="444" y="363" type="curve" smooth="yes"/>
      <point x="444" y="490"/>
      <point x="385" y="567"/>
      <point x="282" y="567" type="curve" smooth="yes"/>
      <point x="152" y="567"/>
      <point x="67" y="477"/>
      <point x="40" y="277" type="curve" smooth="yes"/>
      <point x="14" y="80"/>
      <point x="74" y="-11"/>
      <point x="204" y="-11" type="curve" smooth="yes"/>
      <point x="279" y="-11"/>
      <point x="329" y="24"/>
      <point x="364" y="79" type="curve" smooth="yes"/>
      <point x="395" y="127"/>
      <point x="434" y="191"/>
      <point x="446" y="277" type="curve" smooth="yes"/>
    </contour>
    <contour>
      <point x="609" y="0" type="line"/>
      <point x="621" y="96" type="line"/>
      <point x="438" y="96" type="line"/>
      <point x="459" y="243" type="line"/>
      <point x="598" y="243" type="line"/>
      <point x="610" y="332" type="line"/>
      <point x="473" y="332" type="line"/>
      <point x="491" y="461" type="line"/>
      <point x="672" y="461" type="line"/>
      <point x="686" y="557" type="line"/>
      <point x="410" y="557" type="line"/>
      <point x="332" y="0" type="line"/>
    </contour>
  </outline>
</glyph>
<glyph name="oe" format="1">
  <advance width="650"/>
  <unicode hex="0153"/>
  <outline>
    <contour>
      <point x="512" y="363"/>
      <point x="531" y="338"/>
      <point x="520" y="254" type="curve"/>
      <point x="405" y="254" type="line"/>
      <point x="416" y="336"/>
      <point x="451" y="363"/>
      <point x="480" y="363" type="curve" smooth="yes"/>
    </contour>
    <contour>
      <point x="574" y="107" type="line"/>
      <point x="553" y="95"/>
      <point x="510" y="76"/>
      <point x="466" y="76" type="curve" smooth="yes"/>
      <point x="417" y="76"/>
      <point x="384" y="108"/>
      <point x="395" y="183" type="curve"/>
      <point x="615" y="183" type="line"/>
      <point x="618" y="187"/>
      <point x="624" y="211"/>
      <point x="629" y="242" type="curve" smooth="yes"/>
      <point x="649" y="384"/>
      <point x="586" y="444"/>
      <point x="493" y="444" type="curve" smooth="yes"/>
      <point x="396" y="444"/>
      <point x="324" y="368"/>
      <point x="301" y="205" type="curve" smooth="yes"/>
      <point x="279" y="52"/>
      <point x="336" y="-11"/>
      <point x="431" y="-11" type="curve" smooth="yes"/>
      <point x="513" y="-11"/>
      <point x="574" y="22"/>
      <point x="586" y="30" type="curve"/>
    </contour>
    <contour>
      <point x="270" y="115"/>
      <point x="244" y="73"/>
      <point x="196" y="73" type="curve" smooth="yes"/>
      <point x="147" y="73"/>
      <point x="133" y="114"/>
      <point x="148" y="218" type="curve" smooth="yes"/>
      <point x="162" y="320"/>
      <point x="188" y="361"/>
      <point x="236" y="361" type="curve" smooth="yes"/>
      <point x="283" y="361"/>
      <point x="298" y="320"/>
      <point x="284" y="218" type="curve" smooth="yes"/>
    </contour>
    <contour>
      <point x="406" y="379"/>
      <point x="360" y="444"/>
      <point x="247" y="444" type="curve" smooth="yes"/>
      <point x="137" y="444"/>
      <point x="53" y="379"/>
      <point x="30" y="218" type="curve" smooth="yes"/>
      <point x="7" y="54"/>
      <point x="73" y="-11"/>
      <point x="184" y="-11" type="curve" smooth="yes"/>
      <point x="298" y="-11"/>
      <point x="358" y="52"/>
      <point x="382" y="218" type="curve" smooth="yes"/>
    </contour>
  </outline>
</glyph>
<glyph name="Rcommaaccent" format="1">
  <advance width="454"/>
  <unicode hex="0156"/>
  <outline>
    <contour>
      <point x="129" y="-169"/>
      <point x="121" y="-181"/>
      <point x="102" y="-204" type="curve"/>
      <point x="152" y="-226" type="line"/>
      <point x="197" y="-197"/>
      <point x="237" y="-139"/>
      <point x="237" y="-89" type="curve" smooth="yes"/>
      <point x="237" y="-63"/>
      <point x="224" y="-45"/>
      <point x="189" y="-45" type="curve" smooth="yes"/>
      <point x="149" y="-45"/>
      <point x="125" y="-76"/>
      <point x="125" y="-112" type="curve" smooth="yes"/>
      <point x="125" y="-124"/>
      <point x="128" y="-137"/>
      <point x="133" y="-149" type="curve"/>
    </contour>
    <component base="R"/>
  </outline>
</glyph>
<glyph name="rcommaaccent" format="1">
  <advance width="321"/>
  <unicode hex="0157"/>
  <outline>
    <contour>
      <point x="51" y="-168"/>
      <point x="43" y="-180"/>
      <point x="24" y="-203" type="curve"/>
      <point x="74" y="-225" type="line"/>
      <point x="119" y="-196"/>
      <point x="159" y="-138"/>
      <point x="159" y="-88" type="curve" smooth="yes"/>
      <point x="159" y="-63"/>
      <point x="145" y="-44"/>
      <point x="110" y="-44" type="curve" smooth="yes"/>
      <point x="71" y="-44"/>
      <point x="47" y="-75"/>
      <point x="47" y="-111" type="curve" smooth="yes"/>
      <point x="47" y="-123"/>
      <point x="50" y="-136"/>
      <point x="55" y="-148" type="curve"/>
    </contour>
    <component base="r"/>
  </outline>
</glyph>
<glyph name="tcaron" format="1">
  <advance width="351"/>
  <unicode hex="0165"/>
  <outline>
    <contour>
      <point x="277" y="668" type="line"/>
      <point x="246" y="480" type="line"/>
      <point x="314" y="480" type="line"/>
      <point x="374" y="668" type="line"/>
    </contour>
    <component base="t"/>
  </outline>
</glyph>
<glyph name="florin" format="1">
  <advance width="331"/>
  <unicode hex="0192"/>
  <outline>
    <contour>
      <point x="55" y="-27" type="line" smooth="yes"/>
      <point x="47" y="-82"/>
      <point x="37" y="-102"/>
      <point x="7" y="-102" type="curve" smooth="yes"/>
      <point x="-16" y="-102"/>
      <point x="-34" y="-98"/>
      <point x="-40" y="-95" type="curve"/>
      <point x="-47" y="-122"/>
      <point x="-52" y="-147"/>
      <point x="-55" y="-176" type="curve"/>
      <point x="-45" y="-180"/>
      <point x="-21" y="-192"/>
      <point x="34" y="-192" type="curve" smooth="yes"/>
      <point x="111" y="-192"/>
      <point x="154" y="-150"/>
      <point x="168" y="-43" type="curve" smooth="yes"/>
      <point x="214" y="285" type="line"/>
      <point x="290" y="285" type="line"/>
      <point x="304" y="369" type="line"/>
      <point x="225" y="369" type="line"/>
      <point x="239" y="468" type="line" smooth="yes"/>
      <point x="247" y="523"/>
      <point x="258" y="544"/>
      <point x="287" y="544" type="curve" smooth="yes"/>
      <point x="310" y="544"/>
      <point x="328" y="540"/>
      <point x="335" y="536" type="curve"/>
      <point x="341" y="564"/>
      <point x="346" y="589"/>
      <point x="350" y="617" type="curve"/>
      <point x="339" y="622"/>
      <point x="316" y="634"/>
      <point x="260" y="634" type="curve" smooth="yes"/>
      <point x="183" y="634"/>
      <point x="141" y="592"/>
      <point x="126" y="485" type="curve" smooth="yes"/>
      <point x="109" y="369" type="line"/>
      <point x="64" y="369" type="line"/>
      <point x="53" y="285" type="line"/>
      <point x="100" y="285" type="line"/>
    </contour>
  </outline>
</glyph>
<glyph name="Scommaaccent" format="1">
  <advance width="444"/>
  <unicode hex="0218"/>
  <outline>
    <contour>
      <point x="106" y="-169"/>
      <point x="98" y="-181"/>
      <point x="79" y="-204" type="curve"/>
      <point x="129" y="-226" type="line"/>
      <point x="174" y="-197"/>
      <point x="214" y="-139"/>
      <point x="214" y="-89" type="curve" smooth="yes"/>
      <point x="214" y="-63"/>
      <point x="201" y="-45"/>
      <point x="166" y="-45" type="curve" smooth="yes"/>
      <point x="126" y="-45"/>
      <point x="102" y="-76"/>
      <point x="102" y="-112" type="curve" smooth="yes"/>
      <point x="102" y="-124"/>
      <point x="105" y="-137"/>
      <point x="110" y="-149" type="curve"/>
    </contour>
    <component base="S"/>
  </outline>
</glyph>
<glyph name="scommaaccent" format="1">
  <advance width="354"/>
  <unicode hex="0219"/>
  <outline>
    <contour>
      <point x="93" y="-169"/>
      <point x="86" y="-181"/>
      <point x="66" y="-204" type="curve"/>
      <point x="116" y="-226" type="line"/>
      <point x="161" y="-197"/>
      <point x="201" y="-139"/>
      <point x="201" y="-89" type="curve" smooth="yes"/>
      <point x="201" y="-63"/>
      <point x="188" y="-45"/>
      <point x="153" y="-45" type="curve" smooth="yes"/>
      <point x="113" y="-45"/>
      <point x="89" y="-76"/>
      <point x="89" y="-112" type="curve" smooth="yes"/>
      <point x="89" y="-124"/>
      <point x="92" y="-137"/>
      <point x="98" y="-149" type="curve"/>
    </contour>
    <component base="s"/>
  </outline>
</glyph>
<glyph name="uni021A" format="1">
  <advance width="398"/>
  <unicode hex="021A"/>
  <outline>
    <contour>
      <point x="60" y="-169"/>
      <point x="52" y="-181"/>
      <point x="33" y="-204" type="curve"/>
      <point x="83" y="-226" type="line"/>
      <point x="128" y="-197"/>
      <point x="168" y="-139"/>
      <point x="168" y="-89" type="curve" smooth="yes"/>
      <point x="168" y="-63"/>
      <point x="155" y="-45"/>
      <point x="120" y="-45" type="curve" smooth="yes"/>
      <point x="80" y="-45"/>
      <point x="56" y="-76"/>
      <point x="56" y="-112" type="curve" smooth="yes"/>
      <point x="56" y="-124"/>
      <point x="59" y="-137"/>
      <point x="64" y="-149" type="curve"/>
    </contour>
    <component base="T"/>
  </outline>
</glyph>
<glyph name="uni021B" format="1">
  <advance width="294"/>
  <unicode hex="021B"/>
  <outline>
    <contour>
      <point x="61" y="-169"/>
      <point x="53" y="-181"/>
      <point x="34" y="-204" type="curve"/>
      <point x="84" y="-226" type="line"/>
      <point x="129" y="-197"/>
      <point x="169" y="-139"/>
      <point x="169" y="-89" type="curve" smooth="yes"/>
      <point x="169" y="-63"/>
      <point x="155" y="-45"/>
      <point x="121" y="-45" type="curve" smooth="yes"/>
      <point x="81" y="-45"/>
      <point x="57" y="-76"/>
      <point x="57" y="-112" type="curve" smooth="yes"/>
      <point x="57" y="-124"/>
      <point x="60" y="-137"/>
      <point x="65" y="-149" type="curve"/>
    </contour>
    <component base="t"/>
  </outline>
</glyph>
<glyph name="circumflex" format="1">
  <advance width="313"/>
  <unicode hex="02C6"/>
  <outline>
    <contour>
      <point x="160" y="659" type="line"/>
      <point x="24" y="538" type="line"/>
      <point x="54" y="493" type="line"/>
      <point x="159" y="559" type="line"/>
      <point x="247" y="493" type="line"/>
      <point x="289" y="535" type="line"/>
      <point x="185" y="659" type="line"/>
    </contour>
    <contour>
      <point x="149" y="478" type="move" name="_top"/>
    </contour>
  </outline>
</glyph>
<glyph name="caron" format="1">
  <advance width="313"/>
  <unicode hex="02C7"/>
  <outline>
    <component base="circumflex" xOffset="313" yOffset="1152" xScale="-1" yScale="-1"/>
    <contour>
      <point x="139" y="478" type="move" name="_top"/>
    </contour>
  </outline>
</glyph>
<glyph name="firsttonechinese" format="1">
  <advance width="336"/>
  <unicode hex="02C9"/>
  <outline>
    <component base="macron"/>
    <contour>
      <point x="152" y="478" type="move" name="_top"/>
    </contour>
  </outline>
</glyph>
<glyph name="breve" format="1">
  <advance width="355"/>
  <unicode hex="02D8"/>
  <outline>
    <contour>
      <point x="102" y="640"/>
      <point x="52" y="634"/>
      <point x="52" y="634" type="curve"/>
      <point x="45" y="550"/>
      <point x="70" y="496"/>
      <point x="155" y="496" type="curve" smooth="yes"/>
      <point x="242" y="496"/>
      <point x="301" y="573"/>
      <point x="305" y="634" type="curve"/>
      <point x="305" y="634"/>
      <point x="252" y="641"/>
      <point x="252" y="641" type="curve"/>
      <point x="240" y="597"/>
      <point x="218" y="570"/>
      <point x="167" y="570" type="curve" smooth="yes"/>
      <point x="122" y="570"/>
      <point x="100" y="592"/>
      <point x="102" y="640" type="curve"/>
    </contour>
    <contour>
      <point x="154" y="478" type="move" name="_top"/>
    </contour>
  </outline>
</glyph>
<glyph name="dotaccent" format="1">
  <advance width="234"/>
  <unicode hex="02D9"/>
  <outline>
    <contour>
      <point x="192" y="607"/>
      <point x="168" y="637"/>
      <point x="132" y="637" type="curve" smooth="yes"/>
      <point x="95" y="637"/>
      <point x="63" y="607"/>
      <point x="56" y="567" type="curve" smooth="yes"/>
      <point x="50" y="527"/>
      <point x="75" y="500"/>
      <point x="113" y="500" type="curve" smooth="yes"/>
      <point x="148" y="500"/>
      <point x="181" y="527"/>
      <point x="187" y="567" type="curve" smooth="yes"/>
    </contour>
    <contour>
      <point x="109" y="478" type="move" name="_top"/>
    </contour>
  </outline>
</glyph>
<glyph name="ring" format="1">
  <advance width="283"/>
  <unicode hex="02DA"/>
  <outline>
    <contour>
      <point x="243" y="627"/>
      <point x="208" y="666"/>
      <point x="156" y="666" type="curve" smooth="yes"/>
      <point x="103" y="666"/>
      <point x="58" y="627"/>
      <point x="48" y="569" type="curve" smooth="yes"/>
      <point x="39" y="512"/>
      <point x="74" y="476"/>
      <point x="129" y="476" type="curve" smooth="yes"/>
      <point x="179" y="476"/>
      <point x="227" y="512"/>
      <point x="236" y="569" type="curve"/>
    </contour>
    <contour>
      <point x="182" y="543"/>
      <point x="159" y="524"/>
      <point x="135" y="524" type="curve" smooth="yes"/>
      <point x="109" y="524"/>
      <point x="92" y="543"/>
      <point x="98" y="569" type="curve"/>
      <point x="101" y="598"/>
      <point x="122" y="617"/>
      <point x="148" y="617" type="curve" smooth="yes"/>
      <point x="172" y="617"/>
      <point x="190" y="598"/>
      <point x="185" y="569" type="curve"/>
    </contour>
    <contour>
      <point x="132" y="478" type="move" name="_top"/>
    </contour>
  </outline>
</glyph>
<glyph name="ogonek" format="1">
  <advance width="222"/>
  <unicode hex="02DB"/>
  <outline>
    <contour>
      <point x="121" y="6" type="line"/>
      <point x="72" y="-21"/>
      <point x="35" y="-59"/>
      <point x="35" y="-112" type="curve" smooth="yes"/>
      <point x="35" y="-155"/>
      <point x="65" y="-174"/>
      <point x="107" y="-174" type="curve" smooth="yes"/>
      <point x="132" y="-174"/>
      <point x="161" y="-167"/>
      <point x="188" y="-148" type="curve"/>
      <point x="190" y="-86" type="line"/>
      <point x="178" y="-89"/>
      <point x="169" y="-90"/>
      <point x="161" y="-90" type="curve" smooth="yes"/>
      <point x="141" y="-90"/>
      <point x="130" y="-81"/>
      <point x="130" y="-66" type="curve" smooth="yes"/>
      <point x="130" y="-49"/>
      <point x="147" y="-23"/>
      <point x="181" y="0" type="curve"/>
      <point x="181" y="6" type="line"/>
    </contour>
  </outline>
</glyph>
<glyph name="tilde" format="1">
  <advance width="319"/>
  <unicode hex="02DC"/>
  <outline>
    <contour>
      <point x="57" y="529" type="line"/>
      <point x="71" y="546"/>
      <point x="88" y="558"/>
      <point x="109" y="558" type="curve" smooth="yes"/>
      <point x="130" y="558"/>
      <point x="135" y="551"/>
      <point x="148" y="544" type="curve" smooth="yes"/>
      <point x="163" y="535"/>
      <point x="175" y="523"/>
      <point x="204" y="523" type="curve" smooth="yes"/>
      <point x="247" y="523"/>
      <point x="279" y="567"/>
      <point x="301" y="597" type="curve"/>
      <point x="262" y="634" type="line"/>
      <point x="247" y="616"/>
      <point x="231" y="604"/>
      <point x="210" y="604" type="curve" smooth="yes"/>
      <point x="190" y="604"/>
      <point x="184" y="612"/>
      <point x="171" y="619" type="curve" smooth="yes"/>
      <point x="156" y="628"/>
      <point x="144" y="639"/>
      <point x="115" y="639" type="curve" smooth="yes"/>
      <point x="72" y="639"/>
      <point x="40" y="596"/>
      <point x="18" y="566" type="curve"/>
    </contour>
    <contour>
      <point x="153" y="478" type="move" name="_top"/>
    </contour>
  </outline>
</glyph>
<glyph name="hungarumlaut" format="1">
  <advance width="363"/>
  <unicode hex="02DD"/>
  <outline>
    <contour>
      <point x="103" y="675" type="line"/>
      <point x="37" y="513" type="line"/>
      <point x="90" y="486" type="line"/>
      <point x="190" y="627" type="line"/>
    </contour>
    <contour>
      <point x="240" y="675" type="line"/>
      <point x="174" y="513" type="line"/>
      <point x="227" y="486" type="line"/>
      <point x="327" y="627" type="line"/>
    </contour>
    <contour>
      <point x="142" y="478" type="move" name="_top"/>
    </contour>
  </outline>
</glyph>
<glyph name="Omega" format="1">
  <advance width="514"/>
  <unicode hex="03A9"/>
  <outline>
    <contour>
      <point x="360" y="474"/>
      <point x="382" y="404"/>
      <point x="362" y="277" type="curve" smooth="yes"/>
      <point x="350" y="194"/>
      <point x="327" y="157"/>
      <point x="282" y="137" type="curve"/>
      <point x="277" y="92" type="line"/>
      <point x="386" y="110"/>
      <point x="466" y="172"/>
      <point x="489" y="326" type="curve" smooth="yes"/>
      <point x="510" y="468"/>
      <point x="437" y="567"/>
      <point x="309" y="567" type="curve" smooth="yes"/>
      <point x="171" y="567"/>
      <point x="87" y="479"/>
      <point x="72" y="326" type="curve" smooth="yes"/>
      <point x="57" y="172"/>
      <point x="121" y="110"/>
      <point x="226" y="92" type="curve"/>
      <point x="232" y="137" type="line"/>
      <point x="193" y="157"/>
      <point x="179" y="194"/>
      <point x="187" y="277" type="curve" smooth="yes"/>
      <point x="199" y="404"/>
      <point x="237" y="474"/>
      <point x="299" y="474" type="curve" smooth="yes"/>
    </contour>
    <contour>
      <point x="281" y="123" type="line"/>
      <point x="266" y="0" type="line"/>
      <point x="459" y="0" type="line"/>
      <point x="468" y="76" type="line"/>
      <point x="355" y="76" type="line"/>
      <point x="361" y="121" type="line"/>
    </contour>
    <contour>
      <point x="150" y="121" type="line"/>
      <point x="144" y="76" type="line"/>
      <point x="31" y="76" type="line"/>
      <point x="22" y="0" type="line"/>
      <point x="215" y="0" type="line"/>
      <point x="230" y="123" type="line"/>
    </contour>
  </outline>
</glyph>
<glyph name="mu" format="1">
  <advance width="424"/>
  <unicode hex="03BC"/>
  <outline>
    <contour>
      <point x="-20" y="-198" type="line"/>
      <point x="98" y="-198" type="line"/>
      <point x="124" y="-5" type="line"/>
      <point x="133" y="-8"/>
      <point x="144" y="-11"/>
      <point x="156" y="-11" type="curve" smooth="yes"/>
      <point x="200" y="-11"/>
      <point x="233" y="20"/>
      <point x="260" y="59" type="curve"/>
      <point x="259" y="0" type="line"/>
      <point x="358" y="0" type="line"/>
      <point x="420" y="434" type="line"/>
      <point x="305" y="434" type="line"/>
      <point x="262" y="137" type="line"/>
      <point x="249" y="124"/>
      <point x="214" y="89"/>
      <point x="184" y="89" type="curve" smooth="yes"/>
      <point x="141" y="89"/>
      <point x="142" y="115"/>
      <point x="154" y="198" type="curve" smooth="yes"/>
      <point x="187" y="434" type="line"/>
      <point x="73" y="434" type="line"/>
    </contour>
  </outline>
</glyph>
<glyph name="pi" format="1">
  <advance width="236"/>
  <unicode hex="03C0"/>
  <outline>
    <contour>
      <point x="483" y="434" type="line"/>
      <point x="75" y="434" type="line"/>
      <point x="63" y="335" type="line"/>
      <point x="105" y="335" type="line"/>
      <point x="57" y="0" type="line"/>
      <point x="172" y="0" type="line"/>
      <point x="220" y="334" type="line"/>
      <point x="314" y="334" type="line"/>
      <point x="264" y="0" type="line"/>
      <point x="382" y="0" type="line"/>
      <point x="431" y="335" type="line"/>
      <point x="471" y="335" type="line"/>
    </contour>
  </outline>
</glyph>
<glyph name="omdeva" format="1">
  <advance width="900"/>
  <unicode hex="0950"/>
  <outline>
    <contour>
      <point x="39" y="381" type="line"/>
      <point x="50" y="268"/>
      <point x="79" y="178"/>
      <point x="143" y="103" type="curve" smooth="yes"/>
      <point x="205" y="30"/>
      <point x="276" y="-7"/>
      <point x="356" y="-7" type="curve" smooth="yes"/>
      <point x="457" y="-7"/>
      <point x="523" y="56"/>
      <point x="523" y="149" type="curve" smooth="yes"/>
      <point x="523" y="208"/>
      <point x="500" y="267"/>
      <point x="455" y="328" type="curve"/>
      <point x="487" y="351"/>
      <point x="514" y="363"/>
      <point x="537" y="363" type="curve" smooth="yes"/>
      <point x="563" y="363"/>
      <point x="576" y="339"/>
      <point x="576" y="291" type="curve" smooth="yes"/>
      <point x="576" y="251" type="line" smooth="yes"/>
      <point x="576" y="146"/>
      <point x="603" y="105"/>
      <point x="672" y="105" type="curve" smooth="yes"/>
      <point x="772" y="105"/>
      <point x="833" y="201"/>
      <point x="833" y="357" type="curve" smooth="yes"/>
      <point x="833" y="509"/>
      <point x="786" y="585"/>
      <point x="693" y="585" type="curve" smooth="yes"/>
      <point x="620" y="585"/>
      <point x="577" y="542"/>
      <point x="563" y="456" type="curve"/>
      <point x="558" y="457"/>
      <point x="555" y="457"/>
      <point x="552" y="457" type="curve" smooth="yes"/>
      <point x="544" y="457" type="line" smooth="yes"/>
      <point x="501" y="457"/>
      <point x="456" y="434"/>
      <point x="409" y="389" type="curve"/>
      <point x="393" y="404" type="line"/>
      <point x="401" y="425"/>
      <point x="405" y="445"/>
      <point x="405" y="464" type="curve" smooth="yes"/>
      <point x="405" y="565"/>
      <point x="339" y="633"/>
      <point x="243" y="633" type="curve" smooth="yes"/>
      <point x="210" y="633"/>
      <point x="174" y="625"/>
      <point x="136" y="608" type="curve"/>
      <point x="172" y="520" type="line"/>
      <point x="215" y="542"/>
      <point x="254" y="553"/>
      <point x="291" y="553" type="curve" smooth="yes"/>
      <point x="342" y="553"/>
      <point x="367" y="532"/>
      <point x="367" y="491" type="curve" smooth="yes"/>
      <point x="367" y="436"/>
      <point x="325" y="397"/>
      <point x="241" y="372" type="curve"/>
      <point x="279" y="283" type="line"/>
      <point x="316" y="300"/>
      <point x="346" y="326"/>
      <point x="373" y="365" type="curve"/>
      <point x="425" y="311"/>
      <point x="451" y="253"/>
      <point x="451" y="191" type="curve" smooth="yes"/>
      <point x="451" y="121"/>
      <point x="399" y="65"/>
      <point x="331" y="65" type="curve" smooth="yes"/>
      <point x="268" y="65"/>
      <point x="212" y="95"/>
      <point x="164" y="155" type="curve" smooth="yes"/>
      <point x="116" y="215"/>
      <point x="84" y="293"/>
      <point x="68" y="389" type="curve"/>
    </contour>
    <contour>
      <point x="607" y="488"/>
      <point x="639" y="508"/>
      <point x="684" y="508" type="curve" smooth="yes"/>
      <point x="748" y="508"/>
      <point x="793" y="443"/>
      <point x="793" y="351" type="curve" smooth="yes"/>
      <point x="793" y="253"/>
      <point x="742" y="185"/>
      <point x="676" y="185" type="curve" smooth="yes"/>
      <point x="636" y="185"/>
      <point x="616" y="218"/>
      <point x="616" y="283" type="curve" smooth="yes"/>
      <point x="616" y="377" type="line" smooth="yes"/>
      <point x="616" y="414"/>
      <point x="606" y="437"/>
      <point x="587" y="447" type="curve"/>
    </contour>
    <contour>
      <point x="303" y="717" type="line"/>
      <point x="355" y="639"/>
      <point x="417" y="600"/>
      <point x="489" y="600" type="curve" smooth="yes"/>
      <point x="539" y="600"/>
      <point x="588" y="625"/>
      <point x="635" y="676" type="curve"/>
      <point x="563" y="736" type="line"/>
      <point x="531" y="693"/>
      <point x="493" y="672"/>
      <point x="449" y="672" type="curve" smooth="yes"/>
      <point x="402" y="672"/>
      <point x="362" y="693"/>
      <point x="329" y="736" type="curve"/>
    </contour>
    <contour>
      <point x="404" y="771" type="line"/>
      <point x="460" y="712" type="line"/>
      <point x="516" y="767" type="line"/>
      <point x="460" y="824" type="line"/>
    </contour>
  </outline>
</glyph>
<glyph name="danda-deva" format="1">
  <advance width="312"/>
  <unicode hex="0964"/>
  <outline>
    <contour>
      <point x="201" y="56" type="line"/>
      <point x="245" y="572" type="line"/>
      <point x="143" y="572" type="line"/>
      <point x="101" y="56" type="line"/>
    </contour>
  </outline>
</glyph>
<glyph name="dbldanda-deva" format="1">
  <advance width="639"/>
  <unicode hex="0965"/>
  <outline>
    <contour>
      <point x="201" y="56" type="line"/>
      <point x="245" y="572" type="line"/>
      <point x="143" y="572" type="line"/>
      <point x="101" y="56" type="line"/>
    </contour>
    <contour>
      <point x="529" y="56" type="line"/>
      <point x="549" y="308"/>
      <point x="565" y="477"/>
      <point x="572" y="572" type="curve"/>
      <point x="471" y="572" type="line"/>
      <point x="429" y="56" type="line"/>
    </contour>
  </outline>
</glyph>
<glyph name="U0C01" format="1">
  <advance width="361"/>
  <unicode hex="0C01"/>
  <outline>
    <contour>
      <point x="253" y="0"/>
      <point x="268" y="20"/>
      <point x="268" y="41" type="curve" smooth="yes"/>
      <point x="268" y="60"/>
      <point x="260" y="69"/>
      <point x="243" y="69" type="curve" smooth="yes"/>
      <point x="158" y="69"/>
      <point x="117" y="132"/>
      <point x="124" y="231" type="curve"/>
      <point x="133" y="330"/>
      <point x="188" y="396"/>
      <point x="265" y="396" type="curve" smooth="yes"/>
      <point x="285" y="396"/>
      <point x="295" y="408"/>
      <point x="295" y="433" type="curve" smooth="yes"/>
      <point x="295" y="454"/>
      <point x="286" y="464"/>
      <point x="268" y="464" type="curve" smooth="yes"/>
      <point x="193" y="464"/>
      <point x="131" y="442"/>
      <point x="83" y="399" type="curve" smooth="yes"/>
      <point x="36" y="357"/>
      <point x="10" y="301"/>
      <point x="4" y="231" type="curve" smooth="yes"/>
      <point x="-7" y="90"/>
      <point x="77" y="0"/>
      <point x="233" y="0" type="curve" smooth="yes"/>
    </contour>
  </outline>
</glyph>
<glyph name="U0C02" format="1">
  <advance width="584"/>
  <unicode hex="0C02"/>
  <outline>
    <contour>
      <point x="371" y="123"/>
      <point x="325" y="69"/>
      <point x="241" y="69" type="curve" smooth="yes"/>
      <point x="156" y="69"/>
      <point x="114" y="132"/>
      <point x="121" y="231" type="curve" smooth="yes"/>
      <point x="129" y="330"/>
      <point x="184" y="396"/>
      <point x="261" y="396" type="curve" smooth="yes"/>
      <point x="306" y="396"/>
      <point x="338" y="380"/>
      <point x="359" y="348" type="curve"/>
      <point x="376" y="319"/>
      <point x="383" y="280"/>
      <point x="380" y="231" type="curve"/>
    </contour>
    <contour>
      <point x="512" y="386"/>
      <point x="433" y="464"/>
      <point x="264" y="464" type="curve" smooth="yes"/>
      <point x="189" y="464"/>
      <point x="127" y="442"/>
      <point x="79" y="399" type="curve" smooth="yes"/>
      <point x="34" y="357"/>
      <point x="8" y="301"/>
      <point x="1" y="231" type="curve"/>
      <point x="-10" y="90"/>
      <point x="72" y="0"/>
      <point x="231" y="0" type="curve" smooth="yes"/>
      <point x="383" y="0"/>
      <point x="493" y="90"/>
      <point x="503" y="231" type="curve"/>
    </contour>
  </outline>
</glyph>
<glyph name="U0C03" format="1">
  <advance width="380"/>
  <unicode hex="0C03"/>
  <outline>
    <contour>
      <point x="175" y="74"/>
      <point x="164" y="53"/>
      <point x="147" y="53" type="curve" smooth="yes"/>
      <point x="124" y="53"/>
      <point x="115" y="72"/>
      <point x="119" y="111" type="curve"/>
      <point x="122" y="154"/>
      <point x="133" y="176"/>
      <point x="152" y="176" type="curve" smooth="yes"/>
      <point x="174" y="176"/>
      <point x="183" y="156"/>
      <point x="179" y="116" type="curve" smooth="yes"/>
    </contour>
    <contour>
      <point x="194" y="316"/>
      <point x="184" y="295"/>
      <point x="165" y="295" type="curve" smooth="yes"/>
      <point x="144" y="295"/>
      <point x="135" y="314"/>
      <point x="139" y="353" type="curve"/>
      <point x="142" y="396"/>
      <point x="153" y="417"/>
      <point x="172" y="417" type="curve" smooth="yes"/>
      <point x="193" y="417"/>
      <point x="201" y="397"/>
      <point x="197" y="357" type="curve"/>
    </contour>
    <contour>
      <point x="293" y="151"/>
      <point x="279" y="179"/>
      <point x="248" y="200" type="curve" smooth="yes"/>
      <point x="223" y="216"/>
      <point x="192" y="224"/>
      <point x="153" y="224" type="curve" smooth="yes"/>
      <point x="116" y="224"/>
      <point x="83" y="216"/>
      <point x="55" y="199" type="curve" smooth="yes"/>
      <point x="23" y="179"/>
      <point x="5" y="151"/>
      <point x="1" y="115" type="curve"/>
      <point x="-2" y="76"/>
      <point x="11" y="47"/>
      <point x="41" y="27" type="curve" smooth="yes"/>
      <point x="66" y="9"/>
      <point x="98" y="0"/>
      <point x="137" y="0" type="curve" smooth="yes"/>
      <point x="174" y="0"/>
      <point x="208" y="9"/>
      <point x="237" y="27" type="curve" smooth="yes"/>
      <point x="268" y="46"/>
      <point x="285" y="76"/>
      <point x="289" y="115" type="curve" smooth="yes"/>
    </contour>
    <contour>
      <point x="312" y="393"/>
      <point x="298" y="421"/>
      <point x="268" y="441" type="curve" smooth="yes"/>
      <point x="242" y="459"/>
      <point x="210" y="468"/>
      <point x="173" y="468" type="curve" smooth="yes"/>
      <point x="136" y="468"/>
      <point x="103" y="459"/>
      <point x="75" y="441" type="curve"/>
      <point x="41" y="422"/>
      <point x="23" y="394"/>
      <point x="20" y="357" type="curve" smooth="yes"/>
      <point x="17" y="320"/>
      <point x="31" y="290"/>
      <point x="60" y="269" type="curve"/>
      <point x="86" y="252"/>
      <point x="118" y="243"/>
      <point x="156" y="243" type="curve" smooth="yes"/>
      <point x="194" y="243"/>
      <point x="227" y="252"/>
      <point x="256" y="269" type="curve" smooth="yes"/>
      <point x="289" y="289"/>
      <point x="307" y="318"/>
      <point x="311" y="357" type="curve"/>
    </contour>
  </outline>
</glyph>
<glyph name="U0C05" format="1">
  <advance width="639"/>
  <unicode hex="0C05"/>
  <outline>
    <contour>
      <point x="570" y="352"/>
      <point x="563" y="398"/>
      <point x="544" y="436" type="curve" smooth="yes"/>
      <point x="522" y="479"/>
      <point x="487" y="501"/>
      <point x="440" y="501" type="curve" smooth="yes"/>
      <point x="406" y="501"/>
      <point x="377" y="489"/>
      <point x="352" y="464" type="curve" smooth="yes"/>
      <point x="323" y="434"/>
      <point x="308" y="395"/>
      <point x="305" y="347" type="curve" smooth="yes"/>
      <point x="302" y="307"/>
      <point x="312" y="272"/>
      <point x="336" y="243" type="curve"/>
      <point x="136" y="243" type="line"/>
      <point x="132" y="176" type="line"/>
      <point x="403" y="176" type="line"/>
      <point x="408" y="253" type="line"/>
      <point x="397" y="253"/>
      <point x="392" y="263"/>
      <point x="392" y="283" type="curve" smooth="yes"/>
      <point x="392" y="282"/>
      <point x="393" y="286"/>
      <point x="394" y="293" type="curve" smooth="yes"/>
      <point x="397" y="341" type="line"/>
      <point x="402" y="396"/>
      <point x="416" y="424"/>
      <point x="439" y="424" type="curve" smooth="yes"/>
      <point x="451" y="424"/>
      <point x="460" y="412"/>
      <point x="467" y="389" type="curve"/>
      <point x="470" y="374"/>
      <point x="472" y="358"/>
      <point x="471" y="339" type="curve" smooth="yes"/>
      <point x="466" y="282"/>
      <point x="459" y="239"/>
      <point x="448" y="208" type="curve" smooth="yes"/>
      <point x="418" y="122"/>
      <point x="356" y="79"/>
      <point x="261" y="79" type="curve" smooth="yes"/>
      <point x="154" y="79"/>
      <point x="100" y="137"/>
      <point x="100" y="253" type="curve" smooth="yes"/>
      <point x="100" y="267" type="line" smooth="yes"/>
      <point x="100" y="272"/>
      <point x="100" y="278"/>
      <point x="101" y="283" type="curve"/>
      <point x="120" y="263"/>
      <point x="145" y="253"/>
      <point x="177" y="253" type="curve" smooth="yes"/>
      <point x="241" y="253"/>
      <point x="294" y="303"/>
      <point x="299" y="388" type="curve"/>
      <point x="304" y="456"/>
      <point x="264" y="501"/>
      <point x="188" y="501" type="curve" smooth="yes"/>
      <point x="141" y="501"/>
      <point x="101" y="485"/>
      <point x="69" y="453" type="curve" smooth="yes"/>
      <point x="30" y="414"/>
      <point x="8" y="354"/>
      <point x="1" y="271" type="curve" smooth="yes"/>
      <point x="-12" y="107"/>
      <point x="90" y="0"/>
      <point x="268" y="0" type="curve" smooth="yes"/>
      <point x="343" y="0"/>
      <point x="407" y="24"/>
      <point x="461" y="72" type="curve" smooth="yes"/>
      <point x="524" y="127"/>
      <point x="558" y="203"/>
      <point x="565" y="299" type="curve"/>
    </contour>
    <contour>
      <point x="203" y="335"/>
      <point x="190" y="309"/>
      <point x="167" y="309" type="curve" smooth="yes"/>
      <point x="148" y="309"/>
      <point x="140" y="330"/>
      <point x="143" y="373" type="curve" smooth="yes"/>
      <point x="147" y="418"/>
      <point x="161" y="441"/>
      <point x="184" y="441" type="curve" smooth="yes"/>
      <point x="201" y="441"/>
      <point x="208" y="423"/>
      <point x="207" y="387" type="curve"/>
    </contour>
  </outline>
</glyph>
<glyph name="U0C06" format="1">
  <advance width="640"/>
  <unicode hex="0C06"/>
  <outline>
    <contour>
      <point x="469" y="325"/>
      <point x="458" y="301"/>
      <point x="441" y="301" type="curve" smooth="yes"/>
      <point x="420" y="301"/>
      <point x="411" y="325"/>
      <point x="415" y="373" type="curve" smooth="yes"/>
      <point x="418" y="418"/>
      <point x="429" y="440"/>
      <point x="449" y="440" type="curve" smooth="yes"/>
      <point x="468" y="440"/>
      <point x="475" y="418"/>
      <point x="472" y="373" type="curve" smooth="yes"/>
    </contour>
    <contour>
      <point x="210" y="330"/>
      <point x="198" y="305"/>
      <point x="177" y="305" type="curve" smooth="yes"/>
      <point x="156" y="305"/>
      <point x="146" y="327"/>
      <point x="148" y="372" type="curve"/>
      <point x="153" y="421"/>
      <point x="165" y="445"/>
      <point x="185" y="445" type="curve" smooth="yes"/>
      <point x="206" y="445"/>
      <point x="216" y="423"/>
      <point x="213" y="379" type="curve" smooth="yes"/>
    </contour>
    <contour>
      <point x="570" y="458"/>
      <point x="532" y="497"/>
      <point x="451" y="497" type="curve" smooth="yes"/>
      <point x="366" y="497"/>
      <point x="320" y="458"/>
      <point x="315" y="379" type="curve"/>
      <point x="311" y="334"/>
      <point x="322" y="302"/>
      <point x="347" y="283" type="curve"/>
      <point x="354" y="274"/>
      <point x="376" y="264"/>
      <point x="413" y="248" type="curve"/>
      <point x="406" y="241"/>
      <point x="391" y="237"/>
      <point x="368" y="237" type="curve" smooth="yes"/>
      <point x="141" y="237" type="line"/>
      <point x="136" y="167" type="line"/>
      <point x="357" y="167" type="line" smooth="yes"/>
      <point x="392" y="167"/>
      <point x="432" y="194"/>
      <point x="444" y="215" type="curve"/>
      <point x="450" y="175"/>
      <point x="435" y="140"/>
      <point x="399" y="109" type="curve" smooth="yes"/>
      <point x="365" y="81"/>
      <point x="324" y="67"/>
      <point x="277" y="67" type="curve" smooth="yes"/>
      <point x="161" y="67"/>
      <point x="103" y="122"/>
      <point x="103" y="231" type="curve" smooth="yes"/>
      <point x="103" y="248"/>
      <point x="104" y="263"/>
      <point x="108" y="283" type="curve"/>
      <point x="127" y="264" type="line"/>
      <point x="139" y="255"/>
      <point x="156" y="251"/>
      <point x="179" y="251" type="curve" smooth="yes"/>
      <point x="244" y="251"/>
      <point x="297" y="297"/>
      <point x="304" y="384" type="curve"/>
      <point x="305" y="421"/>
      <point x="297" y="446"/>
      <point x="276" y="467" type="curve"/>
      <point x="257" y="484"/>
      <point x="230" y="492"/>
      <point x="197" y="492" type="curve" smooth="yes"/>
      <point x="129" y="492"/>
      <point x="78" y="467"/>
      <point x="44" y="416" type="curve" smooth="yes"/>
      <point x="16" y="372"/>
      <point x="0" y="317"/>
      <point x="0" y="244" type="curve" smooth="yes"/>
      <point x="0" y="81"/>
      <point x="92" y="-1"/>
      <point x="275" y="-1" type="curve" smooth="yes"/>
      <point x="334" y="-1"/>
      <point x="388" y="10"/>
      <point x="437" y="33" type="curve"/>
      <point x="508" y="64"/>
      <point x="546" y="115"/>
      <point x="552" y="185" type="curve" smooth="yes"/>
      <point x="556" y="226"/>
      <point x="539" y="265"/>
      <point x="512" y="276" type="curve"/>
      <point x="544" y="295"/>
      <point x="562" y="329"/>
      <point x="565" y="379" type="curve" smooth="yes"/>
    </contour>
  </outline>
</glyph>
<glyph name="U0C07" format="1">
  <advance width="629"/>
  <unicode hex="0C07"/>
  <outline>
    <contour>
      <point x="359" y="97"/>
      <point x="308" y="67"/>
      <point x="237" y="67" type="curve" smooth="yes"/>
      <point x="162" y="67"/>
      <point x="127" y="93"/>
      <point x="132" y="145" type="curve"/>
      <point x="133" y="168"/>
      <point x="145" y="185"/>
      <point x="169" y="197" type="curve" smooth="yes"/>
      <point x="189" y="208"/>
      <point x="211" y="213"/>
      <point x="236" y="213" type="curve" smooth="yes"/>
      <point x="305" y="213"/>
      <point x="356" y="194"/>
      <point x="389" y="156" type="curve"/>
    </contour>
    <contour>
      <point x="561" y="74"/>
      <point x="542" y="128"/>
      <point x="499" y="175" type="curve"/>
      <point x="518" y="214"/>
      <point x="529" y="256"/>
      <point x="532" y="301" type="curve" smooth="yes"/>
      <point x="537" y="359"/>
      <point x="526" y="404"/>
      <point x="499" y="435" type="curve" smooth="yes"/>
      <point x="472" y="464"/>
      <point x="436" y="479"/>
      <point x="391" y="479" type="curve" smooth="yes"/>
      <point x="338" y="479"/>
      <point x="302" y="463"/>
      <point x="281" y="431" type="curve"/>
      <point x="264" y="462"/>
      <point x="229" y="477"/>
      <point x="175" y="477" type="curve" smooth="yes"/>
      <point x="98" y="477"/>
      <point x="48" y="448"/>
      <point x="24" y="391" type="curve"/>
      <point x="9" y="359"/>
      <point x="3" y="328"/>
      <point x="11" y="301" type="curve"/>
      <point x="124" y="301" type="line"/>
      <point x="117" y="312"/>
      <point x="114" y="326"/>
      <point x="117" y="345" type="curve"/>
      <point x="120" y="389"/>
      <point x="138" y="411"/>
      <point x="171" y="411" type="curve" smooth="yes"/>
      <point x="198" y="411"/>
      <point x="226" y="382"/>
      <point x="223" y="345" type="curve" smooth="yes"/>
      <point x="221" y="316" type="line"/>
      <point x="328" y="316" type="line"/>
      <point x="328" y="340" type="line"/>
      <point x="332" y="376"/>
      <point x="350" y="407"/>
      <point x="377" y="407" type="curve" smooth="yes"/>
      <point x="416" y="407"/>
      <point x="432" y="370"/>
      <point x="427" y="296" type="curve" smooth="yes"/>
      <point x="425" y="274"/>
      <point x="422" y="254"/>
      <point x="419" y="235" type="curve"/>
      <point x="368" y="259"/>
      <point x="308" y="272"/>
      <point x="231" y="272" type="curve" smooth="yes"/>
      <point x="171" y="272"/>
      <point x="120" y="263"/>
      <point x="79" y="244" type="curve"/>
      <point x="30" y="223"/>
      <point x="3" y="190"/>
      <point x="0" y="147" type="curve" smooth="yes"/>
      <point x="-3" y="98"/>
      <point x="20" y="60"/>
      <point x="69" y="33" type="curve" smooth="yes"/>
      <point x="111" y="10"/>
      <point x="165" y="-1"/>
      <point x="231" y="-1" type="curve" smooth="yes"/>
      <point x="309" y="-1"/>
      <point x="377" y="27"/>
      <point x="435" y="83" type="curve"/>
      <point x="438" y="59"/>
      <point x="441" y="41"/>
      <point x="440" y="21" type="curve"/>
      <point x="436" y="5"/>
      <point x="436" y="-5"/>
      <point x="432" y="-12" type="curve"/>
      <point x="551" y="-12" type="line"/>
      <point x="554" y="-5"/>
      <point x="555" y="4"/>
      <point x="556" y="15" type="curve" smooth="yes"/>
    </contour>
  </outline>
</glyph>
<glyph name="U0C08" format="1">
  <advance width="932"/>
  <unicode hex="0C08"/>
  <outline>
    <contour>
      <point x="863" y="208"/>
      <point x="846" y="249"/>
      <point x="809" y="268" type="curve"/>
      <point x="826" y="297"/>
      <point x="836" y="325"/>
      <point x="839" y="353" type="curve" smooth="yes"/>
      <point x="842" y="389"/>
      <point x="830" y="416"/>
      <point x="805" y="435" type="curve"/>
      <point x="786" y="452"/>
      <point x="760" y="460"/>
      <point x="729" y="460" type="curve" smooth="yes"/>
      <point x="690" y="460"/>
      <point x="659" y="450"/>
      <point x="635" y="431" type="curve"/>
      <point x="632" y="364" type="line"/>
      <point x="641" y="369"/>
      <point x="649" y="375"/>
      <point x="656" y="383" type="curve"/>
      <point x="669" y="392"/>
      <point x="682" y="397"/>
      <point x="695" y="397" type="curve"/>
      <point x="728" y="401"/>
      <point x="753" y="377"/>
      <point x="752" y="336" type="curve"/>
      <point x="750" y="315"/>
      <point x="739" y="298"/>
      <point x="720" y="283" type="curve"/>
      <point x="579" y="283" type="line"/>
      <point x="577" y="364"/>
      <point x="538" y="419"/>
      <point x="463" y="448" type="curve"/>
      <point x="466" y="451"/>
      <point x="483" y="473"/>
      <point x="515" y="515" type="curve" smooth="yes"/>
      <point x="532" y="538"/>
      <point x="551" y="549"/>
      <point x="571" y="549" type="curve" smooth="yes"/>
      <point x="583" y="549"/>
      <point x="591" y="547"/>
      <point x="595" y="544" type="curve"/>
      <point x="599" y="600" type="line"/>
      <point x="589" y="605"/>
      <point x="573" y="607"/>
      <point x="552" y="607" type="curve" smooth="yes"/>
      <point x="510" y="607"/>
      <point x="473" y="592"/>
      <point x="441" y="561" type="curve"/>
      <point x="395" y="503" type="line" smooth="yes"/>
      <point x="379" y="482"/>
      <point x="361" y="469"/>
      <point x="341" y="464" type="curve"/>
      <point x="337" y="464" type="line" smooth="yes"/>
      <point x="331" y="464"/>
      <point x="318" y="463"/>
      <point x="297" y="460" type="curve"/>
      <point x="257" y="463"/>
      <point x="237" y="479"/>
      <point x="237" y="509" type="curve" smooth="yes"/>
      <point x="237" y="514"/>
      <point x="238" y="519"/>
      <point x="240" y="524" type="curve"/>
      <point x="113" y="524" type="line"/>
      <point x="107" y="507"/>
      <point x="107" y="489"/>
      <point x="113" y="468" type="curve" smooth="yes"/>
      <point x="118" y="450"/>
      <point x="139" y="433"/>
      <point x="177" y="416" type="curve"/>
      <point x="132" y="387"/>
      <point x="103" y="342"/>
      <point x="91" y="283" type="curve"/>
      <point x="5" y="283" type="line"/>
      <point x="0" y="208" type="line"/>
      <point x="80" y="208" type="line"/>
      <point x="79" y="141"/>
      <point x="102" y="89"/>
      <point x="147" y="51" type="curve" smooth="yes"/>
      <point x="190" y="16"/>
      <point x="247" y="-1"/>
      <point x="320" y="-1" type="curve" smooth="yes"/>
      <point x="379" y="-1"/>
      <point x="430" y="14"/>
      <point x="473" y="43" type="curve" smooth="yes"/>
      <point x="525" y="78"/>
      <point x="558" y="133"/>
      <point x="573" y="208" type="curve"/>
      <point x="616" y="208" type="line"/>
      <point x="598" y="193"/>
      <point x="588" y="171"/>
      <point x="585" y="143" type="curve"/>
      <point x="584" y="104"/>
      <point x="592" y="72"/>
      <point x="609" y="47" type="curve" smooth="yes"/>
      <point x="630" y="18"/>
      <point x="660" y="4"/>
      <point x="701" y="4" type="curve" smooth="yes"/>
      <point x="745" y="4"/>
      <point x="782" y="19"/>
      <point x="812" y="49" type="curve" smooth="yes"/>
      <point x="841" y="78"/>
      <point x="857" y="110"/>
      <point x="859" y="145" type="curve" smooth="yes"/>
    </contour>
    <contour>
      <point x="464" y="208" type="line"/>
      <point x="451" y="115"/>
      <point x="406" y="69"/>
      <point x="327" y="69" type="curve" smooth="yes"/>
      <point x="242" y="69"/>
      <point x="202" y="115"/>
      <point x="205" y="208" type="curve"/>
    </contour>
    <contour>
      <point x="213" y="283" type="line"/>
      <point x="225" y="345"/>
      <point x="253" y="384"/>
      <point x="297" y="399" type="curve"/>
      <point x="344" y="404" type="line"/>
      <point x="422" y="403"/>
      <point x="463" y="363"/>
      <point x="468" y="283" type="curve"/>
    </contour>
    <contour>
      <point x="761" y="96"/>
      <point x="745" y="69"/>
      <point x="717" y="69" type="curve" smooth="yes"/>
      <point x="685" y="69"/>
      <point x="671" y="95"/>
      <point x="676" y="148" type="curve" smooth="yes"/>
      <point x="678" y="175"/>
      <point x="689" y="195"/>
      <point x="709" y="208" type="curve"/>
      <point x="748" y="208"/>
      <point x="767" y="188"/>
      <point x="764" y="149" type="curve" smooth="yes"/>
    </contour>
  </outline>
</glyph>
<glyph name="U0C09" format="1">
  <advance width="661"/>
  <unicode hex="0C09"/>
  <outline>
    <contour>
      <point x="592" y="297"/>
      <point x="554" y="345"/>
      <point x="471" y="345" type="curve" smooth="yes"/>
      <point x="440" y="345"/>
      <point x="412" y="338"/>
      <point x="389" y="323" type="curve" smooth="yes"/>
      <point x="365" y="307"/>
      <point x="352" y="283"/>
      <point x="351" y="251" type="curve"/>
      <point x="347" y="219"/>
      <point x="354" y="192"/>
      <point x="375" y="175" type="curve"/>
      <point x="392" y="159"/>
      <point x="414" y="151"/>
      <point x="441" y="151" type="curve" smooth="yes"/>
      <point x="458" y="151"/>
      <point x="475" y="154"/>
      <point x="491" y="161" type="curve"/>
      <point x="483" y="100"/>
      <point x="457" y="69"/>
      <point x="413" y="69" type="curve" smooth="yes"/>
      <point x="367" y="69"/>
      <point x="346" y="96"/>
      <point x="351" y="151" type="curve"/>
      <point x="353" y="200" type="line"/>
      <point x="259" y="200" type="line"/>
      <point x="253" y="140" type="line"/>
      <point x="250" y="95"/>
      <point x="235" y="72"/>
      <point x="208" y="72" type="curve" smooth="yes"/>
      <point x="173" y="72"/>
      <point x="155" y="108"/>
      <point x="155" y="180" type="curve" smooth="yes"/>
      <point x="155" y="226" type="line" smooth="yes"/>
      <point x="155" y="243"/>
      <point x="156" y="255"/>
      <point x="157" y="260" type="curve"/>
      <point x="324" y="260" type="line"/>
      <point x="329" y="333" type="line"/>
      <point x="176" y="333" type="line"/>
      <point x="210" y="412"/>
      <point x="261" y="451"/>
      <point x="329" y="451" type="curve" smooth="yes"/>
      <point x="371" y="451"/>
      <point x="401" y="443"/>
      <point x="419" y="427" type="curve"/>
      <point x="436" y="408"/>
      <point x="442" y="383"/>
      <point x="445" y="376" type="curve"/>
      <point x="555" y="376" type="line"/>
      <point x="558" y="405"/>
      <point x="544" y="431"/>
      <point x="513" y="456" type="curve" smooth="yes"/>
      <point x="473" y="490"/>
      <point x="414" y="507"/>
      <point x="336" y="507" type="curve" smooth="yes"/>
      <point x="281" y="507"/>
      <point x="228" y="491"/>
      <point x="177" y="460" type="curve" smooth="yes"/>
      <point x="123" y="427"/>
      <point x="88" y="385"/>
      <point x="71" y="333" type="curve"/>
      <point x="4" y="333" type="line"/>
      <point x="0" y="260" type="line"/>
      <point x="52" y="260" type="line"/>
      <point x="51" y="240"/>
      <point x="49" y="224"/>
      <point x="49" y="207" type="curve" smooth="yes"/>
      <point x="49" y="128"/>
      <point x="64" y="72"/>
      <point x="93" y="39" type="curve" smooth="yes"/>
      <point x="116" y="13"/>
      <point x="149" y="0"/>
      <point x="192" y="0" type="curve" smooth="yes"/>
      <point x="227" y="0"/>
      <point x="262" y="17"/>
      <point x="295" y="51" type="curve"/>
      <point x="312" y="30"/>
      <point x="326" y="16"/>
      <point x="336" y="11" type="curve" smooth="yes"/>
      <point x="351" y="3"/>
      <point x="373" y="-1"/>
      <point x="401" y="-1" type="curve" smooth="yes"/>
      <point x="448" y="-1"/>
      <point x="490" y="18"/>
      <point x="525" y="56" type="curve" smooth="yes"/>
      <point x="562" y="97"/>
      <point x="582" y="145"/>
      <point x="585" y="200" type="curve"/>
    </contour>
    <contour>
      <point x="400" y="669"/>
      <point x="383" y="691"/>
      <point x="348" y="691" type="curve" smooth="yes"/>
      <point x="313" y="691"/>
      <point x="294" y="671"/>
      <point x="291" y="632" type="curve"/>
      <point x="291" y="600"/>
      <point x="304" y="565"/>
      <point x="337" y="524" type="curve"/>
      <point x="373" y="568"/>
      <point x="396" y="603"/>
      <point x="397" y="624" type="curve" smooth="yes"/>
    </contour>
    <contour>
      <point x="490" y="222"/>
      <point x="481" y="207"/>
      <point x="464" y="207" type="curve" smooth="yes"/>
      <point x="447" y="207"/>
      <point x="440" y="221"/>
      <point x="441" y="248" type="curve" smooth="yes"/>
      <point x="442" y="277"/>
      <point x="451" y="292"/>
      <point x="468" y="292" type="curve" smooth="yes"/>
      <point x="486" y="292"/>
      <point x="494" y="279"/>
      <point x="493" y="253" type="curve"/>
    </contour>
  </outline>
</glyph>
<glyph name="U0C0A" format="1">
  <advance width="959"/>
  <unicode hex="0C0A"/>
  <outline>
    <contour>
      <point x="487" y="134"/>
      <point x="478" y="114"/>
      <point x="464" y="97" type="curve" smooth="yes"/>
      <point x="447" y="75"/>
      <point x="429" y="64"/>
      <point x="408" y="64" type="curve" smooth="yes"/>
      <point x="366" y="64"/>
      <point x="348" y="94"/>
      <point x="355" y="155" type="curve"/>
      <point x="359" y="213" type="line"/>
      <point x="265" y="213" type="line"/>
      <point x="261" y="155" type="line" smooth="yes"/>
      <point x="258" y="100"/>
      <point x="243" y="73"/>
      <point x="215" y="73" type="curve" smooth="yes"/>
      <point x="171" y="73"/>
      <point x="149" y="114"/>
      <point x="149" y="197" type="curve" smooth="yes"/>
      <point x="149" y="217"/>
      <point x="154" y="244"/>
      <point x="157" y="273" type="curve"/>
      <point x="377" y="273" type="line"/>
      <point x="371" y="257"/>
      <point x="368" y="243"/>
      <point x="367" y="231" type="curve" smooth="yes"/>
      <point x="365" y="204"/>
      <point x="372" y="182"/>
      <point x="389" y="164" type="curve"/>
      <point x="405" y="149"/>
      <point x="421" y="141"/>
      <point x="444" y="141" type="curve" smooth="yes"/>
      <point x="480" y="141"/>
      <point x="483" y="150"/>
      <point x="492" y="155" type="curve"/>
    </contour>
    <contour>
      <point x="783" y="166"/>
      <point x="771" y="145"/>
      <point x="751" y="145" type="curve" smooth="yes"/>
      <point x="726" y="145"/>
      <point x="715" y="166"/>
      <point x="719" y="208" type="curve"/>
      <point x="720" y="235"/>
      <point x="730" y="256"/>
      <point x="748" y="273" type="curve"/>
      <point x="778" y="273"/>
      <point x="791" y="252"/>
      <point x="788" y="209" type="curve"/>
    </contour>
    <contour>
      <point x="500" y="211"/>
      <point x="492" y="199"/>
      <point x="477" y="199" type="curve" smooth="yes"/>
      <point x="464" y="199"/>
      <point x="457" y="211"/>
      <point x="457" y="235" type="curve"/>
      <point x="459" y="260"/>
      <point x="467" y="273"/>
      <point x="480" y="273" type="curve" smooth="yes"/>
      <point x="496" y="273"/>
      <point x="504" y="261"/>
      <point x="503" y="236" type="curve"/>
    </contour>
    <contour>
      <point x="890" y="258"/>
      <point x="872" y="298"/>
      <point x="833" y="324" type="curve"/>
      <point x="856" y="338"/>
      <point x="869" y="362"/>
      <point x="872" y="396" type="curve" smooth="yes"/>
      <point x="877" y="467"/>
      <point x="845" y="503"/>
      <point x="775" y="503" type="curve" smooth="yes"/>
      <point x="740" y="503"/>
      <point x="709" y="495"/>
      <point x="681" y="480" type="curve"/>
      <point x="677" y="419" type="line"/>
      <point x="709" y="435" type="line"/>
      <point x="725" y="438"/>
      <point x="729" y="440"/>
      <point x="745" y="440" type="curve" smooth="yes"/>
      <point x="776" y="440"/>
      <point x="790" y="423"/>
      <point x="788" y="388" type="curve"/>
      <point x="785" y="367"/>
      <point x="778" y="350"/>
      <point x="765" y="339" type="curve"/>
      <point x="177" y="339" type="line"/>
      <point x="211" y="417"/>
      <point x="264" y="456"/>
      <point x="336" y="456" type="curve" smooth="yes"/>
      <point x="413" y="456"/>
      <point x="452" y="428"/>
      <point x="451" y="372" type="curve"/>
      <point x="568" y="372" type="line"/>
      <point x="570" y="409"/>
      <point x="553" y="439"/>
      <point x="517" y="464" type="curve"/>
      <point x="476" y="490"/>
      <point x="418" y="503"/>
      <point x="343" y="503" type="curve" smooth="yes"/>
      <point x="274" y="503"/>
      <point x="216" y="487"/>
      <point x="169" y="456" type="curve" smooth="yes"/>
      <point x="124" y="427"/>
      <point x="92" y="388"/>
      <point x="73" y="339" type="curve"/>
      <point x="4" y="339" type="line"/>
      <point x="0" y="273" type="line"/>
      <point x="57" y="273" type="line"/>
      <point x="56" y="259" type="line" smooth="yes"/>
      <point x="54" y="243"/>
      <point x="53" y="228"/>
      <point x="53" y="213" type="curve" smooth="yes"/>
      <point x="53" y="134"/>
      <point x="71" y="77"/>
      <point x="107" y="40" type="curve"/>
      <point x="131" y="13"/>
      <point x="162" y="0"/>
      <point x="201" y="0" type="curve" smooth="yes"/>
      <point x="245" y="0"/>
      <point x="280" y="17"/>
      <point x="307" y="52" type="curve"/>
      <point x="324" y="30"/>
      <point x="337" y="16"/>
      <point x="345" y="11" type="curve" smooth="yes"/>
      <point x="358" y="3"/>
      <point x="378" y="-1"/>
      <point x="403" y="-1" type="curve" smooth="yes"/>
      <point x="451" y="-1"/>
      <point x="494" y="18"/>
      <point x="531" y="55" type="curve" smooth="yes"/>
      <point x="569" y="93"/>
      <point x="590" y="142"/>
      <point x="595" y="201" type="curve"/>
      <point x="596" y="226"/>
      <point x="592" y="250"/>
      <point x="584" y="273" type="curve"/>
      <point x="657" y="273" type="line"/>
      <point x="644" y="257"/>
      <point x="636" y="236"/>
      <point x="633" y="209" type="curve"/>
      <point x="628" y="122"/>
      <point x="662" y="79"/>
      <point x="736" y="79" type="curve" smooth="yes"/>
      <point x="781" y="79"/>
      <point x="817" y="92"/>
      <point x="845" y="119" type="curve" smooth="yes"/>
      <point x="869" y="143"/>
      <point x="882" y="171"/>
      <point x="885" y="203" type="curve" smooth="yes"/>
    </contour>
    <contour>
      <point x="342" y="656"/>
      <point x="326" y="679"/>
      <point x="291" y="679" type="curve" smooth="yes"/>
      <point x="255" y="679"/>
      <point x="236" y="658"/>
      <point x="233" y="616" type="curve"/>
      <point x="232" y="586"/>
      <point x="249" y="550"/>
      <point x="284" y="509" type="curve"/>
      <point x="319" y="554"/>
      <point x="337" y="588"/>
      <point x="339" y="609" type="curve" smooth="yes"/>
    </contour>
    <contour>
      <point x="469" y="656"/>
      <point x="453" y="679"/>
      <point x="417" y="679" type="curve" smooth="yes"/>
      <point x="382" y="679"/>
      <point x="364" y="658"/>
      <point x="361" y="616" type="curve"/>
      <point x="360" y="584"/>
      <point x="377" y="548"/>
      <point x="412" y="509" type="curve"/>
      <point x="447" y="554"/>
      <point x="464" y="588"/>
      <point x="465" y="609" type="curve"/>
    </contour>
  </outline>
</glyph>
<glyph name="U0C0C" format="1">
  <advance width="728"/>
  <unicode hex="0C0C"/>
  <outline>
    <contour>
      <point x="694" y="-56"/>
      <point x="666" y="151"/>
      <point x="561" y="151" type="curve"/>
      <point x="561" y="63" type="line"/>
      <point x="598" y="61"/>
      <point x="571" y="-66"/>
      <point x="535" y="-115" type="curve"/>
      <point x="513" y="-143"/>
      <point x="452" y="-225"/>
      <point x="292" y="-225" type="curve" smooth="yes"/>
      <point x="246" y="-225"/>
      <point x="175" y="-176"/>
      <point x="175" y="-123" type="curve" smooth="yes"/>
      <point x="175" y="-100"/>
      <point x="173" y="-47"/>
      <point x="255" y="-15" type="curve"/>
      <point x="424" y="48"/>
      <point x="571" y="93"/>
      <point x="571" y="277" type="curve" smooth="yes"/>
      <point x="571" y="382"/>
      <point x="519" y="477"/>
      <point x="395" y="477" type="curve" smooth="yes"/>
      <point x="339" y="477"/>
      <point x="300" y="456"/>
      <point x="279" y="415" type="curve"/>
      <point x="260" y="454"/>
      <point x="219" y="477"/>
      <point x="163" y="477" type="curve" smooth="yes"/>
      <point x="61" y="477"/>
      <point x="-15" y="375"/>
      <point x="1" y="256" type="curve"/>
      <point x="117" y="256" type="line"/>
      <point x="97" y="299"/>
      <point x="105" y="401"/>
      <point x="168" y="401" type="curve" smooth="yes"/>
      <point x="209" y="401"/>
      <point x="224" y="355"/>
      <point x="221" y="311" type="curve" smooth="yes"/>
      <point x="219" y="273" type="line"/>
      <point x="328" y="273" type="line"/>
      <point x="329" y="304" type="line"/>
      <point x="334" y="344"/>
      <point x="352" y="396"/>
      <point x="389" y="396" type="curve" smooth="yes"/>
      <point x="432" y="396"/>
      <point x="461" y="370"/>
      <point x="461" y="277" type="curve" smooth="yes"/>
      <point x="461" y="153"/>
      <point x="352" y="120"/>
      <point x="245" y="80" type="curve"/>
      <point x="171" y="56"/>
      <point x="44" y="8"/>
      <point x="44" y="-124" type="curve" smooth="yes"/>
      <point x="44" y="-229"/>
      <point x="175" y="-311"/>
      <point x="292" y="-311" type="curve" smooth="yes"/>
      <point x="458" y="-311"/>
      <point x="554" y="-231"/>
      <point x="600" y="-175" type="curve"/>
    </contour>
  </outline>
</glyph>
